<?xml version="1.0" encoding="UTF-8"?>
<!DOCTYPE svg PUBLIC "-//W3C//DTD SVG 1.1//EN" "http://www.w3.org/Graphics/SVG/1.1/DTD/svg11.dtd">
<svg xmlns="http://www.w3.org/2000/svg" version="1.1" width="40px" height="40px" style="shape-rendering:geometricPrecision; text-rendering:geometricPrecision; image-rendering:optimizeQuality; fill-rule:evenodd; clip-rule:evenodd" xmlns:xlink="http://www.w3.org/1999/xlink">
<g><path style="opacity:1" fill="#e8e8e5" d="M -0.5,0.5 C 3.01215,-0.054502 6.01215,0.612165 8.5,2.5C 5.5,2.5 2.5,2.5 -0.5,2.5C -0.5,1.83333 -0.5,1.16667 -0.5,0.5 Z"/></g>
<g><path style="opacity:1" fill="#d8d7d3" d="M -0.5,0.5 C -0.5,0.166667 -0.5,-0.166667 -0.5,-0.5C 12.8333,-0.5 26.1667,-0.5 39.5,-0.5C 39.5,-0.166667 39.5,0.166667 39.5,0.5C 33.6105,0.449693 27.9438,1.11636 22.5,2.5C 20.5,2.5 18.5,2.5 16.5,2.5C 13.8333,2.5 11.1667,2.5 8.5,2.5C 6.01215,0.612165 3.01215,-0.054502 -0.5,0.5 Z"/></g>
<g><path style="opacity:1" fill="#e7e6e3" d="M 39.5,0.5 C 39.5,1.16667 39.5,1.83333 39.5,2.5C 35.7852,2.42305 32.1185,2.75638 28.5,3.5C 26.7354,2.53862 24.7354,2.20528 22.5,2.5C 27.9438,1.11636 33.6105,0.449693 39.5,0.5 Z"/></g>
<g><path style="opacity:1" fill="#525050" d="M 32.5,4.5 C 34.6074,3.53178 36.9407,3.19845 39.5,3.5C 39.5,4.16667 39.5,4.83333 39.5,5.5C 37.2362,4.78138 34.9029,4.44805 32.5,4.5 Z"/></g>
<g><path style="opacity:1" fill="#535352" d="M -0.5,3.5 C 2.08209,3.02539 4.08209,3.69206 5.5,5.5C 3.5,5.5 1.5,5.5 -0.5,5.5C -0.5,4.83333 -0.5,4.16667 -0.5,3.5 Z"/></g>
<g><path style="opacity:1" fill="#aeafaf" d="M -0.5,3.5 C -0.5,3.16667 -0.5,2.83333 -0.5,2.5C 2.5,2.5 5.5,2.5 8.5,2.5C 11.1667,2.5 13.8333,2.5 16.5,2.5C 16.5,2.83333 16.5,3.16667 16.5,3.5C 7.16667,4.16667 7.16667,4.83333 16.5,5.5C 16.5,5.83333 16.5,6.16667 16.5,6.5C 13.9407,6.19845 11.6074,6.53178 9.5,7.5C 7.6203,7.77089 6.28696,7.10422 5.5,5.5C 4.08209,3.69206 2.08209,3.02539 -0.5,3.5 Z"/></g>
<g><path style="opacity:1" fill="#666767" d="M 16.5,3.5 C 17.8333,4.16667 17.8333,4.83333 16.5,5.5C 7.16667,4.83333 7.16667,4.16667 16.5,3.5 Z"/></g>
<g><path style="opacity:1" fill="#b5b6b7" d="M 16.5,3.5 C 16.5,3.16667 16.5,2.83333 16.5,2.5C 18.5,2.5 20.5,2.5 22.5,2.5C 24.7354,2.20528 26.7354,2.53862 28.5,3.5C 25.3019,2.96438 22.6353,3.63105 20.5,5.5C 20.5,5.83333 20.5,6.16667 20.5,6.5C 19.2223,6.78219 18.2223,7.44886 17.5,8.5C 17.6716,7.50838 17.3382,6.84171 16.5,6.5C 16.5,6.16667 16.5,5.83333 16.5,5.5C 17.8333,4.83333 17.8333,4.16667 16.5,3.5 Z"/></g>
<g><path style="opacity:1" fill="#6a6a6a" d="M 28.5,3.5 C 26.3647,5.36895 23.6981,6.03562 20.5,5.5C 22.6353,3.63105 25.3019,2.96438 28.5,3.5 Z"/></g>
<g><path style="opacity:1" fill="#afb0af" d="M 39.5,2.5 C 39.5,2.83333 39.5,3.16667 39.5,3.5C 36.9407,3.19845 34.6074,3.53178 32.5,4.5C 33.5676,5.43448 34.901,5.76781 36.5,5.5C 36.5,6.5 36.5,7.5 36.5,8.5C 35.0357,7.59464 33.7024,7.59464 32.5,8.5C 28.9563,6.43095 25.2896,6.09761 21.5,7.5C 20.8333,7.5 20.5,7.16667 20.5,6.5C 20.5,6.16667 20.5,5.83333 20.5,5.5C 23.6981,6.03562 26.3647,5.36895 28.5,3.5C 32.1185,2.75638 35.7852,2.42305 39.5,2.5 Z"/></g>
<g><path style="opacity:1" fill="#9c9d9c" d="M 32.5,8.5 C 32.5,8.83333 32.5,9.16667 32.5,9.5C 30.8333,9.5 29.1667,9.5 27.5,9.5C 26.5,9.5 25.5,9.5 24.5,9.5C 23.5,8.83333 22.5,8.16667 21.5,7.5C 25.2896,6.09761 28.9563,6.43095 32.5,8.5 Z"/></g>
<g><path style="opacity:1" fill="#9ea1a4" d="M 9.5,7.5 C 11.6074,6.53178 13.9407,6.19845 16.5,6.5C 17.3382,6.84171 17.6716,7.50838 17.5,8.5C 17.1667,8.5 16.8333,8.5 16.5,8.5C 14.8333,8.5 13.1667,8.5 11.5,8.5C 11.1583,7.66175 10.4916,7.32842 9.5,7.5 Z"/></g>
<g><path style="opacity:1" fill="#9a9d9d" d="M 32.5,4.5 C 34.9029,4.44805 37.2362,4.78138 39.5,5.5C 39.5,7.5 39.5,9.5 39.5,11.5C 39.1667,11.5 38.8333,11.5 38.5,11.5C 38.7148,9.82124 38.0481,8.82124 36.5,8.5C 36.5,7.5 36.5,6.5 36.5,5.5C 34.901,5.76781 33.5676,5.43448 32.5,4.5 Z"/></g>
<g><path style="opacity:1" fill="#939494" d="M -0.5,5.5 C 1.5,5.5 3.5,5.5 5.5,5.5C 6.28696,7.10422 7.6203,7.77089 9.5,7.5C 10.4916,7.32842 11.1583,7.66175 11.5,8.5C 9.11331,8.9121 7.11331,9.9121 5.5,11.5C 5.16667,11.5 4.83333,11.5 4.5,11.5C 3.16667,11.5 1.83333,11.5 0.5,11.5C 0.737305,10.209 0.403972,9.20895 -0.5,8.5C -0.5,7.5 -0.5,6.5 -0.5,5.5 Z"/></g>
<g><path style="opacity:1" fill="#d4dbe2" d="M 20.5,6.5 C 20.5,7.16667 20.8333,7.5 21.5,7.5C 22.5,8.16667 23.5,8.83333 24.5,9.5C 22.901,9.23219 21.5676,9.56552 20.5,10.5C 18.901,10.7678 17.5676,10.4345 16.5,9.5C 16.5,9.16667 16.5,8.83333 16.5,8.5C 16.8333,8.5 17.1667,8.5 17.5,8.5C 18.2223,7.44886 19.2223,6.78219 20.5,6.5 Z"/></g>
<g><path style="opacity:1" fill="#ccd3d6" d="M 36.5,8.5 C 38.0481,8.82124 38.7148,9.82124 38.5,11.5C 38.1667,11.5 37.8333,11.5 37.5,11.5C 36.8166,9.82351 35.4832,9.15684 33.5,9.5C 33.7148,11.1788 33.0481,12.1788 31.5,12.5C 31.5569,11.391 31.8902,10.391 32.5,9.5C 32.5,9.16667 32.5,8.83333 32.5,8.5C 33.7024,7.59464 35.0357,7.59464 36.5,8.5 Z"/></g>
<g><path style="opacity:1" fill="#cdd2d6" d="M 16.5,9.5 C 17.5676,10.4345 18.901,10.7678 20.5,10.5C 21.4916,10.3284 22.1583,10.6618 22.5,11.5C 20.5,11.5 18.5,11.5 16.5,11.5C 16.5,12.5 16.5,13.5 16.5,14.5C 15.5655,13.4324 15.2322,12.099 15.5,10.5C 12.7524,10.4017 12.0857,11.4017 13.5,13.5C 12.8333,13.5 12.1667,13.5 11.5,13.5C 11.5,12.1667 11.5,10.8333 11.5,9.5C 13.1667,9.5 14.8333,9.5 16.5,9.5 Z"/></g>
<g><path style="opacity:1" fill="#aeafb0" d="M -0.5,8.5 C 0.403972,9.20895 0.737305,10.209 0.5,11.5C 1.83333,11.5 3.16667,11.5 4.5,11.5C 3.79105,12.404 2.79105,12.7373 1.5,12.5C 0.166667,14.1667 0.166667,15.8333 1.5,17.5C 1.5,18.1667 1.5,18.8333 1.5,19.5C 0.833333,19.1667 0.166667,18.8333 -0.5,18.5C -0.5,15.1667 -0.5,11.8333 -0.5,8.5 Z"/></g>
<g><path style="opacity:1" fill="#e2e8ee" d="M 20.5,10.5 C 21.5676,9.56552 22.901,9.23219 24.5,9.5C 25.5,9.5 26.5,9.5 27.5,9.5C 27.4142,10.4959 27.7476,11.3292 28.5,12C 27.9056,12.4643 27.2389,12.631 26.5,12.5C 25.4625,13.9303 24.7959,15.597 24.5,17.5C 23.8333,17.8333 23.1667,18.1667 22.5,18.5C 22.1667,18.5 21.8333,18.5 21.5,18.5C 21.5,18.1667 21.5,17.8333 21.5,17.5C 21.9038,16.2436 22.5705,15.0769 23.5,14C 23.4301,13.2352 23.0967,12.7352 22.5,12.5C 22.5,12.1667 22.5,11.8333 22.5,11.5C 22.1583,10.6618 21.4916,10.3284 20.5,10.5 Z"/></g>
<g><path style="opacity:1" fill="#aeaeab" d="M 27.5,9.5 C 29.1667,9.5 30.8333,9.5 32.5,9.5C 31.8902,10.391 31.5569,11.391 31.5,12.5C 31.1667,12.5 30.8333,12.5 30.5,12.5C 29.596,13.209 29.2627,14.209 29.5,15.5C 28.5,15.5 27.5,15.5 26.5,15.5C 26.5,14.5 26.5,13.5 26.5,12.5C 27.2389,12.631 27.9056,12.4643 28.5,12C 27.7476,11.3292 27.4142,10.4959 27.5,9.5 Z"/></g>
<g><path style="opacity:1" fill="#b9bcbe" d="M 1.5,12.5 C 6.53544,13.8347 6.53544,15.0013 1.5,16C 3.05814,16.21 4.39147,16.71 5.5,17.5C 4.16667,17.5 2.83333,17.5 1.5,17.5C 0.166667,15.8333 0.166667,14.1667 1.5,12.5 Z"/></g>
<g><path style="opacity:1" fill="#e1e7eb" d="M 4.5,11.5 C 4.83333,11.5 5.16667,11.5 5.5,11.5C 7.15298,11.6596 8.48631,12.3263 9.5,13.5C 9.5,13.8333 9.5,14.1667 9.5,14.5C 8.54885,15.9187 8.21552,17.5853 8.5,19.5C 8.16667,19.5 7.83333,19.5 7.5,19.5C 6.83333,18.8333 6.16667,18.1667 5.5,17.5C 4.39147,16.71 3.05814,16.21 1.5,16C 6.53544,15.0013 6.53544,13.8347 1.5,12.5C 2.79105,12.7373 3.79105,12.404 4.5,11.5 Z"/></g>
<g><path style="opacity:1" fill="#b1b3b4" d="M 11.5,8.5 C 13.1667,8.5 14.8333,8.5 16.5,8.5C 16.5,8.83333 16.5,9.16667 16.5,9.5C 14.8333,9.5 13.1667,9.5 11.5,9.5C 11.5,10.8333 11.5,12.1667 11.5,13.5C 10.8333,13.5 10.1667,13.5 9.5,13.5C 8.48631,12.3263 7.15298,11.6596 5.5,11.5C 7.11331,9.9121 9.11331,8.9121 11.5,8.5 Z"/></g>
<g><path style="opacity:1" fill="#e5eaef" d="M 16.5,14.5 C 16.6716,15.4916 16.3382,16.1583 15.5,16.5C 14.8333,16.5 14.1667,16.5 13.5,16.5C 13.5,15.5 13.5,14.5 13.5,13.5C 12.0857,11.4017 12.7524,10.4017 15.5,10.5C 15.2322,12.099 15.5655,13.4324 16.5,14.5 Z"/></g>
<g><path style="opacity:1" fill="#dce3e7" d="M 37.5,11.5 C 36.8166,13.1765 35.4832,13.8432 33.5,13.5C 33.2627,14.791 33.596,15.791 34.5,16.5C 35.2625,17.2679 36.2625,17.7679 37.5,18C 35.867,18.4796 34.5336,19.3129 33.5,20.5C 32.8333,19.1667 32.1667,17.8333 31.5,16.5C 31.1667,15.1667 30.8333,13.8333 30.5,12.5C 30.8333,12.5 31.1667,12.5 31.5,12.5C 33.0481,12.1788 33.7148,11.1788 33.5,9.5C 35.4832,9.15684 36.8166,9.82351 37.5,11.5 Z"/></g>
<g><path style="opacity:1" fill="#97999b" d="M 37.5,11.5 C 37.8333,11.5 38.1667,11.5 38.5,11.5C 38.8333,11.5 39.1667,11.5 39.5,11.5C 39.5,14.8333 39.5,18.1667 39.5,21.5C 38.5,21.5 37.5,21.5 36.5,21.5C 38.4318,20.0236 38.7652,18.3569 37.5,16.5C 36.5,13.8333 35.5,13.8333 34.5,16.5C 33.596,15.791 33.2627,14.791 33.5,13.5C 35.4832,13.8432 36.8166,13.1765 37.5,11.5 Z"/></g>
<g><path style="opacity:1" fill="#d6d0c4" d="M 9.5,13.5 C 10.1667,13.5 10.8333,13.5 11.5,13.5C 12.1667,13.5 12.8333,13.5 13.5,13.5C 13.5,14.5 13.5,15.5 13.5,16.5C 11.2911,17.9758 9.95774,17.3091 9.5,14.5C 9.5,14.1667 9.5,13.8333 9.5,13.5 Z"/></g>
<g><path style="opacity:1" fill="#848588" d="M 22.5,11.5 C 22.5,11.8333 22.5,12.1667 22.5,12.5C 23.0967,12.7352 23.4301,13.2352 23.5,14C 22.5705,15.0769 21.9038,16.2436 21.5,17.5C 19.5487,16.3586 17.5487,16.3586 15.5,17.5C 15.5,17.1667 15.5,16.8333 15.5,16.5C 16.3382,16.1583 16.6716,15.4916 16.5,14.5C 16.5,13.5 16.5,12.5 16.5,11.5C 18.5,11.5 20.5,11.5 22.5,11.5 Z"/></g>
<g><path style="opacity:1" fill="#444548" d="M 22.5,12.5 C 22.2089,13.6491 21.3756,14.3158 20,14.5C 19.1667,14.1667 18.3333,13.8333 17.5,13.5C 19.0453,12.5481 20.712,12.2148 22.5,12.5 Z"/></g>
<g><path style="opacity:1" fill="#cfd3d6" d="M 26.5,12.5 C 26.5,13.5 26.5,14.5 26.5,15.5C 27.5,15.5 28.5,15.5 29.5,15.5C 29.2627,14.209 29.596,13.209 30.5,12.5C 30.8333,13.8333 31.1667,15.1667 31.5,16.5C 30.1667,17.5 28.8333,18.5 27.5,19.5C 26.2223,19.2178 25.2223,18.5511 24.5,17.5C 24.7959,15.597 25.4625,13.9303 26.5,12.5 Z"/></g>
<g><path style="opacity:1" fill="#505357" d="M 37.5,16.5 C 36.5,16.5 35.5,16.5 34.5,16.5C 35.5,13.8333 36.5,13.8333 37.5,16.5 Z"/></g>
<g><path style="opacity:1" fill="#b8b7b6" d="M 9.5,14.5 C 9.95774,17.3091 11.2911,17.9758 13.5,16.5C 14.1667,16.5 14.8333,16.5 15.5,16.5C 15.5,16.8333 15.5,17.1667 15.5,17.5C 15.5,18.5 15.5,19.5 15.5,20.5C 13.7163,19.2801 12.0496,19.2801 10.5,20.5C 9.83333,20.1667 9.16667,19.8333 8.5,19.5C 8.21552,17.5853 8.54885,15.9187 9.5,14.5 Z"/></g>
<g><path style="opacity:1" fill="#56585d" d="M 21.5,17.5 C 21.5,17.8333 21.5,18.1667 21.5,18.5C 21.5,19.8333 21.5,21.1667 21.5,22.5C 19.8333,22.5 18.1667,22.5 16.5,22.5C 16.1667,21.8333 15.8333,21.1667 15.5,20.5C 15.5,19.5 15.5,18.5 15.5,17.5C 17.5487,16.3586 19.5487,16.3586 21.5,17.5 Z"/></g>
<g><path style="opacity:1" fill="#767780" d="M 1.5,17.5 C 2.83333,17.5 4.16667,17.5 5.5,17.5C 4.81658,19.1765 3.48324,19.8432 1.5,19.5C 1.5,18.8333 1.5,18.1667 1.5,17.5 Z"/></g>
<g><path style="opacity:1" fill="#d5d6d8" d="M 5.5,17.5 C 6.16667,18.1667 6.83333,18.8333 7.5,19.5C 6.43795,21.0992 6.43795,22.7659 7.5,24.5C 7.16667,24.5 6.83333,24.5 6.5,24.5C 6.5,23.8333 6.16667,23.5 5.5,23.5C 4.29208,22.7659 2.95875,22.4326 1.5,22.5C 0.833333,22.5 0.166667,22.5 -0.5,22.5C -0.5,21.1667 -0.5,19.8333 -0.5,18.5C 0.166667,18.8333 0.833333,19.1667 1.5,19.5C 3.48324,19.8432 4.81658,19.1765 5.5,17.5 Z"/></g>
<g><path style="opacity:1" fill="#babcbd" d="M 34.5,16.5 C 35.5,16.5 36.5,16.5 37.5,16.5C 38.7652,18.3569 38.4318,20.0236 36.5,21.5C 36.1667,21.5 35.8333,21.5 35.5,21.5C 34.5084,21.6716 33.8417,21.3382 33.5,20.5C 34.5336,19.3129 35.867,18.4796 37.5,18C 36.2625,17.7679 35.2625,17.2679 34.5,16.5 Z"/></g>
<g><path style="opacity:1" fill="#5b5c5f" d="M 35.5,21.5 C 35.8333,21.5 36.1667,21.5 36.5,21.5C 37.5,21.5 38.5,21.5 39.5,21.5C 39.5,22.1667 39.5,22.8333 39.5,23.5C 37.5168,23.8432 36.1834,23.1765 35.5,21.5 Z"/></g>
<g><path style="opacity:1" fill="#a4a29e" d="M 7.5,19.5 C 7.83333,19.5 8.16667,19.5 8.5,19.5C 9.16667,19.8333 9.83333,20.1667 10.5,20.5C 10.5,21.8333 10.5,23.1667 10.5,24.5C 9.5,24.5 8.5,24.5 7.5,24.5C 6.43795,22.7659 6.43795,21.0992 7.5,19.5 Z"/></g>
<g><path style="opacity:1" fill="#e1e5e8" d="M 15.5,20.5 C 15.8333,21.1667 16.1667,21.8333 16.5,22.5C 16.5,24.5 16.5,26.5 16.5,28.5C 16.5,29.5 16.5,30.5 16.5,31.5C 15.1667,31.5 13.8333,31.5 12.5,31.5C 13.2625,30.7321 14.2625,30.2321 15.5,30C 15.2716,29.6012 14.9382,29.4346 14.5,29.5C 15.1098,28.609 15.4431,27.609 15.5,26.5C 13.8333,25.8333 12.1667,25.1667 10.5,24.5C 10.5,23.1667 10.5,21.8333 10.5,20.5C 12.0496,19.2801 13.7163,19.2801 15.5,20.5 Z"/></g>
<g><path style="opacity:1" fill="#c8cace" d="M 24.5,17.5 C 25.2223,18.5511 26.2223,19.2178 27.5,19.5C 26.6016,20.1577 25.6016,20.8243 24.5,21.5C 24.6236,22.1067 24.9569,22.44 25.5,22.5C 24.0475,23.8486 23.0475,25.5153 22.5,27.5C 22.5,28.8333 22.5,30.1667 22.5,31.5C 22.1667,31.5 21.8333,31.5 21.5,31.5C 21.5,30.5 21.5,29.5 21.5,28.5C 22.2071,25.2139 22.5405,21.8806 22.5,18.5C 23.1667,18.1667 23.8333,17.8333 24.5,17.5 Z"/></g>
<g><path style="opacity:1" fill="#a2a2a1" d="M 31.5,16.5 C 32.1667,17.8333 32.8333,19.1667 33.5,20.5C 33.8417,21.3382 34.5084,21.6716 35.5,21.5C 36.1834,23.1765 37.5168,23.8432 39.5,23.5C 39.5,23.8333 39.5,24.1667 39.5,24.5C 37.4086,24.6816 35.4086,24.3482 33.5,23.5C 32.7492,24.376 32.2492,25.376 32,26.5C 30.5315,25.0107 29.0315,23.6774 27.5,22.5C 26.8333,22.5 26.1667,22.5 25.5,22.5C 24.9569,22.44 24.6236,22.1067 24.5,21.5C 25.6016,20.8243 26.6016,20.1577 27.5,19.5C 28.8333,18.5 30.1667,17.5 31.5,16.5 Z"/></g>
<g><path style="opacity:1" fill="#acaeaf" d="M 21.5,18.5 C 21.8333,18.5 22.1667,18.5 22.5,18.5C 22.5405,21.8806 22.2071,25.2139 21.5,28.5C 21.1667,28.5 20.8333,28.5 20.5,28.5C 19.5,27.1667 18.5,27.1667 17.5,28.5C 17.1667,28.5 16.8333,28.5 16.5,28.5C 16.5,26.5 16.5,24.5 16.5,22.5C 18.1667,22.5 19.8333,22.5 21.5,22.5C 21.5,21.1667 21.5,19.8333 21.5,18.5 Z"/></g>
<g><path style="opacity:1" fill="#f0f5f7" d="M 25.5,22.5 C 26.1667,22.5 26.8333,22.5 27.5,22.5C 27.4208,23.9305 27.7542,25.2638 28.5,26.5C 31.3056,27.1676 33.9723,27.8343 36.5,28.5C 32.2325,28.203 28.0659,28.5363 24,29.5C 23.7216,28.5842 23.2216,27.9175 22.5,27.5C 23.0475,25.5153 24.0475,23.8486 25.5,22.5 Z"/></g>
<g><path style="opacity:1" fill="#a88684" d="M -0.5,22.5 C 0.166667,22.5 0.833333,22.5 1.5,22.5C 1.5,23.5 1.5,24.5 1.5,25.5C 0.833333,25.1667 0.166667,24.8333 -0.5,24.5C -0.5,23.8333 -0.5,23.1667 -0.5,22.5 Z"/></g>
<g><path style="opacity:1" fill="#d04e4a" d="M 1.5,22.5 C 2.95875,22.4326 4.29208,22.7659 5.5,23.5C 5.5,24.5 5.5,25.5 5.5,26.5C 4.16667,26.5 2.83333,26.5 1.5,26.5C 1.5,26.1667 1.5,25.8333 1.5,25.5C 1.5,24.5 1.5,23.5 1.5,22.5 Z"/></g>
<g><path style="opacity:1" fill="#ced2d4" d="M 6.5,24.5 C 6.83333,24.5 7.16667,24.5 7.5,24.5C 8.5,24.5 9.5,24.5 10.5,24.5C 12.1667,25.1667 13.8333,25.8333 15.5,26.5C 13.2646,26.2053 11.2646,26.5386 9.5,27.5C 8.39105,27.5569 7.39105,27.8902 6.5,28.5C 6.5,27.1667 6.5,25.8333 6.5,24.5 Z"/></g>
<g><path style="opacity:1" fill="#838489" d="M 15.5,26.5 C 15.4431,27.609 15.1098,28.609 14.5,29.5C 12.302,29.8799 10.6354,29.2132 9.5,27.5C 11.2646,26.5386 13.2646,26.2053 15.5,26.5 Z"/></g>
<g><path style="opacity:1" fill="#c2c1bf" d="M 27.5,22.5 C 29.0315,23.6774 30.5315,25.0107 32,26.5C 32.2492,25.376 32.7492,24.376 33.5,23.5C 35.4086,24.3482 37.4086,24.6816 39.5,24.5C 39.5,25.8333 39.5,27.1667 39.5,28.5C 38.8333,28.5 38.1667,28.5 37.5,28.5C 37.1667,28.5 36.8333,28.5 36.5,28.5C 33.9723,27.8343 31.3056,27.1676 28.5,26.5C 27.7542,25.2638 27.4208,23.9305 27.5,22.5 Z"/></g>
<g><path style="opacity:1" fill="#594a4b" d="M 1.5,26.5 C 2.83333,26.5 4.16667,26.5 5.5,26.5C 4.81658,28.1765 3.48324,28.8432 1.5,28.5C 1.5,27.8333 1.5,27.1667 1.5,26.5 Z"/></g>
<g><path style="opacity:1" fill="#fbfafa" d="M 22.5,27.5 C 23.2216,27.9175 23.7216,28.5842 24,29.5C 28.0659,28.5363 32.2325,28.203 36.5,28.5C 36.8333,28.5 37.1667,28.5 37.5,28.5C 37.6107,29.1174 37.944,29.6174 38.5,30C 35.9644,30.1862 33.631,30.6862 31.5,31.5C 30.5,31.5 29.5,31.5 28.5,31.5C 26.7411,31.0461 24.7411,31.0461 22.5,31.5C 22.5,30.1667 22.5,28.8333 22.5,27.5 Z"/></g>
<g><path style="opacity:1" fill="#9e9899" d="M 5.5,23.5 C 6.16667,23.5 6.5,23.8333 6.5,24.5C 6.5,25.8333 6.5,27.1667 6.5,28.5C 4.83333,29.8333 3.16667,29.8333 1.5,28.5C 3.48324,28.8432 4.81658,28.1765 5.5,26.5C 5.5,25.5 5.5,24.5 5.5,23.5 Z"/></g>
<g><path style="opacity:1" fill="#efedec" d="M -0.5,24.5 C 0.166667,24.8333 0.833333,25.1667 1.5,25.5C 1.5,25.8333 1.5,26.1667 1.5,26.5C 1.5,27.1667 1.5,27.8333 1.5,28.5C 3.16667,29.8333 4.83333,29.8333 6.5,28.5C 7.39105,27.8902 8.39105,27.5569 9.5,27.5C 10.6354,29.2132 12.302,29.8799 14.5,29.5C 14.9382,29.4346 15.2716,29.6012 15.5,30C 14.2625,30.2321 13.2625,30.7321 12.5,31.5C 8.16667,31.5 3.83333,31.5 -0.5,31.5C -0.5,29.1667 -0.5,26.8333 -0.5,24.5 Z"/></g>
<g><path style="opacity:1" fill="#4d4d50" d="M 20.5,28.5 C 20.5,30.8333 20.5,33.1667 20.5,35.5C 19.5,35.5 18.5,35.5 17.5,35.5C 17.5,33.1667 17.5,30.8333 17.5,28.5C 18.5,27.1667 19.5,27.1667 20.5,28.5 Z"/></g>
<g><path style="opacity:1" fill="#b4aea5" d="M -0.5,31.5 C 3.83333,31.5 8.16667,31.5 12.5,31.5C 13.8333,31.5 15.1667,31.5 16.5,31.5C 16.5,31.8333 16.5,32.1667 16.5,32.5C 13.6122,31.9898 11.2789,32.6565 9.5,34.5C 7.88629,32.9254 5.88629,32.2587 3.5,32.5C 2.20895,32.2627 1.20895,32.596 0.5,33.5C 0.166667,33.5 -0.166667,33.5 -0.5,33.5C -0.5,32.8333 -0.5,32.1667 -0.5,31.5 Z"/></g>
<g><path style="opacity:1" fill="#e6e5e2" d="M 37.5,28.5 C 38.1667,28.5 38.8333,28.5 39.5,28.5C 39.5,30.1667 39.5,31.8333 39.5,33.5C 37.5,33.5 35.5,33.5 33.5,33.5C 32.8333,32.8333 32.1667,32.1667 31.5,31.5C 33.631,30.6862 35.9644,30.1862 38.5,30C 37.944,29.6174 37.6107,29.1174 37.5,28.5 Z"/></g>
<g><path style="opacity:1" fill="#d9d9d6" d="M 28.5,31.5 C 29.5,31.5 30.5,31.5 31.5,31.5C 32.1667,32.1667 32.8333,32.8333 33.5,33.5C 32.5084,33.3284 31.8417,33.6618 31.5,34.5C 29.8333,34.5 28.1667,34.5 26.5,34.5C 25.3915,33.71 24.0581,33.21 22.5,33C 24.7078,32.8091 26.7078,32.3091 28.5,31.5 Z"/></g>
<g><path style="opacity:1" fill="#cac8c7" d="M 16.5,32.5 C 16.5,33.1667 16.5,33.8333 16.5,34.5C 14.1667,34.5 11.8333,34.5 9.5,34.5C 11.2789,32.6565 13.6122,31.9898 16.5,32.5 Z"/></g>
<g><path style="opacity:1" fill="#c5bebb" d="M 28.5,31.5 C 26.7078,32.3091 24.7078,32.8091 22.5,33C 24.0581,33.21 25.3915,33.71 26.5,34.5C 24.8333,34.5 23.1667,34.5 21.5,34.5C 21.5,33.5 21.5,32.5 21.5,31.5C 21.8333,31.5 22.1667,31.5 22.5,31.5C 24.7411,31.0461 26.7411,31.0461 28.5,31.5 Z"/></g>
<g><path style="opacity:1" fill="#434140" d="M 3.5,32.5 C 4.20895,33.404 5.20895,33.7373 6.5,33.5C 5.21596,35.6138 3.21596,36.6138 0.5,36.5C 0.5,35.5 0.5,34.5 0.5,33.5C 1.20895,32.596 2.20895,32.2627 3.5,32.5 Z"/></g>
<g><path style="opacity:1" fill="#847f7a" d="M 3.5,32.5 C 5.88629,32.2587 7.88629,32.9254 9.5,34.5C 11.8333,34.5 14.1667,34.5 16.5,34.5C 15.791,35.404 14.791,35.7373 13.5,35.5C 13.1667,35.5 12.8333,35.5 12.5,35.5C 10.1137,35.7413 8.11371,35.0746 6.5,33.5C 5.20895,33.7373 4.20895,33.404 3.5,32.5 Z"/></g>
<g><path style="opacity:1" fill="#797875" d="M 16.5,28.5 C 16.8333,28.5 17.1667,28.5 17.5,28.5C 17.5,30.8333 17.5,33.1667 17.5,35.5C 18.5,35.5 19.5,35.5 20.5,35.5C 20.5,33.1667 20.5,30.8333 20.5,28.5C 20.8333,28.5 21.1667,28.5 21.5,28.5C 21.5,29.5 21.5,30.5 21.5,31.5C 21.5,32.5 21.5,33.5 21.5,34.5C 23.1667,34.5 24.8333,34.5 26.5,34.5C 28.1667,34.5 29.8333,34.5 31.5,34.5C 31.5,34.8333 31.5,35.1667 31.5,35.5C 26.6077,35.2259 21.941,35.8926 17.5,37.5C 16.1667,36.8333 14.8333,36.1667 13.5,35.5C 14.791,35.7373 15.791,35.404 16.5,34.5C 16.5,33.8333 16.5,33.1667 16.5,32.5C 16.5,32.1667 16.5,31.8333 16.5,31.5C 16.5,30.5 16.5,29.5 16.5,28.5 Z"/></g>
<g><path style="opacity:1" fill="#676664" d="M 12.5,35.5 C 12.8333,35.5 13.1667,35.5 13.5,35.5C 14.8333,36.1667 16.1667,36.8333 17.5,37.5C 13.03,38.4861 8.36329,38.8195 3.5,38.5C 6.46508,37.3745 9.46508,36.3745 12.5,35.5 Z"/></g>
<g><path style="opacity:1" fill="#6e6c69" d="M 33.5,33.5 C 35.5,33.5 37.5,33.5 39.5,33.5C 39.5,35.1667 39.5,36.8333 39.5,38.5C 36.8333,38.5 34.1667,38.5 31.5,38.5C 31.5,37.5 31.5,36.5 31.5,35.5C 31.5,35.1667 31.5,34.8333 31.5,34.5C 31.8417,33.6618 32.5084,33.3284 33.5,33.5 Z"/></g>
<g><path style="opacity:1" fill="#6c6a67" d="M -0.5,33.5 C -0.166667,33.5 0.166667,33.5 0.5,33.5C 0.5,34.5 0.5,35.5 0.5,36.5C 3.21596,36.6138 5.21596,35.6138 6.5,33.5C 8.11371,35.0746 10.1137,35.7413 12.5,35.5C 9.46508,36.3745 6.46508,37.3745 3.5,38.5C 2.16667,38.5 0.833333,38.5 -0.5,38.5C -0.5,36.8333 -0.5,35.1667 -0.5,33.5 Z"/></g>
<g><path style="opacity:1" fill="#656462" d="M 31.5,35.5 C 31.5,36.5 31.5,37.5 31.5,38.5C 34.1667,38.5 36.8333,38.5 39.5,38.5C 39.5,38.8333 39.5,39.1667 39.5,39.5C 26.1667,39.5 12.8333,39.5 -0.5,39.5C -0.5,39.1667 -0.5,38.8333 -0.5,38.5C 0.833333,38.5 2.16667,38.5 3.5,38.5C 8.36329,38.8195 13.03,38.4861 17.5,37.5C 21.941,35.8926 26.6077,35.2259 31.5,35.5 Z"/></g>
</svg>
