<?xml version="1.0" encoding="UTF-8"?>
<!DOCTYPE svg PUBLIC "-//W3C//DTD SVG 1.1//EN" "http://www.w3.org/Graphics/SVG/1.1/DTD/svg11.dtd">
<svg xmlns="http://www.w3.org/2000/svg" version="1.1" width="108px" height="87px" style="shape-rendering:geometricPrecision; text-rendering:geometricPrecision; image-rendering:optimizeQuality; fill-rule:evenodd; clip-rule:evenodd" xmlns:xlink="http://www.w3.org/1999/xlink">
<g><path style="opacity:1" fill="#acadad" d="M 54.5,2.5 C 69.2004,2.17236 83.8671,2.67236 98.5,4C 99.8228,4.81595 100.489,5.98261 100.5,7.5C 100.167,7.5 99.8333,7.5 99.5,7.5C 98.7387,6.60908 97.7387,5.94242 96.5,5.5C 95.537,5.96983 95.537,6.6365 96.5,7.5C 94.0882,7.69408 93.0882,9.02741 93.5,11.5C 92.71,10.3915 92.21,9.05814 92,7.5C 91.5045,9.4727 91.3379,11.4727 91.5,13.5C 90.8333,10.8333 90.1667,8.16667 89.5,5.5C 84.3595,4.51192 79.0262,4.17859 73.5,4.5C 72.1667,4.5 70.8333,4.5 69.5,4.5C 64.5,3.83333 59.5,3.16667 54.5,2.5 Z"/></g>
<g><path style="opacity:1" fill="#e4e5e5" d="M 17.5,3.5 C 15.1667,4.16667 12.8333,4.83333 10.5,5.5C 9.16667,6.16667 8.16667,7.16667 7.5,8.5C 7.16667,8.5 6.83333,8.5 6.5,8.5C 6.85883,6.62901 7.85883,5.12901 9.5,4C 12.146,3.50258 14.8127,3.33591 17.5,3.5 Z"/></g>
<g><path style="opacity:1" fill="#a7a8aa" d="M 54.5,2.5 C 59.5,3.16667 64.5,3.83333 69.5,4.5C 65.1667,4.5 60.8333,4.5 56.5,4.5C 44.5,4.5 32.5,4.5 20.5,4.5C 18.9731,4.42702 17.9731,5.09368 17.5,6.5C 17.1667,6.5 16.8333,6.5 16.5,6.5C 14.7354,5.53862 12.7354,5.20528 10.5,5.5C 12.8333,4.83333 15.1667,4.16667 17.5,3.5C 29.6554,2.50478 41.9887,2.17145 54.5,2.5 Z"/></g>
<g><path style="opacity:1" fill="#babdc2" d="M 20.5,4.5 C 32.5,4.5 44.5,4.5 56.5,4.5C 54.7078,5.30912 52.7078,5.80912 50.5,6C 51.9552,8.01616 53.9552,8.84949 56.5,8.5C 56.5,8.83333 56.5,9.16667 56.5,9.5C 54.9582,10.3007 53.2915,10.634 51.5,10.5C 51.2267,12.451 51.8934,13.951 53.5,15C 52.4734,15.5133 51.4734,16.0133 50.5,16.5C 50.5,13.5 50.5,10.5 50.5,7.5C 46.8333,7.5 43.1667,7.5 39.5,7.5C 39.5,9.16667 39.5,10.8333 39.5,12.5C 39.1667,12.5 38.8333,12.5 38.5,12.5C 37.3332,14.0414 35.9999,15.3748 34.5,16.5C 34.5,13.8333 34.5,11.1667 34.5,8.5C 38.9428,6.94846 43.6095,6.11512 48.5,6C 38.991,5.82989 29.6577,5.32989 20.5,4.5 Z"/></g>
<g><path style="opacity:1" fill="#e2e5e9" d="M 73.5,4.5 C 79.0262,4.17859 84.3595,4.51192 89.5,5.5C 89.1788,7.04814 88.1788,7.71481 86.5,7.5C 84.3587,6.8367 82.0254,6.50337 79.5,6.5C 76.7305,6.52856 74.3972,7.19522 72.5,8.5C 71.209,8.73731 70.209,8.40397 69.5,7.5C 69.0825,6.77842 68.4158,6.27842 67.5,6C 69.7078,5.80912 71.7078,5.30912 73.5,4.5 Z"/></g>
<g><path style="opacity:1" fill="#d7dadf" d="M 20.5,4.5 C 29.6577,5.32989 38.991,5.82989 48.5,6C 43.6095,6.11512 38.9428,6.94846 34.5,8.5C 30.8333,7.16667 27.1667,7.16667 23.5,8.5C 23.1667,8.5 22.8333,8.5 22.5,8.5C 20.2188,8.92271 18.5521,8.25605 17.5,6.5C 17.9731,5.09368 18.9731,4.42702 20.5,4.5 Z"/></g>
<g><path style="opacity:1" fill="#d9dce1" d="M 56.5,4.5 C 60.8333,4.5 65.1667,4.5 69.5,4.5C 70.8333,4.5 72.1667,4.5 73.5,4.5C 71.7078,5.30912 69.7078,5.80912 67.5,6C 68.4158,6.27842 69.0825,6.77842 69.5,7.5C 64.9677,7.18178 60.6344,7.51511 56.5,8.5C 53.9552,8.84949 51.9552,8.01616 50.5,6C 52.7078,5.80912 54.7078,5.30912 56.5,4.5 Z"/></g>
<g><path style="opacity:1" fill="#757675" d="M 10.5,5.5 C 12.7354,5.20528 14.7354,5.53862 16.5,6.5C 14.5,7.16667 12.5,7.83333 10.5,8.5C 10.5,9.5 10.5,10.5 10.5,11.5C 11.5676,12.4345 12.901,12.7678 14.5,12.5C 14.7947,14.7354 14.4614,16.7354 13.5,18.5C 12.209,18.2627 11.209,18.596 10.5,19.5C 9.5,22.1667 8.5,24.8333 7.5,27.5C 7.5,21.1667 7.5,14.8333 7.5,8.5C 8.16667,7.16667 9.16667,6.16667 10.5,5.5 Z"/></g>
<g><path style="opacity:1" fill="#2b2c2d" d="M 56.5,8.5 C 60.0183,9.10492 63.685,9.10492 67.5,8.5C 67.5,11.1667 67.5,13.8333 67.5,16.5C 63.8333,16.5 60.1667,16.5 56.5,16.5C 56.5,14.1667 56.5,11.8333 56.5,9.5C 56.5,9.16667 56.5,8.83333 56.5,8.5 Z"/></g>
<g><path style="opacity:1" fill="#c5c8ce" d="M 86.5,7.5 C 86.9175,8.22158 87.5842,8.72158 88.5,9C 86.1088,9.69137 86.1088,10.6914 88.5,12C 87.552,12.4828 86.552,12.6495 85.5,12.5C 85.5,10.8333 85.5,9.16667 85.5,7.5C 81.2984,7.18325 77.2984,7.51658 73.5,8.5C 73.1936,11.3854 73.5269,14.0521 74.5,16.5C 75.2625,17.2679 76.2625,17.7679 77.5,18C 77.2716,18.3988 76.9382,18.5654 76.5,18.5C 75.5416,18.9528 74.7083,19.6195 74,20.5C 73.5831,19.244 72.7498,18.5774 71.5,18.5C 72.686,16.8058 72.5193,15.1392 71,13.5C 70.5831,14.756 69.7498,15.4226 68.5,15.5C 68.5,13.8333 68.5,12.1667 68.5,10.5C 70.4832,10.8432 71.8166,10.1765 72.5,8.5C 74.3972,7.19522 76.7305,6.52856 79.5,6.5C 82.0254,6.50337 84.3587,6.8367 86.5,7.5 Z"/></g>
<g><path style="opacity:1" fill="#b3b5b7" d="M 16.5,6.5 C 16.8333,6.5 17.1667,6.5 17.5,6.5C 18.5521,8.25605 20.2188,8.92271 22.5,8.5C 22.5,11.8333 22.5,15.1667 22.5,18.5C 20.6891,18.572 19.3557,19.4053 18.5,21C 18.9296,21.9654 19.5963,22.4654 20.5,22.5C 20.5,23.1667 20.5,23.8333 20.5,24.5C 19.609,23.8902 18.609,23.5569 17.5,23.5C 17.6646,20.4816 17.498,17.4816 17,14.5C 16.6667,17.1667 16.3333,19.8333 16,22.5C 15.6174,21.944 15.1174,21.6107 14.5,21.5C 14.4431,20.391 14.1098,19.391 13.5,18.5C 14.4614,16.7354 14.7947,14.7354 14.5,12.5C 12.901,12.7678 11.5676,12.4345 10.5,11.5C 15.8333,10.5 15.8333,9.5 10.5,8.5C 12.5,7.83333 14.5,7.16667 16.5,6.5 Z"/></g>
<g><path style="opacity:1" fill="#2c2e2f" d="M 23.5,8.5 C 26.8333,8.5 30.1667,8.5 33.5,8.5C 33.6399,10.1238 32.9733,11.2904 31.5,12C 34.1667,13 34.1667,14 31.5,15C 32.4158,15.2784 33.0825,15.7784 33.5,16.5C 30.8333,16.5 28.1667,16.5 25.5,16.5C 25.7148,18.1788 25.0481,19.1788 23.5,19.5C 23.7923,15.7922 23.7923,12.1256 23.5,8.5 Z"/></g>
<g><path style="opacity:1" fill="#757679" d="M 23.5,8.5 C 27.1667,7.16667 30.8333,7.16667 34.5,8.5C 34.5,11.1667 34.5,13.8333 34.5,16.5C 34.1667,16.5 33.8333,16.5 33.5,16.5C 33.0825,15.7784 32.4158,15.2784 31.5,15C 34.1667,14 34.1667,13 31.5,12C 32.9733,11.2904 33.6399,10.1238 33.5,8.5C 30.1667,8.5 26.8333,8.5 23.5,8.5 Z"/></g>
<g><path style="opacity:1" fill="#333435" d="M 50.5,16.5 C 46.8333,16.5 43.1667,16.5 39.5,16.5C 39.5,15.1667 39.5,13.8333 39.5,12.5C 39.5,10.8333 39.5,9.16667 39.5,7.5C 43.1667,7.5 46.8333,7.5 50.5,7.5C 50.5,10.5 50.5,13.5 50.5,16.5 Z"/></g>
<g><path style="opacity:1" fill="#2d2f30" d="M 73.5,8.5 C 76.8499,8.33499 80.1832,8.50166 83.5,9C 84.435,11.3806 84.7683,13.8806 84.5,16.5C 81.1667,16.5 77.8333,16.5 74.5,16.5C 73.5269,14.0521 73.1936,11.3854 73.5,8.5 Z"/></g>
<g><path style="opacity:1" fill="#7a7a7a" d="M 99.5,7.5 C 98.9772,17.5933 98.6439,27.5933 98.5,37.5C 95.8082,37.1752 93.4748,36.8418 91.5,36.5C 92.2216,36.0825 92.7216,35.4158 93,34.5C 94.073,35.2797 95.2396,35.113 96.5,34C 97.2524,33.3292 97.5858,32.4959 97.5,31.5C 97.1627,28.6643 95.8293,27.9976 93.5,29.5C 92.8097,30.8802 92.4764,32.2135 92.5,33.5C 91.513,30.2317 91.1796,26.8984 91.5,23.5C 94.0821,23.9746 96.0821,23.3079 97.5,21.5C 97.3059,19.0882 95.9726,18.0882 93.5,18.5C 92.71,19.6085 92.21,20.9419 92,22.5C 91.2782,19.7395 91.4448,17.0728 92.5,14.5C 92.5,13.8333 92.1667,13.5 91.5,13.5C 91.3379,11.4727 91.5045,9.4727 92,7.5C 92.21,9.05814 92.71,10.3915 93.5,11.5C 96.9536,11.7332 97.9536,10.3999 96.5,7.5C 95.537,6.6365 95.537,5.96983 96.5,5.5C 97.7387,5.94242 98.7387,6.60908 99.5,7.5 Z M 96.5,7.5 C 97.9536,10.3999 96.9536,11.7332 93.5,11.5C 93.0882,9.02741 94.0882,7.69408 96.5,7.5 Z M 93.5,18.5 C 95.9726,18.0882 97.3059,19.0882 97.5,21.5C 94.6001,22.9536 93.2668,21.9536 93.5,18.5 Z M 97.5,31.5 C 95.1707,33.0024 93.8373,32.3357 93.5,29.5C 95.8293,27.9976 97.1627,28.6643 97.5,31.5 Z"/></g>
<g><path style="opacity:1" fill="#646669" d="M 22.5,8.5 C 22.8333,8.5 23.1667,8.5 23.5,8.5C 23.7923,12.1256 23.7923,15.7922 23.5,19.5C 23.1667,19.5 22.8333,19.5 22.5,19.5C 22.5,19.1667 22.5,18.8333 22.5,18.5C 22.5,15.1667 22.5,11.8333 22.5,8.5 Z"/></g>
<g><path style="opacity:1" fill="#898a8c" d="M 56.5,8.5 C 60.6344,7.51511 64.9677,7.18178 69.5,7.5C 70.209,8.40397 71.209,8.73731 72.5,8.5C 71.8166,10.1765 70.4832,10.8432 68.5,10.5C 68.5,12.1667 68.5,13.8333 68.5,15.5C 68.5,16.1667 68.1667,16.5 67.5,16.5C 67.5,13.8333 67.5,11.1667 67.5,8.5C 63.685,9.10492 60.0183,9.10492 56.5,8.5 Z"/></g>
<g><path style="opacity:1" fill="#8b8c8d" d="M 73.5,8.5 C 77.2984,7.51658 81.2984,7.18325 85.5,7.5C 85.5,9.16667 85.5,10.8333 85.5,12.5C 87.0781,14.3747 86.7448,15.7081 84.5,16.5C 84.7683,13.8806 84.435,11.3806 83.5,9C 80.1832,8.50166 76.8499,8.33499 73.5,8.5 Z"/></g>
<g><path style="opacity:1" fill="#cdd1d7" d="M 56.5,9.5 C 56.5,11.8333 56.5,14.1667 56.5,16.5C 60.1667,16.5 63.8333,16.5 67.5,16.5C 66.791,17.404 65.791,17.7373 64.5,17.5C 63.9675,22.797 63.1342,22.797 62,17.5C 61.51,18.7932 61.3433,20.1266 61.5,21.5C 60.209,21.2627 59.209,21.596 58.5,22.5C 56.0775,20.3498 53.4109,20.0165 50.5,21.5C 48.8333,21.5 47.1667,21.5 45.5,21.5C 46.6085,20.71 47.9419,20.21 49.5,20C 50.3366,18.9887 50.67,17.8221 50.5,16.5C 51.4734,16.0133 52.4734,15.5133 53.5,15C 51.8934,13.951 51.2267,12.451 51.5,10.5C 53.2915,10.634 54.9582,10.3007 56.5,9.5 Z"/></g>
<g><path style="opacity:1" fill="#a8abb1" d="M 74.5,16.5 C 77.8333,16.5 81.1667,16.5 84.5,16.5C 83.0998,17.1001 82.0998,18.1001 81.5,19.5C 79.955,20.2297 79.1216,21.563 79,23.5C 78.1887,22.0403 77.3554,21.707 76.5,22.5C 78.297,23.6951 79.297,25.3618 79.5,27.5C 77.901,27.7678 76.5676,27.4345 75.5,26.5C 76.2389,26.631 76.9056,26.4643 77.5,26C 75.968,25.3005 74.968,24.1338 74.5,22.5C 75.6302,21.3777 76.2969,20.0443 76.5,18.5C 76.9382,18.5654 77.2716,18.3988 77.5,18C 76.2625,17.7679 75.2625,17.2679 74.5,16.5 Z"/></g>
<g><path style="opacity:1" fill="#c4c7cc" d="M 38.5,12.5 C 38.8333,12.5 39.1667,12.5 39.5,12.5C 39.5,13.8333 39.5,15.1667 39.5,16.5C 43.1667,16.5 46.8333,16.5 50.5,16.5C 50.67,17.8221 50.3366,18.9887 49.5,20C 47.9419,20.21 46.6085,20.71 45.5,21.5C 43.1278,19.8522 41.7944,20.5189 41.5,23.5C 40.5,23.1667 39.8333,22.5 39.5,21.5C 39.9382,21.5654 40.2716,21.3988 40.5,21C 39.0085,18.3788 38.3418,15.5455 38.5,12.5 Z"/></g>
<g><path style="opacity:1" fill="#d0d3d9" d="M 38.5,12.5 C 38.3418,15.5455 39.0085,18.3788 40.5,21C 40.2716,21.3988 39.9382,21.5654 39.5,21.5C 37.7085,21.366 36.0418,21.6993 34.5,22.5C 34.3893,21.8826 34.056,21.3826 33.5,21C 30.2875,20.2974 27.1208,20.4641 24,21.5C 22.9701,21.1639 22.4701,20.4972 22.5,19.5C 22.8333,19.5 23.1667,19.5 23.5,19.5C 25.0481,19.1788 25.7148,18.1788 25.5,16.5C 28.1667,16.5 30.8333,16.5 33.5,16.5C 33.8333,16.5 34.1667,16.5 34.5,16.5C 35.9999,15.3748 37.3332,14.0414 38.5,12.5 Z"/></g>
<g><path style="opacity:1" fill="#dbdee4" d="M 89.5,5.5 C 90.1667,8.16667 90.8333,10.8333 91.5,13.5C 92.1667,13.5 92.5,13.8333 92.5,14.5C 91.5,14.5 90.5,14.5 89.5,14.5C 89.5,17.5 89.5,20.5 89.5,23.5C 87.1971,19.9881 84.8638,20.3214 82.5,24.5C 83.9492,25.1719 85.2825,25.8386 86.5,26.5C 84.8333,26.5 83.1667,26.5 81.5,26.5C 81.5,24.1667 81.5,21.8333 81.5,19.5C 82.0998,18.1001 83.0998,17.1001 84.5,16.5C 86.7448,15.7081 87.0781,14.3747 85.5,12.5C 86.552,12.6495 87.552,12.4828 88.5,12C 86.1088,10.6914 86.1088,9.69137 88.5,9C 87.5842,8.72158 86.9175,8.22158 86.5,7.5C 88.1788,7.71481 89.1788,7.04814 89.5,5.5 Z"/></g>
<g><path style="opacity:1" fill="#e3e5e6" d="M 45.5,21.5 C 47.1667,21.5 48.8333,21.5 50.5,21.5C 49.9935,22.8589 48.9935,23.8589 47.5,24.5C 47.9424,25.7387 48.6091,26.7387 49.5,27.5C 49.5,27.8333 49.5,28.1667 49.5,28.5C 47.6565,30.2789 46.9898,32.6122 47.5,35.5C 46.2617,35.81 46.2617,36.31 47.5,37C 46.9056,37.4643 46.2389,37.631 45.5,37.5C 43.0971,37.448 40.7638,37.7814 38.5,38.5C 37.5,38.5 36.5,38.5 35.5,38.5C 35.8282,37.2656 35.1616,36.099 33.5,35C 33.6667,34.5 33.8333,34 34,33.5C 34.2784,34.4158 34.7784,35.0825 35.5,35.5C 38.4552,36.1587 41.4552,36.4921 44.5,36.5C 44.5,33.8333 44.5,31.1667 44.5,28.5C 42.8007,28.5271 41.4674,29.1938 40.5,30.5C 39.1667,29.5 39.1667,28.5 40.5,27.5C 41.4345,26.4324 41.7678,25.099 41.5,23.5C 41.7944,20.5189 43.1278,19.8522 45.5,21.5 Z"/></g>
<g><path style="opacity:1" fill="#e8ebf0" d="M 58.5,22.5 C 59.552,22.3505 60.552,22.5172 61.5,23C 62.6087,24.8761 63.6087,26.7095 64.5,28.5C 64.5,29.8333 63.8333,30.5 62.5,30.5C 61.9779,32.2191 60.9779,33.5525 59.5,34.5C 59.5,32.5 59.5,30.5 59.5,28.5C 58.5,28.5 57.5,28.5 56.5,28.5C 56.5,28.1667 56.5,27.8333 56.5,27.5C 57.675,27.719 58.675,27.3857 59.5,26.5C 57.8333,26.1667 56.1667,25.8333 54.5,25.5C 52.3603,25.5561 50.6936,26.2227 49.5,27.5C 48.6091,26.7387 47.9424,25.7387 47.5,24.5C 48.9935,23.8589 49.9935,22.8589 50.5,21.5C 53.4109,20.0165 56.0775,20.3498 58.5,22.5 Z"/></g>
<g><path style="opacity:1" fill="#dde0e5" d="M 71.5,18.5 C 71.5,19.5 71.5,20.5 71.5,21.5C 69.5082,21.6715 67.8415,21.0049 66.5,19.5C 65.7084,20.6998 65.7084,22.0331 66.5,23.5C 65.1991,24.8845 65.1991,26.3845 66.5,28C 65.9056,28.4643 65.2389,28.631 64.5,28.5C 63.6087,26.7095 62.6087,24.8761 61.5,23C 60.552,22.5172 59.552,22.3505 58.5,22.5C 59.209,21.596 60.209,21.2627 61.5,21.5C 61.3433,20.1266 61.51,18.7932 62,17.5C 63.1342,22.797 63.9675,22.797 64.5,17.5C 65.791,17.7373 66.791,17.404 67.5,16.5C 68.1667,16.5 68.5,16.1667 68.5,15.5C 69.7498,15.4226 70.5831,14.756 71,13.5C 72.5193,15.1392 72.686,16.8058 71.5,18.5 Z"/></g>
<g><path style="opacity:1" fill="#737577" d="M 71.5,18.5 C 72.7498,18.5774 73.5831,19.244 74,20.5C 74.7083,19.6195 75.5416,18.9528 76.5,18.5C 76.2969,20.0443 75.6302,21.3777 74.5,22.5C 74.968,24.1338 75.968,25.3005 77.5,26C 76.9056,26.4643 76.2389,26.631 75.5,26.5C 74.6851,25.5707 73.8518,24.5707 73,23.5C 72.6012,23.7284 72.4346,24.0618 72.5,24.5C 71.3052,24.3225 70.1385,23.9891 69,23.5C 68.0546,23.9054 67.3879,24.572 67,25.5C 66.5357,24.9056 66.369,24.2389 66.5,23.5C 65.7084,22.0331 65.7084,20.6998 66.5,19.5C 67.8415,21.0049 69.5082,21.6715 71.5,21.5C 71.5,20.5 71.5,19.5 71.5,18.5 Z"/></g>
<g><path style="opacity:1" fill="#acadae" d="M 92.5,14.5 C 91.4448,17.0728 91.2782,19.7395 92,22.5C 92.21,20.9419 92.71,19.6085 93.5,18.5C 93.2668,21.9536 94.6001,22.9536 97.5,21.5C 96.0821,23.3079 94.0821,23.9746 91.5,23.5C 91.1796,26.8984 91.513,30.2317 92.5,33.5C 92.4764,32.2135 92.8097,30.8802 93.5,29.5C 93.8373,32.3357 95.1707,33.0024 97.5,31.5C 97.5858,32.4959 97.2524,33.3292 96.5,34C 95.2396,35.113 94.073,35.2797 93,34.5C 92.7216,35.4158 92.2216,36.0825 91.5,36.5C 91.5,36.1667 91.5,35.8333 91.5,35.5C 89.6823,31.8274 89.0157,27.8274 89.5,23.5C 89.5,20.5 89.5,17.5 89.5,14.5C 90.5,14.5 91.5,14.5 92.5,14.5 Z"/></g>
<g><path style="opacity:1" fill="#787a7f" d="M 20.5,22.5 C 32.5,23.1667 32.5,23.8333 20.5,24.5C 20.5,23.8333 20.5,23.1667 20.5,22.5 Z"/></g>
<g><path style="opacity:1" fill="#838487" d="M 39.5,21.5 C 39.8333,22.5 40.5,23.1667 41.5,23.5C 41.7678,25.099 41.4345,26.4324 40.5,27.5C 39.1497,26.5169 38.1497,25.1836 37.5,23.5C 36.7189,24.7287 36.2189,26.062 36,27.5C 35.0922,25.5614 33.5922,24.5614 31.5,24.5C 31.8212,22.9519 32.8212,22.2852 34.5,22.5C 36.0418,21.6993 37.7085,21.366 39.5,21.5 Z"/></g>
<g><path style="opacity:1" fill="#808081" d="M 17.5,23.5 C 17.5,24.1667 17.5,24.8333 17.5,25.5C 17.6641,28.1873 17.4974,30.854 17,33.5C 16.6667,30.5 16.3333,27.5 16,24.5C 15.6667,26.1667 15.3333,27.8333 15,29.5C 14.3292,28.7476 13.4959,28.4142 12.5,28.5C 10.8958,29.287 10.2291,30.6203 10.5,32.5C 9.71003,31.3915 9.21003,30.0581 9,28.5C 8.25711,30.4406 8.42378,32.2739 9.5,34C 8.90558,34.4643 8.23891,34.631 7.5,34.5C 7.5,32.1667 7.5,29.8333 7.5,27.5C 8.5,24.8333 9.5,22.1667 10.5,19.5C 10.8373,22.3357 12.1707,23.0024 14.5,21.5C 15.1174,21.6107 15.6174,21.944 16,22.5C 16.3333,19.8333 16.6667,17.1667 17,14.5C 17.498,17.4816 17.6646,20.4816 17.5,23.5 Z M 12.5,28.5 C 14.1376,29.7046 14.4709,31.0379 13.5,32.5C 12.5,32.5 11.5,32.5 10.5,32.5C 10.2291,30.6203 10.8958,29.287 12.5,28.5 Z"/></g>
<g><path style="opacity:1" fill="#e5e8ed" d="M 22.5,18.5 C 22.5,18.8333 22.5,19.1667 22.5,19.5C 22.4701,20.4972 22.9701,21.1639 24,21.5C 27.1208,20.4641 30.2875,20.2974 33.5,21C 34.056,21.3826 34.3893,21.8826 34.5,22.5C 32.8212,22.2852 31.8212,22.9519 31.5,24.5C 33.8337,26.1757 34.8337,28.509 34.5,31.5C 32.4727,31.6621 30.4727,31.4955 28.5,31C 27.1667,30.3333 27.1667,29.6667 28.5,29C 25.8333,28.3333 25.8333,27.6667 28.5,27C 26.5273,26.5045 24.5273,26.3379 22.5,26.5C 20.3187,28.7641 18.9854,31.4308 18.5,34.5C 18.81,31.2869 18.4767,28.2869 17.5,25.5C 17.5,24.8333 17.5,24.1667 17.5,23.5C 18.609,23.5569 19.609,23.8902 20.5,24.5C 32.5,23.8333 32.5,23.1667 20.5,22.5C 19.5963,22.4654 18.9296,21.9654 18.5,21C 19.3557,19.4053 20.6891,18.572 22.5,18.5 Z"/></g>
<g><path style="opacity:1" fill="#5a5c5e" d="M 81.5,19.5 C 81.5,21.8333 81.5,24.1667 81.5,26.5C 81.5,26.8333 81.5,27.1667 81.5,27.5C 80.8333,27.5 80.1667,27.5 79.5,27.5C 79.297,25.3618 78.297,23.6951 76.5,22.5C 77.3554,21.707 78.1887,22.0403 79,23.5C 79.1216,21.563 79.955,20.2297 81.5,19.5 Z"/></g>
<g><path style="opacity:1" fill="#e8ebf0" d="M 89.5,23.5 C 89.0157,27.8274 89.6823,31.8274 91.5,35.5C 89.7085,35.634 88.0418,35.3007 86.5,34.5C 86.4802,32.857 87.1468,31.5237 88.5,30.5C 87.1468,29.4763 86.4802,28.143 86.5,26.5C 85.2825,25.8386 83.9492,25.1719 82.5,24.5C 84.8638,20.3214 87.1971,19.9881 89.5,23.5 Z"/></g>
<g><path style="opacity:1" fill="#adaeb0" d="M 56.5,27.5 C 54.2743,26.2437 51.941,26.2437 49.5,27.5C 50.6936,26.2227 52.3603,25.5561 54.5,25.5C 56.1667,25.8333 57.8333,26.1667 59.5,26.5C 58.675,27.3857 57.675,27.719 56.5,27.5 Z"/></g>
<g><path style="opacity:1" fill="#6f7071" d="M 56.5,27.5 C 56.5,27.8333 56.5,28.1667 56.5,28.5C 54.1667,28.5 51.8333,28.5 49.5,28.5C 49.5,28.1667 49.5,27.8333 49.5,27.5C 51.941,26.2437 54.2743,26.2437 56.5,27.5 Z"/></g>
<g><path style="opacity:1" fill="#37383a" d="M 49.5,28.5 C 51.8333,28.5 54.1667,28.5 56.5,28.5C 56.5,30.8333 56.5,33.1667 56.5,35.5C 54.1667,35.5 51.8333,35.5 49.5,35.5C 49.5,33.1667 49.5,30.8333 49.5,28.5 Z"/></g>
<g><path style="opacity:1" fill="#a0a2a6" d="M 66.5,23.5 C 66.369,24.2389 66.5357,24.9056 67,25.5C 67.3879,24.572 68.0546,23.9054 69,23.5C 70.1385,23.9891 71.3052,24.3225 72.5,24.5C 71.3703,26.7954 70.037,28.9621 68.5,31C 69.0735,32.6067 69.7402,34.1067 70.5,35.5C 70.1667,35.5 69.8333,35.5 69.5,35.5C 67.2627,34.551 64.9294,33.8844 62.5,33.5C 62.5,32.5 62.5,31.5 62.5,30.5C 63.8333,30.5 64.5,29.8333 64.5,28.5C 65.2389,28.631 65.9056,28.4643 66.5,28C 65.1991,26.3845 65.1991,24.8845 66.5,23.5 Z"/></g>
<g><path style="opacity:1" fill="#7e7f82" d="M 56.5,28.5 C 57.5,28.5 58.5,28.5 59.5,28.5C 59.5,30.5 59.5,32.5 59.5,34.5C 58.791,35.404 57.791,35.7373 56.5,35.5C 56.5,33.1667 56.5,30.8333 56.5,28.5 Z"/></g>
<g><path style="opacity:1" fill="#56585b" d="M 24.5,34.5 C 22.6921,33.0821 22.0254,31.0821 22.5,28.5C 23.1499,28.1961 23.8165,27.8627 24.5,27.5C 25.7969,29.9732 25.7969,32.3066 24.5,34.5 Z"/></g>
<g><path style="opacity:1" fill="#ced0d3" d="M 40.5,27.5 C 39.1667,28.5 39.1667,29.5 40.5,30.5C 39.5,30.5 38.5,30.5 37.5,30.5C 37.1692,32.3224 36.5025,33.9891 35.5,35.5C 34.7784,35.0825 34.2784,34.4158 34,33.5C 33.8333,34 33.6667,34.5 33.5,35C 35.1616,36.099 35.8282,37.2656 35.5,38.5C 34.7659,39.7079 34.4326,41.0413 34.5,42.5C 32.3074,41.1047 29.9741,40.1047 27.5,39.5C 29.4147,39.7845 31.0813,39.4511 32.5,38.5C 32.5,36.8333 32.5,35.1667 32.5,33.5C 29.9179,33.0254 27.9179,33.6921 26.5,35.5C 25.7671,37.2944 24.7671,38.9611 23.5,40.5C 23.1667,40.5 22.8333,40.5 22.5,40.5C 19.4118,44.4151 18.7452,43.7485 20.5,38.5C 21.8333,38.5 23.1667,38.5 24.5,38.5C 24.5,37.1667 24.5,35.8333 24.5,34.5C 25.7969,32.3066 25.7969,29.9732 24.5,27.5C 23.8165,27.8627 23.1499,28.1961 22.5,28.5C 22.5,27.8333 22.5,27.1667 22.5,26.5C 24.5273,26.3379 26.5273,26.5045 28.5,27C 25.8333,27.6667 25.8333,28.3333 28.5,29C 27.1667,29.6667 27.1667,30.3333 28.5,31C 30.4727,31.4955 32.4727,31.6621 34.5,31.5C 34.8337,28.509 33.8337,26.1757 31.5,24.5C 33.5922,24.5614 35.0922,25.5614 36,27.5C 36.2189,26.062 36.7189,24.7287 37.5,23.5C 38.1497,25.1836 39.1497,26.5169 40.5,27.5 Z"/></g>
<g><path style="opacity:1" fill="#7f8081" d="M 49.5,28.5 C 49.5,30.8333 49.5,33.1667 49.5,35.5C 48.8333,35.5 48.1667,35.5 47.5,35.5C 46.9898,32.6122 47.6565,30.2789 49.5,28.5 Z"/></g>
<g><path style="opacity:1" fill="#dee1e6" d="M 75.5,26.5 C 76.5676,27.4345 77.901,27.7678 79.5,27.5C 80.1667,27.5 80.8333,27.5 81.5,27.5C 81.5,27.8333 81.5,28.1667 81.5,28.5C 80.1497,29.4831 79.1497,30.8164 78.5,32.5C 75.4908,31.0581 73.8241,32.0581 73.5,35.5C 72.5,35.5 71.5,35.5 70.5,35.5C 69.7402,34.1067 69.0735,32.6067 68.5,31C 70.037,28.9621 71.3703,26.7954 72.5,24.5C 72.4346,24.0618 72.6012,23.7284 73,23.5C 73.8518,24.5707 74.6851,25.5707 75.5,26.5 Z"/></g>
<g><path style="opacity:1" fill="#a2a3a5" d="M 35.5,35.5 C 36.5025,33.9891 37.1692,32.3224 37.5,30.5C 38.5,30.5 39.5,30.5 40.5,30.5C 41.4674,29.1938 42.8007,28.5271 44.5,28.5C 44.5,31.1667 44.5,33.8333 44.5,36.5C 41.4552,36.4921 38.4552,36.1587 35.5,35.5 Z"/></g>
<g><path style="opacity:1" fill="#b7babf" d="M 81.5,26.5 C 83.1667,26.5 84.8333,26.5 86.5,26.5C 86.4802,28.143 87.1468,29.4763 88.5,30.5C 87.1468,31.5237 86.4802,32.857 86.5,34.5C 85.6618,34.8417 85.3284,35.5084 85.5,36.5C 81.4669,36.3656 77.4669,36.0322 73.5,35.5C 73.8241,32.0581 75.4908,31.0581 78.5,32.5C 79.1497,30.8164 80.1497,29.4831 81.5,28.5C 81.5,28.1667 81.5,27.8333 81.5,27.5C 81.5,27.1667 81.5,26.8333 81.5,26.5 Z"/></g>
<g><path style="opacity:1" fill="#3c3d3f" d="M 81.5,28.5 C 82.1499,28.1961 82.8165,27.8627 83.5,27.5C 84.4656,29.396 84.7989,31.396 84.5,33.5C 83.5,33.5 82.5,33.5 81.5,33.5C 81.5,31.8333 81.5,30.1667 81.5,28.5 Z"/></g>
<g><path style="opacity:1" fill="#dbdee3" d="M 86.5,34.5 C 88.0418,35.3007 89.7085,35.634 91.5,35.5C 91.5,35.8333 91.5,36.1667 91.5,36.5C 90.2227,37.6936 89.5561,39.3603 89.5,41.5C 89.5561,43.6397 90.2227,45.3064 91.5,46.5C 90.0318,48.9158 89.3651,51.5825 89.5,54.5C 87.8212,54.7148 86.8212,54.0481 86.5,52.5C 85.8005,48.2022 85.4672,43.8689 85.5,39.5C 84.0413,39.5674 82.7079,39.2341 81.5,38.5C 82.8333,37.8333 84.1667,37.1667 85.5,36.5C 85.3284,35.5084 85.6618,34.8417 86.5,34.5 Z"/></g>
<g><path style="opacity:1" fill="#3a3c3d" d="M 32.5,38.5 C 30.5,38.5 28.5,38.5 26.5,38.5C 26.5,37.5 26.5,36.5 26.5,35.5C 27.9179,33.6921 29.9179,33.0254 32.5,33.5C 32.5,35.1667 32.5,36.8333 32.5,38.5 Z"/></g>
<g><path style="opacity:1" fill="#adaeae" d="M 62.5,33.5 C 64.9294,33.8844 67.2627,34.551 69.5,35.5C 70.1837,38.5749 70.517,41.5749 70.5,44.5C 67.9431,44.6491 65.2765,44.6491 62.5,44.5C 61.242,40.8663 61.242,37.1996 62.5,33.5 Z"/></g>
<g><path style="opacity:1" fill="#9a9b9b" d="M 91.5,36.5 C 93.4748,36.8418 95.8082,37.1752 98.5,37.5C 98.5,37.8333 98.5,38.1667 98.5,38.5C 98.4989,39.7545 98.1656,41.0878 97.5,42.5C 96.5449,44.7099 95.0449,45.0432 93,43.5C 91.9614,44.2438 91.4614,45.2438 91.5,46.5C 90.2227,45.3064 89.5561,43.6397 89.5,41.5C 89.5561,39.3603 90.2227,37.6936 91.5,36.5 Z M 97.5,42.5 C 94.6001,43.9536 93.2668,42.9536 93.5,39.5C 95.9726,39.0882 97.3059,40.0882 97.5,42.5 Z"/></g>
<g><path style="opacity:1" fill="#e8ebf0" d="M 69.5,35.5 C 69.8333,35.5 70.1667,35.5 70.5,35.5C 71.5,35.5 72.5,35.5 73.5,35.5C 77.4669,36.0322 81.4669,36.3656 85.5,36.5C 84.1667,37.1667 82.8333,37.8333 81.5,38.5C 78.6148,38.643 76.2815,39.643 74.5,41.5C 73.6981,42.9516 73.1981,44.6183 73,46.5C 72.5831,45.244 71.7498,44.5774 70.5,44.5C 70.517,41.5749 70.1837,38.5749 69.5,35.5 Z"/></g>
<g><path style="opacity:1" fill="#9b9b9a" d="M 6.5,8.5 C 6.83333,8.5 7.16667,8.5 7.5,8.5C 7.5,14.8333 7.5,21.1667 7.5,27.5C 7.5,29.8333 7.5,32.1667 7.5,34.5C 7.5,39.1667 7.5,43.8333 7.5,48.5C 7.5,50.8333 7.5,53.1667 7.5,55.5C 7.33418,60.1785 7.50085,64.8452 8,69.5C 10.1176,68.2613 11.951,68.5946 13.5,70.5C 11.0882,70.6941 10.0882,72.0274 10.5,74.5C 9.83855,73.2825 9.17189,71.9492 8.5,70.5C 7.53443,72.396 7.2011,74.396 7.5,76.5C 6.50253,54.0061 6.1692,31.3395 6.5,8.5 Z"/></g>
<g><path style="opacity:1" fill="#dcdfe4" d="M 62.5,30.5 C 62.5,31.5 62.5,32.5 62.5,33.5C 61.242,37.1996 61.242,40.8663 62.5,44.5C 62.1959,46.7957 61.1959,47.129 59.5,45.5C 58.7101,44.2058 57.7101,43.0391 56.5,42C 60.4239,41.2015 60.4239,40.7015 56.5,40.5C 54.3074,40.7705 52.6407,41.7705 51.5,43.5C 50.5,43.8333 49.8333,44.5 49.5,45.5C 48.6897,42.6563 47.3564,39.9897 45.5,37.5C 46.2389,37.631 46.9056,37.4643 47.5,37C 46.2617,36.31 46.2617,35.81 47.5,35.5C 48.1667,35.5 48.8333,35.5 49.5,35.5C 50.1522,36.7251 51.3189,37.3917 53,37.5C 54.6811,37.3917 55.8478,36.7251 56.5,35.5C 57.791,35.7373 58.791,35.404 59.5,34.5C 60.9779,33.5525 61.9779,32.2191 62.5,30.5 Z"/></g>
<g><path style="opacity:1" fill="#717375" d="M 49.5,35.5 C 51.8333,35.5 54.1667,35.5 56.5,35.5C 55.8478,36.7251 54.6811,37.3917 53,37.5C 51.3189,37.3917 50.1522,36.7251 49.5,35.5 Z"/></g>
<g><path style="opacity:1" fill="#a4a5a5" d="M 10.5,32.5 C 11.5,32.5 12.5,32.5 13.5,32.5C 15.2371,35.008 16.0704,38.008 16,41.5C 16.82,34.8817 17.32,34.8817 17.5,41.5C 17.3295,43.7148 16.6628,45.7148 15.5,47.5C 15.6236,48.1067 15.9569,48.44 16.5,48.5C 16.5,48.8333 16.5,49.1667 16.5,49.5C 16.1765,56.0221 16.5098,62.3554 17.5,68.5C 18.388,71.0545 18.7214,73.7212 18.5,76.5C 20.4385,78.1628 22.7718,78.8294 25.5,78.5C 23.0521,79.4731 20.3854,79.8064 17.5,79.5C 14.5867,78.7589 11.5867,78.2589 8.5,78C 7.94404,77.6174 7.61071,77.1174 7.5,76.5C 10.1128,77.4349 12.7795,77.6015 15.5,77C 13.6854,76.2432 12.0188,75.4098 10.5,74.5C 13.9536,74.7332 14.9536,73.3999 13.5,70.5C 15.0881,68.4727 15.5881,66.1394 15,63.5C 14.6174,64.056 14.1174,64.3893 13.5,64.5C 14.9864,61.6286 13.9864,60.2953 10.5,60.5C 11.5676,59.5655 12.901,59.2322 14.5,59.5C 14.5,57.8333 14.5,56.1667 14.5,54.5C 12.901,54.7678 11.5676,54.4345 10.5,53.5C 14.5634,53.384 15.2301,52.0507 12.5,49.5C 13.6935,49.0296 14.3601,48.0296 14.5,46.5C 14.4805,45.2739 14.1471,44.2739 13.5,43.5C 14.8333,42.1667 14.8333,40.8333 13.5,39.5C 14.4614,37.7354 14.7947,35.7354 14.5,33.5C 12.901,33.7678 11.5676,33.4345 10.5,32.5 Z"/></g>
<g><path style="opacity:1" fill="#b6b8ba" d="M 45.5,37.5 C 47.3564,39.9897 48.6897,42.6563 49.5,45.5C 49.5,46.1667 49.1667,46.5 48.5,46.5C 47.0222,46.762 45.6888,46.4287 44.5,45.5C 45.0253,44.8076 45.6919,44.3076 46.5,44C 44.5188,43.3946 44.1854,42.3946 45.5,41C 41.7483,40.0236 41.0817,40.6902 43.5,43C 42.552,43.4828 41.552,43.6495 40.5,43.5C 40.5,43.1667 40.5,42.8333 40.5,42.5C 40.2671,40.9382 39.6005,39.6049 38.5,38.5C 40.7638,37.7814 43.0971,37.448 45.5,37.5 Z"/></g>
<g><path style="opacity:1" fill="#898989" d="M 99.5,7.5 C 99.8333,7.5 100.167,7.5 100.5,7.5C 101.157,31.1906 100.49,54.5239 98.5,77.5C 96.6916,77.5086 95.0249,77.0086 93.5,76C 95.437,75.8784 96.7703,75.045 97.5,73.5C 97.4431,72.391 97.1098,71.391 96.5,70.5C 96.5,70.1667 96.5,69.8333 96.5,69.5C 97.5,69.5 98.5,69.5 99.5,69.5C 99.309,59.1434 98.9757,48.81 98.5,38.5C 98.5,38.1667 98.5,37.8333 98.5,37.5C 98.6439,27.5933 98.9772,17.5933 99.5,7.5 Z"/></g>
<g><path style="opacity:1" fill="#676766" d="M 10.5,32.5 C 11.5676,33.4345 12.901,33.7678 14.5,33.5C 14.7947,35.7354 14.4614,37.7354 13.5,39.5C 12.209,39.2627 11.209,39.596 10.5,40.5C 9.74867,43.246 8.74867,45.9127 7.5,48.5C 7.5,43.8333 7.5,39.1667 7.5,34.5C 8.23891,34.631 8.90558,34.4643 9.5,34C 8.42378,32.2739 8.25711,30.4406 9,28.5C 9.21003,30.0581 9.71003,31.3915 10.5,32.5 Z"/></g>
<g><path style="opacity:1" fill="#6e7072" d="M 35.5,38.5 C 36.5,38.5 37.5,38.5 38.5,38.5C 39.6005,39.6049 40.2671,40.9382 40.5,42.5C 38.3591,45.0186 36.3591,45.0186 34.5,42.5C 34.4326,41.0413 34.7659,39.7079 35.5,38.5 Z"/></g>
<g><path style="opacity:1" fill="#313235" d="M 74.5,41.5 C 76.1667,41.5 77.8333,41.5 79.5,41.5C 79.5,43.1667 79.5,44.8333 79.5,46.5C 77.8333,46.5 76.1667,46.5 74.5,46.5C 74.5,44.8333 74.5,43.1667 74.5,41.5 Z"/></g>
<g><path style="opacity:1" fill="#bbbdc0" d="M 17.5,25.5 C 18.4767,28.2869 18.81,31.2869 18.5,34.5C 18.5,39.1667 18.5,43.8333 18.5,48.5C 17.8333,48.5 17.1667,48.5 16.5,48.5C 15.9569,48.44 15.6236,48.1067 15.5,47.5C 16.6628,45.7148 17.3295,43.7148 17.5,41.5C 17.32,34.8817 16.82,34.8817 16,41.5C 16.0704,38.008 15.2371,35.008 13.5,32.5C 14.4709,31.0379 14.1376,29.7046 12.5,28.5C 13.4959,28.4142 14.3292,28.7476 15,29.5C 15.3333,27.8333 15.6667,26.1667 16,24.5C 16.3333,27.5 16.6667,30.5 17,33.5C 17.4974,30.854 17.6641,28.1873 17.5,25.5 Z"/></g>
<g><path style="opacity:1" fill="#85888d" d="M 26.5,35.5 C 26.5,36.5 26.5,37.5 26.5,38.5C 28.5,38.5 30.5,38.5 32.5,38.5C 31.0813,39.4511 29.4147,39.7845 27.5,39.5C 26.5655,40.5676 26.2322,41.901 26.5,43.5C 26.3505,44.552 26.5172,45.552 27,46.5C 28.0633,45.5622 29.2299,44.5622 30.5,43.5C 30.9396,44.698 31.273,45.8647 31.5,47C 28.4686,47.4954 25.4686,47.3287 22.5,46.5C 22.5,44.5 22.5,42.5 22.5,40.5C 22.8333,40.5 23.1667,40.5 23.5,40.5C 24.7671,38.9611 25.7671,37.2944 26.5,35.5 Z"/></g>
<g><path style="opacity:1" fill="#313233" d="M 23.5,40.5 C 24.6491,40.7911 25.3158,41.6244 25.5,43C 25.1667,43.8333 24.8333,44.6667 24.5,45.5C 23.5481,43.9547 23.2148,42.288 23.5,40.5 Z"/></g>
<g><path style="opacity:1" fill="#7c7f84" d="M 59.5,45.5 C 59.7678,47.099 59.4345,48.4324 58.5,49.5C 58.6728,44.6766 56.3394,42.6766 51.5,43.5C 52.6407,41.7705 54.3074,40.7705 56.5,40.5C 60.4239,40.7015 60.4239,41.2015 56.5,42C 57.7101,43.0391 58.7101,44.2058 59.5,45.5 Z"/></g>
<g><path style="opacity:1" fill="#767776" d="M 10.5,40.5 C 10.5,42.5 11.5,43.5 13.5,43.5C 14.1471,44.2739 14.4805,45.2739 14.5,46.5C 14.3601,48.0296 13.6935,49.0296 12.5,49.5C 10.8958,50.287 10.2291,51.6203 10.5,53.5C 9.71003,52.3915 9.21003,51.0581 9,49.5C 8.25711,51.4406 8.42378,53.2739 9.5,55C 8.90558,55.4643 8.23891,55.631 7.5,55.5C 7.5,53.1667 7.5,50.8333 7.5,48.5C 8.74867,45.9127 9.74867,43.246 10.5,40.5 Z"/></g>
<g><path style="opacity:1" fill="#e8eaee" d="M 27.5,39.5 C 29.9741,40.1047 32.3074,41.1047 34.5,42.5C 36.3591,45.0186 38.3591,45.0186 40.5,42.5C 40.5,42.8333 40.5,43.1667 40.5,43.5C 40.5,44.1667 40.5,44.8333 40.5,45.5C 40.5,47.1667 40.5,48.8333 40.5,50.5C 38.7376,50.3573 37.0709,50.6906 35.5,51.5C 34.3776,49.9564 34.711,48.623 36.5,47.5C 35.3864,46.2241 34.3864,46.2241 33.5,47.5C 32.5489,46.0813 32.2155,44.4147 32.5,42.5C 30.4352,42.5172 28.4352,42.8505 26.5,43.5C 26.2322,41.901 26.5655,40.5676 27.5,39.5 Z"/></g>
<g><path style="opacity:1" fill="#dfe2e7" d="M 22.5,26.5 C 22.5,27.1667 22.5,27.8333 22.5,28.5C 22.0254,31.0821 22.6921,33.0821 24.5,34.5C 24.5,35.8333 24.5,37.1667 24.5,38.5C 23.1667,38.5 21.8333,38.5 20.5,38.5C 18.7452,43.7485 19.4118,44.4151 22.5,40.5C 22.5,42.5 22.5,44.5 22.5,46.5C 21.8166,48.1765 20.4832,48.8432 18.5,48.5C 18.5,43.8333 18.5,39.1667 18.5,34.5C 18.9854,31.4308 20.3187,28.7641 22.5,26.5 Z"/></g>
<g><path style="opacity:1" fill="#303234" d="M 51.5,43.5 C 56.3394,42.6766 58.6728,44.6766 58.5,49.5C 57.8333,50.8333 56.8333,51.8333 55.5,52.5C 53.7085,52.634 52.0418,52.3007 50.5,51.5C 49.0582,50.1805 48.3915,48.5138 48.5,46.5C 49.1667,46.5 49.5,46.1667 49.5,45.5C 49.8333,44.5 50.5,43.8333 51.5,43.5 Z"/></g>
<g><path style="opacity:1" fill="#a5a7ab" d="M 81.5,38.5 C 82.7079,39.2341 84.0413,39.5674 85.5,39.5C 85.4672,43.8689 85.8005,48.2022 86.5,52.5C 85.9114,49.2663 83.9114,47.933 80.5,48.5C 78.5,47.8333 76.5,47.1667 74.5,46.5C 76.1667,46.5 77.8333,46.5 79.5,46.5C 79.5,44.8333 79.5,43.1667 79.5,41.5C 77.8333,41.5 76.1667,41.5 74.5,41.5C 76.2815,39.643 78.6148,38.643 81.5,38.5 Z"/></g>
<g><path style="opacity:1" fill="#363738" d="M 82.5,40.5 C 83.2389,40.369 83.9056,40.5357 84.5,41C 84.0338,42.2988 84.0338,43.7988 84.5,45.5C 83.5,45.5 82.5,45.5 81.5,45.5C 81.366,43.7085 81.6993,42.0418 82.5,40.5 Z"/></g>
<g><path style="opacity:1" fill="#dadcdf" d="M 74.5,41.5 C 74.5,43.1667 74.5,44.8333 74.5,46.5C 76.5,47.1667 78.5,47.8333 80.5,48.5C 80.4431,49.609 80.1098,50.609 79.5,51.5C 76.8333,53.1667 76.8333,54.8333 79.5,56.5C 79.44,57.0431 79.1067,57.3764 78.5,57.5C 76.677,56.2528 74.677,55.5861 72.5,55.5C 72.7067,52.8732 71.54,51.2065 69,50.5C 66.8504,51.5171 65.017,52.8504 63.5,54.5C 62.6236,54.3691 61.9569,54.7025 61.5,55.5C 62.1272,56.4168 62.4606,57.4168 62.5,58.5C 61.8333,58.5 61.5,58.8333 61.5,59.5C 60.1667,59.5 59.5,60.1667 59.5,61.5C 58.1805,62.9418 56.5138,63.6085 54.5,63.5C 52.1388,63.9632 50.4721,65.2965 49.5,67.5C 50.3742,69.7466 50.7076,72.0799 50.5,74.5C 49.5,74.5 48.5,74.5 47.5,74.5C 47.5674,73.0413 47.2341,71.7079 46.5,70.5C 46.5364,66.8001 48.2031,64.1335 51.5,62.5C 53.4352,61.8505 55.4352,61.5172 57.5,61.5C 57.1601,58.8559 57.8267,56.5225 59.5,54.5C 59,54.1667 58.5,53.8333 58,53.5C 54.6331,55.0493 51.1331,56.0493 47.5,56.5C 47.5,55.8333 47.5,55.1667 47.5,54.5C 50.5533,54.8893 53.22,54.2227 55.5,52.5C 56.8333,51.8333 57.8333,50.8333 58.5,49.5C 59.4345,48.4324 59.7678,47.099 59.5,45.5C 61.1959,47.129 62.1959,46.7957 62.5,44.5C 65.2765,44.6491 67.9431,44.6491 70.5,44.5C 71.7498,44.5774 72.5831,45.244 73,46.5C 73.1981,44.6183 73.6981,42.9516 74.5,41.5 Z"/></g>
<g><path style="opacity:1" fill="#70706f" d="M 98.5,38.5 C 98.9757,48.81 99.309,59.1434 99.5,69.5C 98.5,69.5 97.5,69.5 96.5,69.5C 95.4138,69.38 94.7472,68.7133 94.5,67.5C 95.2858,65.9589 96.2858,64.6256 97.5,63.5C 97.4431,62.391 97.1098,61.391 96.5,60.5C 96.0962,59.2436 95.4295,58.0769 94.5,57C 96.0997,55.8767 97.0997,54.3767 97.5,52.5C 97.5,50.5 96.5,49.5 94.5,49.5C 93.1001,48.9002 92.1001,47.9002 91.5,46.5C 91.4614,45.2438 91.9614,44.2438 93,43.5C 95.0449,45.0432 96.5449,44.7099 97.5,42.5C 98.1656,41.0878 98.4989,39.7545 98.5,38.5 Z"/></g>
<g><path style="opacity:1" fill="#cbcdd0" d="M 33.5,47.5 C 31.8516,49.4559 31.1849,51.7892 31.5,54.5C 31.1667,54.5 30.8333,54.5 30.5,54.5C 30.5,53.5 30.5,52.5 30.5,51.5C 30.5852,50.0047 29.9185,49.0047 28.5,48.5C 25.0389,48.7675 22.0389,49.7675 19.5,51.5C 18.596,50.791 18.2627,49.791 18.5,48.5C 20.4832,48.8432 21.8166,48.1765 22.5,46.5C 25.4686,47.3287 28.4686,47.4954 31.5,47C 31.273,45.8647 30.9396,44.698 30.5,43.5C 29.2299,44.5622 28.0633,45.5622 27,46.5C 26.5172,45.552 26.3505,44.552 26.5,43.5C 28.4352,42.8505 30.4352,42.5172 32.5,42.5C 32.2155,44.4147 32.5489,46.0813 33.5,47.5 Z"/></g>
<g><path style="opacity:1" fill="#979796" d="M 30.5,51.5 C 26.8333,51.5 23.1667,51.5 19.5,51.5C 22.0389,49.7675 25.0389,48.7675 28.5,48.5C 29.9185,49.0047 30.5852,50.0047 30.5,51.5 Z"/></g>
<g><path style="opacity:1" fill="#898a8c" d="M 72.5,55.5 C 72.0377,56.8799 71.0377,57.5466 69.5,57.5C 67.4371,56.4882 65.4371,55.4882 63.5,54.5C 65.017,52.8504 66.8504,51.5171 69,50.5C 71.54,51.2065 72.7067,52.8732 72.5,55.5 Z"/></g>
<g><path style="opacity:1" fill="#d5d7db" d="M 48.5,46.5 C 48.3915,48.5138 49.0582,50.1805 50.5,51.5C 48.7809,52.0221 47.4475,53.0221 46.5,54.5C 45.8826,54.3893 45.3826,54.056 45,53.5C 44.059,55.7274 42.8923,57.7274 41.5,59.5C 40.9094,58.8485 40.2427,58.1818 39.5,57.5C 40.934,55.7801 41.7674,53.7801 42,51.5C 45.1499,53.1612 46.6499,52.1612 46.5,48.5C 45.0222,48.762 43.6888,48.4287 42.5,47.5C 43.7978,44.7978 43.1312,44.1311 40.5,45.5C 40.5,44.8333 40.5,44.1667 40.5,43.5C 41.552,43.6495 42.552,43.4828 43.5,43C 41.0817,40.6902 41.7483,40.0236 45.5,41C 44.1854,42.3946 44.5188,43.3946 46.5,44C 45.6919,44.3076 45.0253,44.8076 44.5,45.5C 45.6888,46.4287 47.0222,46.762 48.5,46.5 Z"/></g>
<g><path style="opacity:1" fill="#979aa0" d="M 50.5,51.5 C 52.0418,52.3007 53.7085,52.634 55.5,52.5C 53.22,54.2227 50.5533,54.8893 47.5,54.5C 47.1667,54.5 46.8333,54.5 46.5,54.5C 47.4475,53.0221 48.7809,52.0221 50.5,51.5 Z"/></g>
<g><path style="opacity:1" fill="#696a6b" d="M 79.5,51.5 C 80.8333,51.5 82.1667,51.5 83.5,51.5C 83.8799,53.698 83.2132,55.3646 81.5,56.5C 80.8333,56.5 80.1667,56.5 79.5,56.5C 76.8333,54.8333 76.8333,53.1667 79.5,51.5 Z"/></g>
<g><path style="opacity:1" fill="#393a3b" d="M 19.5,51.5 C 23.1667,51.5 26.8333,51.5 30.5,51.5C 30.5,52.5 30.5,53.5 30.5,54.5C 30.3893,55.1174 30.056,55.6174 29.5,56C 25.9733,56.8075 22.6399,56.6408 19.5,55.5C 19.5,54.1667 19.5,52.8333 19.5,51.5 Z"/></g>
<g><path style="opacity:1" fill="#e8ebef" d="M 46.5,54.5 C 46.8333,54.5 47.1667,54.5 47.5,54.5C 47.5,55.1667 47.5,55.8333 47.5,56.5C 47.5,56.8333 47.5,57.1667 47.5,57.5C 47.4745,61.8922 45.1412,63.8922 40.5,63.5C 39.5525,62.0221 38.2191,61.0221 36.5,60.5C 38.1172,59.962 39.7839,59.6287 41.5,59.5C 42.8923,57.7274 44.059,55.7274 45,53.5C 45.3826,54.056 45.8826,54.3893 46.5,54.5 Z"/></g>
<g><path style="opacity:1" fill="#626261" d="M 10.5,53.5 C 11.5676,54.4345 12.901,54.7678 14.5,54.5C 14.5,56.1667 14.5,57.8333 14.5,59.5C 12.901,59.2322 11.5676,59.5655 10.5,60.5C 10.0882,62.9726 11.0882,64.3059 13.5,64.5C 14.1174,64.3893 14.6174,64.056 15,63.5C 15.5881,66.1394 15.0881,68.4727 13.5,70.5C 11.951,68.5946 10.1176,68.2613 8,69.5C 7.50085,64.8452 7.33418,60.1785 7.5,55.5C 8.23891,55.631 8.90558,55.4643 9.5,55C 8.42378,53.2739 8.25711,51.4406 9,49.5C 9.21003,51.0581 9.71003,52.3915 10.5,53.5 Z"/></g>
<g><path style="opacity:1" fill="#a6a7a7" d="M 16.5,49.5 C 16.5,49.1667 16.5,48.8333 16.5,48.5C 17.1667,48.5 17.8333,48.5 18.5,48.5C 18.2627,49.791 18.596,50.791 19.5,51.5C 19.5,52.8333 19.5,54.1667 19.5,55.5C 18.3871,56.9464 18.2204,58.6131 19,60.5C 20.3561,59.6198 21.8561,59.2865 23.5,59.5C 23.3691,60.3764 23.7025,61.0431 24.5,61.5C 25.7362,60.7542 27.0695,60.4208 28.5,60.5C 28.5,61.5 28.5,62.5 28.5,63.5C 25.4816,63.6646 22.4816,63.498 19.5,63C 19,62.5 18.5,62 18,61.5C 17.8238,57.3123 17.3238,53.3123 16.5,49.5 Z"/></g>
<g><path style="opacity:1" fill="#8f9093" d="M 41.5,59.5 C 39.7839,59.6287 38.1172,59.962 36.5,60.5C 35.7688,60.0582 34.7688,59.8915 33.5,60C 36.1332,57.0874 35.4665,55.2541 31.5,54.5C 31.1849,51.7892 31.8516,49.4559 33.5,47.5C 34.3864,46.2241 35.3864,46.2241 36.5,47.5C 34.711,48.623 34.3776,49.9564 35.5,51.5C 37.0709,50.6906 38.7376,50.3573 40.5,50.5C 40.5,48.8333 40.5,47.1667 40.5,45.5C 43.1312,44.1311 43.7978,44.7978 42.5,47.5C 43.6888,48.4287 45.0222,48.762 46.5,48.5C 46.6499,52.1612 45.1499,53.1612 42,51.5C 41.7674,53.7801 40.934,55.7801 39.5,57.5C 40.2427,58.1818 40.9094,58.8485 41.5,59.5 Z"/></g>
<g><path style="opacity:1" fill="#65666a" d="M 61.5,59.5 C 61.5,58.8333 61.8333,58.5 62.5,58.5C 63.8734,58.3433 65.2068,58.51 66.5,59C 67.4506,59.7175 67.6172,60.5509 67,61.5C 65.5557,59.8446 63.7224,59.178 61.5,59.5 Z"/></g>
<g><path style="opacity:1" fill="#c5c7cb" d="M 63.5,54.5 C 65.4371,55.4882 67.4371,56.4882 69.5,57.5C 71.0377,57.5466 72.0377,56.8799 72.5,55.5C 74.677,55.5861 76.677,56.2528 78.5,57.5C 79.1067,57.3764 79.44,57.0431 79.5,56.5C 80.1667,56.5 80.8333,56.5 81.5,56.5C 80.2702,58.2972 79.6036,60.2972 79.5,62.5C 77.8739,60.7568 75.8739,60.2568 73.5,61C 72.1052,66.3485 74.1052,67.8485 79.5,65.5C 79.2852,67.1788 79.9519,68.1788 81.5,68.5C 82.1667,68.5 82.5,68.8333 82.5,69.5C 78.1667,69.5 73.8333,69.5 69.5,69.5C 67.1667,68.8333 64.8333,68.1667 62.5,67.5C 64.1172,66.962 65.7839,66.6287 67.5,66.5C 67.3132,63.974 65.9799,62.3073 63.5,61.5C 60.5639,64.1443 59.8973,63.4776 61.5,59.5C 63.7224,59.178 65.5557,59.8446 67,61.5C 67.6172,60.5509 67.4506,59.7175 66.5,59C 65.2068,58.51 63.8734,58.3433 62.5,58.5C 62.4606,57.4168 62.1272,56.4168 61.5,55.5C 61.9569,54.7025 62.6236,54.3691 63.5,54.5 Z"/></g>
<g><path style="opacity:1" fill="#b2b4b7" d="M 30.5,54.5 C 30.8333,54.5 31.1667,54.5 31.5,54.5C 35.4665,55.2541 36.1332,57.0874 33.5,60C 34.7688,59.8915 35.7688,60.0582 36.5,60.5C 38.2191,61.0221 39.5525,62.0221 40.5,63.5C 37.1667,63.5 33.8333,63.5 30.5,63.5C 30.4606,62.4168 30.1272,61.4168 29.5,60.5C 27.604,59.5344 25.604,59.2011 23.5,59.5C 21.8561,59.2865 20.3561,59.6198 19,60.5C 18.2204,58.6131 18.3871,56.9464 19.5,55.5C 22.6399,56.6408 25.9733,56.8075 29.5,56C 30.056,55.6174 30.3893,55.1174 30.5,54.5 Z"/></g>
<g><path style="opacity:1" fill="#949599" d="M 51.5,62.5 C 50.6016,61.8423 49.6016,61.1757 48.5,60.5C 51.2291,58.6329 50.8957,57.6329 47.5,57.5C 47.5,57.1667 47.5,56.8333 47.5,56.5C 51.1331,56.0493 54.6331,55.0493 58,53.5C 58.5,53.8333 59,54.1667 59.5,54.5C 57.8267,56.5225 57.1601,58.8559 57.5,61.5C 55.4352,61.5172 53.4352,61.8505 51.5,62.5 Z"/></g>
<g><path style="opacity:1" fill="#b93934" d="M 79.5,62.5 C 79.5,63.5 79.5,64.5 79.5,65.5C 74.1052,67.8485 72.1052,66.3485 73.5,61C 75.8739,60.2568 77.8739,60.7568 79.5,62.5 Z"/></g>
<g><path style="opacity:1" fill="#e5e7ec" d="M 47.5,57.5 C 50.8957,57.6329 51.2291,58.6329 48.5,60.5C 49.6016,61.1757 50.6016,61.8423 51.5,62.5C 48.2031,64.1335 46.5364,66.8001 46.5,70.5C 44.1667,73.1667 41.8333,73.1667 39.5,70.5C 37.1667,70.5 34.8333,70.5 32.5,70.5C 30.6693,71.0522 29.0026,71.0522 27.5,70.5C 26.5344,72.396 26.2011,74.396 26.5,76.5C 24.1667,76.5 21.8333,76.5 19.5,76.5C 20.9187,75.5489 22.5853,75.2155 24.5,75.5C 24.2924,73.0799 24.6258,70.7466 25.5,68.5C 23.9928,67.2612 22.8261,67.5946 22,69.5C 21.2904,68.0267 20.1238,67.3601 18.5,67.5C 18.5,66.5 18.5,65.5 18.5,64.5C 22.6002,64.7633 26.6002,64.4299 30.5,63.5C 33.8333,63.5 37.1667,63.5 40.5,63.5C 45.1412,63.8922 47.4745,61.8922 47.5,57.5 Z"/></g>
<g><path style="opacity:1" fill="#a0a3a8" d="M 87.5,61.5 C 87.8212,63.0481 88.8212,63.7148 90.5,63.5C 90.5,64.8333 90.5,66.1667 90.5,67.5C 89.596,66.791 89.2627,65.791 89.5,64.5C 88.5,64.5 87.5,64.5 86.5,64.5C 86.6602,66.1992 86.4935,67.8659 86,69.5C 84.951,67.8934 83.451,67.2267 81.5,67.5C 81.5,64.8333 81.5,62.1667 81.5,59.5C 82.5,59.5 83.5,59.5 84.5,59.5C 84.3505,58.448 84.5172,57.448 85,56.5C 85.9853,58.1749 86.8186,59.8415 87.5,61.5 Z"/></g>
<g><path style="opacity:1" fill="#969797" d="M 91.5,46.5 C 92.1001,47.9002 93.1001,48.9002 94.5,49.5C 93.7659,50.7079 93.4326,52.0413 93.5,53.5C 94.9587,53.5674 96.2921,53.2341 97.5,52.5C 97.0997,54.3767 96.0997,55.8767 94.5,57C 95.4295,58.0769 96.0962,59.2436 96.5,60.5C 95.5,60.5 94.5,60.5 93.5,60.5C 93.2953,63.9864 94.6286,64.9864 97.5,63.5C 96.2858,64.6256 95.2858,65.9589 94.5,67.5C 94.7472,68.7133 95.4138,69.38 96.5,69.5C 96.5,69.8333 96.5,70.1667 96.5,70.5C 95.391,70.5569 94.391,70.8902 93.5,71.5C 92.7321,72.2625 92.2321,73.2625 92,74.5C 91.5065,72.8659 91.3398,71.1992 91.5,69.5C 92.7574,68.3774 92.4241,67.7107 90.5,67.5C 90.5,66.1667 90.5,64.8333 90.5,63.5C 88.8212,63.7148 87.8212,63.0481 87.5,61.5C 88.2389,61.631 88.9056,61.4643 89.5,61C 88.4216,60.3261 87.7549,59.3261 87.5,58C 87.8735,56.4498 88.5401,55.2832 89.5,54.5C 89.3651,51.5825 90.0318,48.9158 91.5,46.5 Z"/></g>
<g><path style="opacity:1" fill="#898a8a" d="M 16.5,49.5 C 17.3238,53.3123 17.8238,57.3123 18,61.5C 18.5,62 19,62.5 19.5,63C 22.4816,63.498 25.4816,63.6646 28.5,63.5C 28.5,62.5 28.5,61.5 28.5,60.5C 27.0695,60.4208 25.7362,60.7542 24.5,61.5C 23.7025,61.0431 23.3691,60.3764 23.5,59.5C 25.604,59.2011 27.604,59.5344 29.5,60.5C 30.1272,61.4168 30.4606,62.4168 30.5,63.5C 26.6002,64.4299 22.6002,64.7633 18.5,64.5C 18.5,65.5 18.5,66.5 18.5,67.5C 17.8333,67.5 17.5,67.8333 17.5,68.5C 16.5098,62.3554 16.1765,56.0221 16.5,49.5 Z"/></g>
<g><path style="opacity:1" fill="#696b6e" d="M 61.5,59.5 C 59.8973,63.4776 60.5639,64.1443 63.5,61.5C 65.9799,62.3073 67.3132,63.974 67.5,66.5C 65.7839,66.6287 64.1172,66.962 62.5,67.5C 61.791,66.596 60.791,66.2627 59.5,66.5C 59.5,64.8333 59.5,63.1667 59.5,61.5C 59.5,60.1667 60.1667,59.5 61.5,59.5 Z"/></g>
<g><path style="opacity:1" fill="#d5d7db" d="M 80.5,48.5 C 83.9114,47.933 85.9114,49.2663 86.5,52.5C 86.8212,54.0481 87.8212,54.7148 89.5,54.5C 88.5401,55.2832 87.8735,56.4498 87.5,58C 87.7549,59.3261 88.4216,60.3261 89.5,61C 88.9056,61.4643 88.2389,61.631 87.5,61.5C 86.8186,59.8415 85.9853,58.1749 85,56.5C 84.5172,57.448 84.3505,58.448 84.5,59.5C 83.5,59.5 82.5,59.5 81.5,59.5C 81.5,62.1667 81.5,64.8333 81.5,67.5C 81.5,67.8333 81.5,68.1667 81.5,68.5C 79.9519,68.1788 79.2852,67.1788 79.5,65.5C 79.5,64.5 79.5,63.5 79.5,62.5C 79.6036,60.2972 80.2702,58.2972 81.5,56.5C 83.2132,55.3646 83.8799,53.698 83.5,51.5C 82.1667,51.5 80.8333,51.5 79.5,51.5C 80.1098,50.609 80.4431,49.609 80.5,48.5 Z"/></g>
<g><path style="opacity:1" fill="#c9ccd1" d="M 59.5,61.5 C 59.5,63.1667 59.5,64.8333 59.5,66.5C 60.791,66.2627 61.791,66.596 62.5,67.5C 61.5,67.5 60.5,67.5 59.5,67.5C 59.3379,69.5273 59.5045,71.5273 60,73.5C 61.0113,74.3366 62.1779,74.67 63.5,74.5C 64.5,75.1667 65.5,75.8333 66.5,76.5C 63.1667,76.5 59.8333,76.5 56.5,76.5C 57.0894,72.0293 56.4228,68.0293 54.5,64.5C 54.5,64.1667 54.5,63.8333 54.5,63.5C 56.5138,63.6085 58.1805,62.9418 59.5,61.5 Z"/></g>
<g><path style="opacity:1" fill="#dfe1e5" d="M 62.5,67.5 C 64.8333,68.1667 67.1667,68.8333 69.5,69.5C 67.7868,70.6354 67.1201,72.302 67.5,74.5C 66.1667,74.5 64.8333,74.5 63.5,74.5C 62.1779,74.67 61.0113,74.3366 60,73.5C 59.5045,71.5273 59.3379,69.5273 59.5,67.5C 60.5,67.5 61.5,67.5 62.5,67.5 Z"/></g>
<g><path style="opacity:1" fill="#2d2f30" d="M 54.5,64.5 C 56.4228,68.0293 57.0894,72.0293 56.5,76.5C 59.8333,76.5 63.1667,76.5 66.5,76.5C 67.5,76.5 68.5,76.5 69.5,76.5C 71.5,76.5 73.5,76.5 75.5,76.5C 78.1667,76.5 80.8333,76.5 83.5,76.5C 70.9663,77.7941 60.2996,77.7941 51.5,76.5C 51.5,72.8333 51.5,69.1667 51.5,65.5C 52.791,65.7373 53.791,65.404 54.5,64.5 Z"/></g>
<g><path style="opacity:1" fill="#d0d3d7" d="M 90.5,67.5 C 92.4241,67.7107 92.7574,68.3774 91.5,69.5C 89.8356,70.9488 89.0023,72.9488 89,75.5C 88.3292,76.2524 87.4959,76.5858 86.5,76.5C 85.5,76.5 84.5,76.5 83.5,76.5C 80.8333,76.5 78.1667,76.5 75.5,76.5C 77.7879,75.9265 79.9546,74.9265 82,73.5C 82.7253,75.158 83.892,75.658 85.5,75C 84.1312,73.2811 83.1312,71.4478 82.5,69.5C 82.5,68.8333 82.1667,68.5 81.5,68.5C 81.5,68.1667 81.5,67.8333 81.5,67.5C 83.451,67.2267 84.951,67.8934 86,69.5C 86.4935,67.8659 86.6602,66.1992 86.5,64.5C 87.5,64.5 88.5,64.5 89.5,64.5C 89.2627,65.791 89.596,66.791 90.5,67.5 Z"/></g>
<g><path style="opacity:1" fill="#88898a" d="M 69.5,69.5 C 73.8333,69.5 78.1667,69.5 82.5,69.5C 78.6273,71.4302 74.294,72.0969 69.5,71.5C 69.5,73.1667 69.5,74.8333 69.5,76.5C 68.5,76.5 67.5,76.5 66.5,76.5C 65.5,75.8333 64.5,75.1667 63.5,74.5C 64.8333,74.5 66.1667,74.5 67.5,74.5C 67.1201,72.302 67.7868,70.6354 69.5,69.5 Z"/></g>
<g><path style="opacity:1" fill="#e3e4e4" d="M 39.5,70.5 C 41.8333,73.1667 44.1667,73.1667 46.5,70.5C 47.2341,71.7079 47.5674,73.0413 47.5,74.5C 44.0793,76.1466 40.4126,76.8132 36.5,76.5C 36.5,74.8333 36.5,73.1667 36.5,71.5C 37.791,71.7373 38.791,71.404 39.5,70.5 Z"/></g>
<g><path style="opacity:1" fill="#b5b5b5" d="M 32.5,70.5 C 34.8333,70.5 37.1667,70.5 39.5,70.5C 38.791,71.404 37.791,71.7373 36.5,71.5C 36.5,73.1667 36.5,74.8333 36.5,76.5C 35.7784,76.0825 35.2784,75.4158 35,74.5C 34.2496,75.1258 33.4162,75.6258 32.5,76C 33.4158,76.2784 34.0825,76.7784 34.5,77.5C 32.5,77.5 30.5,77.5 28.5,77.5C 29.7683,76.213 29.435,75.213 27.5,74.5C 29.1222,72.5614 30.9555,72.228 33,73.5C 33.4696,72.4232 33.3029,71.4232 32.5,70.5 Z"/></g>
<g><path style="opacity:1" fill="#b1b1b1" d="M 82.5,69.5 C 83.1312,71.4478 84.1312,73.2811 85.5,75C 83.892,75.658 82.7253,75.158 82,73.5C 79.9546,74.9265 77.7879,75.9265 75.5,76.5C 73.5,76.5 71.5,76.5 69.5,76.5C 69.5,74.8333 69.5,73.1667 69.5,71.5C 74.294,72.0969 78.6273,71.4302 82.5,69.5 Z"/></g>
<g><path style="opacity:1" fill="#afb1b3" d="M 18.5,67.5 C 20.1238,67.3601 21.2904,68.0267 22,69.5C 22.8261,67.5946 23.9928,67.2612 25.5,68.5C 24.6258,70.7466 24.2924,73.0799 24.5,75.5C 22.5853,75.2155 20.9187,75.5489 19.5,76.5C 19.1667,76.5 18.8333,76.5 18.5,76.5C 18.7214,73.7212 18.388,71.0545 17.5,68.5C 17.5,67.8333 17.8333,67.5 18.5,67.5 Z"/></g>
<g><path style="opacity:1" fill="#656564" d="M 10.5,74.5 C 12.0188,75.4098 13.6854,76.2432 15.5,77C 12.7795,77.6015 10.1128,77.4349 7.5,76.5C 7.2011,74.396 7.53443,72.396 8.5,70.5C 9.17189,71.9492 9.83855,73.2825 10.5,74.5 Z"/></g>
<g><path style="opacity:1" fill="#848587" d="M 32.5,70.5 C 33.3029,71.4232 33.4696,72.4232 33,73.5C 30.9555,72.228 29.1222,72.5614 27.5,74.5C 29.435,75.213 29.7683,76.213 28.5,77.5C 27.391,77.5569 26.391,77.8902 25.5,78.5C 22.7718,78.8294 20.4385,78.1628 18.5,76.5C 18.8333,76.5 19.1667,76.5 19.5,76.5C 21.8333,76.5 24.1667,76.5 26.5,76.5C 26.2011,74.396 26.5344,72.396 27.5,70.5C 29.0026,71.0522 30.6693,71.0522 32.5,70.5 Z"/></g>
<g><path style="opacity:1" fill="#7f8083" d="M 54.5,63.5 C 54.5,63.8333 54.5,64.1667 54.5,64.5C 53.791,65.404 52.791,65.7373 51.5,65.5C 51.5,69.1667 51.5,72.8333 51.5,76.5C 60.2996,77.7941 70.9663,77.7941 83.5,76.5C 84.5,76.5 85.5,76.5 86.5,76.5C 85.2196,77.9313 83.5529,78.5979 81.5,78.5C 72.1045,77.8623 63.1045,78.5289 54.5,80.5C 53.8333,80.5 53.1667,80.5 52.5,80.5C 46.7355,78.8526 40.7355,77.8526 34.5,77.5C 34.0825,76.7784 33.4158,76.2784 32.5,76C 33.4162,75.6258 34.2496,75.1258 35,74.5C 35.2784,75.4158 35.7784,76.0825 36.5,76.5C 40.4126,76.8132 44.0793,76.1466 47.5,74.5C 48.5,74.5 49.5,74.5 50.5,74.5C 50.7076,72.0799 50.3742,69.7466 49.5,67.5C 50.4721,65.2965 52.1388,63.9632 54.5,63.5 Z"/></g>
<g><path style="opacity:1" fill="#a9aaaa" d="M 91.5,69.5 C 91.3398,71.1992 91.5065,72.8659 92,74.5C 92.2321,73.2625 92.7321,72.2625 93.5,71.5C 93.8373,74.3357 95.1707,75.0024 97.5,73.5C 96.7703,75.045 95.437,75.8784 93.5,76C 95.0249,77.0086 96.6916,77.5086 98.5,77.5C 95.6104,78.2448 92.6104,78.9115 89.5,79.5C 86.6146,79.8064 83.9479,79.4731 81.5,78.5C 83.5529,78.5979 85.2196,77.9313 86.5,76.5C 87.4959,76.5858 88.3292,76.2524 89,75.5C 89.0023,72.9488 89.8356,70.9488 91.5,69.5 Z"/></g>
<g><path style="opacity:1" fill="#d3d3d3" d="M 28.5,77.5 C 30.5,77.5 32.5,77.5 34.5,77.5C 40.7355,77.8526 46.7355,78.8526 52.5,80.5C 40.6547,80.8283 28.988,80.4949 17.5,79.5C 20.3854,79.8064 23.0521,79.4731 25.5,78.5C 26.391,77.8902 27.391,77.5569 28.5,77.5 Z"/></g>
<g><path style="opacity:1" fill="#c0c0c1" d="M 81.5,78.5 C 83.9479,79.4731 86.6146,79.8064 89.5,79.5C 85.3656,80.4849 81.0323,80.8182 76.5,80.5C 76.5,81.5 76.5,82.5 76.5,83.5C 74.8333,83.5 73.1667,83.5 71.5,83.5C 71.5,82.5 71.5,81.5 71.5,80.5C 65.8333,80.5 60.1667,80.5 54.5,80.5C 63.1045,78.5289 72.1045,77.8623 81.5,78.5 Z"/></g>
<g><path style="opacity:1" fill="#131414" d="M 72.5,80.5 C 73.675,80.281 74.675,80.6143 75.5,81.5C 73.9483,82.7979 72.9483,82.4646 72.5,80.5 Z"/></g>
</svg>
