<?xml version="1.0" encoding="UTF-8"?>
<!DOCTYPE svg PUBLIC "-//W3C//DTD SVG 1.1//EN" "http://www.w3.org/Graphics/SVG/1.1/DTD/svg11.dtd">
<svg xmlns="http://www.w3.org/2000/svg" version="1.1" width="40px" height="40px" style="shape-rendering:geometricPrecision; text-rendering:geometricPrecision; image-rendering:optimizeQuality; fill-rule:evenodd; clip-rule:evenodd" xmlns:xlink="http://www.w3.org/1999/xlink">
<g><path style="opacity:1" fill="#bbbbbd" d="M 6.5,4.5 C 11.1667,4.5 15.8333,4.5 20.5,4.5C 20.5,4.83333 20.5,5.16667 20.5,5.5C 19.5084,5.32842 18.8417,5.66175 18.5,6.5C 17.1667,6.5 15.8333,6.5 14.5,6.5C 14.5,7.5 14.5,8.5 14.5,9.5C 13.5655,8.43236 13.2322,7.09903 13.5,5.5C 10.9407,5.80155 8.60737,5.46822 6.5,4.5 Z"/></g>
<g><path style="opacity:1" fill="#c3c4c5" d="M 20.5,5.5 C 20.5,5.16667 20.5,4.83333 20.5,4.5C 26.0262,4.17859 31.3595,4.51192 36.5,5.5C 34.5992,5.24649 33.9326,5.57982 34.5,6.5C 34.5,7.16667 34.8333,7.5 35.5,7.5C 35.1583,8.33825 34.4916,8.67158 33.5,8.5C 33.1961,7.85013 32.8627,7.18346 32.5,6.5C 28.5546,5.50909 24.5546,5.17575 20.5,5.5 Z"/></g>
<g><path style="opacity:1" fill="#d7dade" d="M 2.5,5.5 C 3.56764,4.56552 4.90097,4.23219 6.5,4.5C 8.60737,5.46822 10.9407,5.80155 13.5,5.5C 13.2322,7.09903 13.5655,8.43236 14.5,9.5C 14.8417,10.3382 15.5084,10.6716 16.5,10.5C 15.7659,11.7079 15.4326,13.0413 15.5,14.5C 14.596,13.791 14.2627,12.791 14.5,11.5C 13.325,11.281 12.325,11.6143 11.5,12.5C 12.1925,13.5178 12.8592,14.5178 13.5,15.5C 12.8333,15.8333 12.1667,16.1667 11.5,16.5C 10.8333,15.8333 10.1667,15.1667 9.5,14.5C 10.8333,13.1667 10.8333,11.8333 9.5,10.5C 10.5,10.5 11.5,10.5 12.5,10.5C 12.5,9.16667 12.5,7.83333 12.5,6.5C 10.8333,6.5 9.16667,6.5 7.5,6.5C 6.83333,6.5 6.16667,6.5 5.5,6.5C 4.79105,5.59603 3.79105,5.26269 2.5,5.5 Z"/></g>
<g><path style="opacity:1" fill="#dde0e5" d="M 18.5,6.5 C 18.8417,5.66175 19.5084,5.32842 20.5,5.5C 24.5546,5.17575 28.5546,5.50909 32.5,6.5C 32.8627,7.18346 33.1961,7.85013 33.5,8.5C 33.5,8.83333 33.5,9.16667 33.5,9.5C 32.8333,11.1667 32.1667,12.8333 31.5,14.5C 30.1667,12.8333 30.1667,11.1667 31.5,9.5C 31.5,8.5 31.5,7.5 31.5,6.5C 29.8333,6.5 28.1667,6.5 26.5,6.5C 25.8333,6.5 25.1667,6.5 24.5,6.5C 23.1667,6.5 21.8333,6.5 20.5,6.5C 19.8333,6.5 19.1667,6.5 18.5,6.5 Z"/></g>
<g><path style="opacity:1" fill="#58595c" d="M 7.5,6.5 C 9.16667,6.5 10.8333,6.5 12.5,6.5C 12.5,7.83333 12.5,9.16667 12.5,10.5C 11.5,10.5 10.5,10.5 9.5,10.5C 7.82351,9.81658 7.15684,8.48324 7.5,6.5 Z"/></g>
<g><path style="opacity:1" fill="#303132" d="M 18.5,6.5 C 18.5,7.5 18.5,8.5 18.5,9.5C 17.1667,9.5 15.8333,9.5 14.5,9.5C 14.5,8.5 14.5,7.5 14.5,6.5C 15.8333,6.5 17.1667,6.5 18.5,6.5 Z"/></g>
<g><path style="opacity:1" fill="#343537" d="M 20.5,6.5 C 21.8333,6.5 23.1667,6.5 24.5,6.5C 24.5,7.5 24.5,8.5 24.5,9.5C 23.1667,9.5 21.8333,9.5 20.5,9.5C 20.5,8.5 20.5,7.5 20.5,6.5 Z"/></g>
<g><path style="opacity:1" fill="#525455" d="M 26.5,6.5 C 28.1667,6.5 29.8333,6.5 31.5,6.5C 31.5,7.5 31.5,8.5 31.5,9.5C 29.8333,9.5 28.1667,9.5 26.5,9.5C 26.5,8.5 26.5,7.5 26.5,6.5 Z"/></g>
<g><path style="opacity:1" fill="#7a7a7a" d="M 2.5,5.5 C 3.79105,5.26269 4.79105,5.59603 5.5,6.5C 3.07279,7.27885 3.07279,8.44552 5.5,10C 5.27155,10.3988 4.93822,10.5654 4.5,10.5C 3.83333,10.5 3.5,10.8333 3.5,11.5C 4.09065,12.1515 4.75731,12.8182 5.5,13.5C 5.37642,14.1067 5.04309,14.44 4.5,14.5C 3.83333,14.5 3.5,14.8333 3.5,15.5C 4.83333,16.5 4.83333,17.5 3.5,18.5C 3.5,18.8333 3.5,19.1667 3.5,19.5C 4.83333,20.5 4.83333,21.5 3.5,22.5C 2.51114,17.0247 2.1778,11.358 2.5,5.5 Z"/></g>
<g><path style="opacity:1" fill="#acb0b5" d="M 18.5,6.5 C 19.1667,6.5 19.8333,6.5 20.5,6.5C 20.5,7.5 20.5,8.5 20.5,9.5C 21.8333,9.5 23.1667,9.5 24.5,9.5C 23.4324,10.4345 22.099,10.7678 20.5,10.5C 19.1667,10.5 17.8333,10.5 16.5,10.5C 15.5084,10.6716 14.8417,10.3382 14.5,9.5C 15.8333,9.5 17.1667,9.5 18.5,9.5C 18.5,8.5 18.5,7.5 18.5,6.5 Z"/></g>
<g><path style="opacity:1" fill="#b6b8bb" d="M 5.5,6.5 C 6.16667,6.5 6.83333,6.5 7.5,6.5C 7.15684,8.48324 7.82351,9.81658 9.5,10.5C 10.8333,11.8333 10.8333,13.1667 9.5,14.5C 8.83333,14.5 8.16667,14.5 7.5,14.5C 6.53127,15.2033 5.53127,16.5366 4.5,18.5C 4.16667,18.5 3.83333,18.5 3.5,18.5C 4.83333,17.5 4.83333,16.5 3.5,15.5C 4.16667,15.5 4.5,15.1667 4.5,14.5C 5.04309,14.44 5.37642,14.1067 5.5,13.5C 4.75731,12.8182 4.09065,12.1515 3.5,11.5C 4.16667,11.5 4.5,11.1667 4.5,10.5C 4.93822,10.5654 5.27155,10.3988 5.5,10C 3.07279,8.44552 3.07279,7.27885 5.5,6.5 Z"/></g>
<g><path style="opacity:1" fill="#c5c8ce" d="M 24.5,6.5 C 25.1667,6.5 25.8333,6.5 26.5,6.5C 26.5,7.5 26.5,8.5 26.5,9.5C 26.2178,10.7777 25.5511,11.7777 24.5,12.5C 24.1667,12.5 23.8333,12.5 23.5,12.5C 22.5,11.8333 21.5,11.1667 20.5,10.5C 22.099,10.7678 23.4324,10.4345 24.5,9.5C 24.5,8.5 24.5,7.5 24.5,6.5 Z"/></g>
<g><path style="opacity:1" fill="#96989c" d="M 26.5,9.5 C 28.1667,9.5 29.8333,9.5 31.5,9.5C 30.1667,11.1667 30.1667,12.8333 31.5,14.5C 30.8383,16.8324 29.505,17.4991 27.5,16.5C 30.2291,14.6329 29.8957,13.6329 26.5,13.5C 25.8333,13.1667 25.1667,12.8333 24.5,12.5C 25.5511,11.7777 26.2178,10.7777 26.5,9.5 Z"/></g>
<g><path style="opacity:1" fill="#e2e5ea" d="M 16.5,10.5 C 17.8333,10.5 19.1667,10.5 20.5,10.5C 21.5,11.1667 22.5,11.8333 23.5,12.5C 22.7347,15.0961 22.4013,17.7628 22.5,20.5C 22.1667,20.5 21.8333,20.5 21.5,20.5C 21.4431,19.391 21.1098,18.391 20.5,17.5C 21.4345,16.4324 21.7678,15.099 21.5,13.5C 19.901,13.2322 18.5676,13.5655 17.5,14.5C 16.8333,14.5 16.1667,14.5 15.5,14.5C 15.4326,13.0413 15.7659,11.7079 16.5,10.5 Z"/></g>
<g><path style="opacity:1" fill="#acadaf" d="M 23.5,12.5 C 23.8333,12.5 24.1667,12.5 24.5,12.5C 25.1667,12.8333 25.8333,13.1667 26.5,13.5C 25.6314,15.717 25.298,18.0504 25.5,20.5C 24.5,20.5 23.5,20.5 22.5,20.5C 22.4013,17.7628 22.7347,15.0961 23.5,12.5 Z"/></g>
<g><path style="opacity:1" fill="#818280" d="M 34.5,11.5 C 36.5643,13.6597 36.8976,15.993 35.5,18.5C 35.1667,18.5 34.8333,18.5 34.5,18.5C 33.8333,18.5 33.5,18.1667 33.5,17.5C 33.3284,16.5084 33.6618,15.8417 34.5,15.5C 35.8333,15.1667 35.8333,14.8333 34.5,14.5C 33.1667,13.5 33.1667,12.5 34.5,11.5 Z"/></g>
<g><path style="opacity:1" fill="#acaeaf" d="M 15.5,14.5 C 16.1667,14.5 16.8333,14.5 17.5,14.5C 17.5,15.1667 17.5,15.8333 17.5,16.5C 16.4168,16.5394 15.4168,16.8728 14.5,17.5C 13.7025,17.0431 13.3691,16.3764 13.5,15.5C 12.8592,14.5178 12.1925,13.5178 11.5,12.5C 12.325,11.6143 13.325,11.281 14.5,11.5C 14.2627,12.791 14.596,13.791 15.5,14.5 Z"/></g>
<g><path style="opacity:1" fill="#85878a" d="M 17.5,14.5 C 18.5676,13.5655 19.901,13.2322 21.5,13.5C 21.7678,15.099 21.4345,16.4324 20.5,17.5C 20.5,16.5 20.5,15.5 20.5,14.5C 19.5,14.5 18.5,14.5 17.5,14.5 Z"/></g>
<g><path style="opacity:1" fill="#a4a4a3" d="M 36.5,5.5 C 37.8333,14.5 37.8333,23.5 36.5,32.5C 34.5992,32.7535 33.9326,32.4202 34.5,31.5C 35.1667,31.5 35.5,31.1667 35.5,30.5C 36.8333,29.5 36.8333,28.5 35.5,27.5C 35.5,27.1667 35.5,26.8333 35.5,26.5C 36.8333,25.5 36.8333,24.5 35.5,23.5C 35.1667,22.1667 34.8333,22.1667 34.5,23.5C 33.8333,23.8333 33.1667,24.1667 32.5,24.5C 32.4021,22.4471 33.0687,20.7804 34.5,19.5C 35.1667,19.5 35.5,19.1667 35.5,18.5C 36.8976,15.993 36.5643,13.6597 34.5,11.5C 35.8333,11.1667 35.8333,10.8333 34.5,10.5C 33.8333,10.5 33.5,10.1667 33.5,9.5C 33.5,9.16667 33.5,8.83333 33.5,8.5C 34.4916,8.67158 35.1583,8.33825 35.5,7.5C 34.8333,7.5 34.5,7.16667 34.5,6.5C 33.9326,5.57982 34.5992,5.24649 36.5,5.5 Z"/></g>
<g><path style="opacity:1" fill="#737577" d="M 7.5,14.5 C 8.16667,14.5 8.83333,14.5 9.5,14.5C 10.1667,15.1667 10.8333,15.8333 11.5,16.5C 10.8333,18.5 9.5,19.8333 7.5,20.5C 8.83333,18.5 8.83333,16.5 7.5,14.5 Z"/></g>
<g><path style="opacity:1" fill="#494a4c" d="M 17.5,14.5 C 18.5,14.5 19.5,14.5 20.5,14.5C 20.5,15.5 20.5,16.5 20.5,17.5C 19.209,17.7373 18.209,17.404 17.5,16.5C 17.5,15.8333 17.5,15.1667 17.5,14.5 Z"/></g>
<g><path style="opacity:1" fill="#c5c8cb" d="M 13.5,15.5 C 13.3691,16.3764 13.7025,17.0431 14.5,17.5C 15.4168,16.8728 16.4168,16.5394 17.5,16.5C 18.209,17.404 19.209,17.7373 20.5,17.5C 21.1098,18.391 21.4431,19.391 21.5,20.5C 20.609,19.8902 19.609,19.5569 18.5,19.5C 15.9474,18.3489 14.6141,19.3489 14.5,22.5C 13.1667,22.5 11.8333,22.5 10.5,22.5C 9.16667,22.5 7.83333,22.5 6.5,22.5C 6.83333,21.8333 7.16667,21.1667 7.5,20.5C 9.5,19.8333 10.8333,18.5 11.5,16.5C 12.1667,16.1667 12.8333,15.8333 13.5,15.5 Z"/></g>
<g><path style="opacity:1" fill="#caccd0" d="M 7.5,14.5 C 8.83333,16.5 8.83333,18.5 7.5,20.5C 7.16667,21.1667 6.83333,21.8333 6.5,22.5C 5.83333,21.5 5.16667,20.5 4.5,19.5C 4.5,19.1667 4.5,18.8333 4.5,18.5C 5.53127,16.5366 6.53127,15.2033 7.5,14.5 Z"/></g>
<g><path style="opacity:1" fill="#d6d9de" d="M 33.5,9.5 C 33.5,10.1667 33.8333,10.5 34.5,10.5C 34.5,10.8333 34.5,11.1667 34.5,11.5C 33.1667,12.5 33.1667,13.5 34.5,14.5C 34.5,14.8333 34.5,15.1667 34.5,15.5C 33.6618,15.8417 33.3284,16.5084 33.5,17.5C 32.8333,18.1667 32.1667,18.8333 31.5,19.5C 30.1667,18.1667 28.8333,18.1667 27.5,19.5C 26.8333,19.8333 26.1667,20.1667 25.5,20.5C 25.298,18.0504 25.6314,15.717 26.5,13.5C 29.8957,13.6329 30.2291,14.6329 27.5,16.5C 29.505,17.4991 30.8383,16.8324 31.5,14.5C 32.1667,12.8333 32.8333,11.1667 33.5,9.5 Z"/></g>
<g><path style="opacity:1" fill="#5f6062" d="M 31.5,19.5 C 30.4324,20.4345 29.099,20.7678 27.5,20.5C 27.5,20.1667 27.5,19.8333 27.5,19.5C 28.8333,18.1667 30.1667,18.1667 31.5,19.5 Z"/></g>
<g><path style="opacity:1" fill="#b4b6bb" d="M 18.5,19.5 C 17.0462,21.2633 17.3796,22.5967 19.5,23.5C 20.9143,25.5983 20.2476,26.5983 17.5,26.5C 16.5204,22.6742 15.6871,22.6742 15,26.5C 14.3292,27.2524 13.4959,27.5858 12.5,27.5C 12.5,27.1667 12.5,26.8333 12.5,26.5C 14.1042,25.713 14.7709,24.3797 14.5,22.5C 14.6141,19.3489 15.9474,18.3489 18.5,19.5 Z"/></g>
<g><path style="opacity:1" fill="#3b3d3f" d="M 18.5,19.5 C 19.609,19.5569 20.609,19.8902 21.5,20.5C 21.5,21.1667 21.5,21.8333 21.5,22.5C 20.8333,22.8333 20.1667,23.1667 19.5,23.5C 17.3796,22.5967 17.0462,21.2633 18.5,19.5 Z"/></g>
<g><path style="opacity:1" fill="#d7d9db" d="M 27.5,19.5 C 27.5,19.8333 27.5,20.1667 27.5,20.5C 28.2625,21.2679 29.2625,21.7679 30.5,22C 29.2642,23.3875 27.9308,24.5542 26.5,25.5C 26.719,24.325 26.3857,23.325 25.5,22.5C 24.1482,23.5244 22.8149,24.5244 21.5,25.5C 21.5,24.5 21.5,23.5 21.5,22.5C 21.5,21.8333 21.5,21.1667 21.5,20.5C 21.8333,20.5 22.1667,20.5 22.5,20.5C 23.5,20.5 24.5,20.5 25.5,20.5C 26.1667,20.1667 26.8333,19.8333 27.5,19.5 Z"/></g>
<g><path style="opacity:1" fill="#494a4a" d="M 6.5,22.5 C 7.83333,22.5 9.16667,22.5 10.5,22.5C 10.5,23.1667 10.5,23.8333 10.5,24.5C 8.51676,24.8432 7.18342,24.1765 6.5,22.5 Z"/></g>
<g><path style="opacity:1" fill="#a2a3a4" d="M 10.5,22.5 C 11.8333,22.5 13.1667,22.5 14.5,22.5C 14.7709,24.3797 14.1042,25.713 12.5,26.5C 10.4727,26.6621 8.4727,26.4955 6.5,26C 8.05814,25.79 9.39147,25.29 10.5,24.5C 10.5,23.8333 10.5,23.1667 10.5,22.5 Z"/></g>
<g><path style="opacity:1" fill="#bfbfc3" d="M 33.5,17.5 C 33.5,18.1667 33.8333,18.5 34.5,18.5C 34.5,18.8333 34.5,19.1667 34.5,19.5C 33.0687,20.7804 32.4021,22.4471 32.5,24.5C 32.1583,25.3382 31.4916,25.6716 30.5,25.5C 29.8333,26.5 29.1667,27.5 28.5,28.5C 27.8333,25.8333 27.1667,25.8333 26.5,28.5C 26.1583,29.3382 25.4916,29.6716 24.5,29.5C 23.5084,29.6716 22.8417,29.3382 22.5,28.5C 23.8333,27.5 25.1667,26.5 26.5,25.5C 27.9308,24.5542 29.2642,23.3875 30.5,22C 29.2625,21.7679 28.2625,21.2679 27.5,20.5C 29.099,20.7678 30.4324,20.4345 31.5,19.5C 32.1667,18.8333 32.8333,18.1667 33.5,17.5 Z"/></g>
<g><path style="opacity:1" fill="#a3a3a3" d="M 2.5,5.5 C 2.1778,11.358 2.51114,17.0247 3.5,22.5C 3.5,22.8333 3.5,23.1667 3.5,23.5C 2.16667,24.5 2.16667,25.5 3.5,26.5C 3.5,26.8333 3.5,27.1667 3.5,27.5C 2.16667,28.5 2.16667,29.5 3.5,30.5C 4.29049,29.5987 5.29049,28.9321 6.5,28.5C 6.91753,29.2216 7.5842,29.7216 8.5,30C 7.24402,30.4169 6.57735,31.2502 6.5,32.5C 5.16667,32.5 3.83333,32.5 2.5,32.5C 1.16667,23.5 1.16667,14.5 2.5,5.5 Z"/></g>
<g><path style="opacity:1" fill="#999a9d" d="M 26.5,25.5 C 25.1667,26.5 23.8333,27.5 22.5,28.5C 21.596,27.791 21.2627,26.791 21.5,25.5C 22.8149,24.5244 24.1482,23.5244 25.5,22.5C 26.3857,23.325 26.719,24.325 26.5,25.5 Z"/></g>
<g><path style="opacity:1" fill="#8d8d8d" d="M 3.5,19.5 C 3.83333,19.5 4.16667,19.5 4.5,19.5C 5.16667,20.5 5.83333,21.5 6.5,22.5C 7.18342,24.1765 8.51676,24.8432 10.5,24.5C 9.39147,25.29 8.05814,25.79 6.5,26C 8.4727,26.4955 10.4727,26.6621 12.5,26.5C 12.5,26.8333 12.5,27.1667 12.5,27.5C 11.8333,27.5 11.1667,27.5 10.5,27.5C 8.90097,27.2322 7.56764,27.5655 6.5,28.5C 5.29049,28.9321 4.29049,29.5987 3.5,30.5C 2.16667,29.5 2.16667,28.5 3.5,27.5C 4.83333,27.1667 4.83333,26.8333 3.5,26.5C 2.16667,25.5 2.16667,24.5 3.5,23.5C 4.83333,23.1667 4.83333,22.8333 3.5,22.5C 4.83333,21.5 4.83333,20.5 3.5,19.5 Z"/></g>
<g><path style="opacity:1" fill="#929394" d="M 34.5,23.5 C 34.8333,23.5 35.1667,23.5 35.5,23.5C 36.8333,24.5 36.8333,25.5 35.5,26.5C 34.1667,26.8333 34.1667,27.1667 35.5,27.5C 36.8333,28.5 36.8333,29.5 35.5,30.5C 35.1667,30.5 34.8333,30.5 34.5,30.5C 33.6851,29.5707 32.8518,28.5707 32,27.5C 31.6667,27.8333 31.3333,28.1667 31,28.5C 30.5172,27.552 30.3505,26.552 30.5,25.5C 31.4916,25.6716 32.1583,25.3382 32.5,24.5C 33.1667,24.1667 33.8333,23.8333 34.5,23.5 Z"/></g>
<g><path style="opacity:1" fill="#b7312b" d="M 28.5,28.5 C 27.8333,28.5 27.1667,28.5 26.5,28.5C 27.1667,25.8333 27.8333,25.8333 28.5,28.5 Z"/></g>
<g><path style="opacity:1" fill="#eaecf1" d="M 17.5,26.5 C 17.5,28.1667 17.5,29.8333 17.5,31.5C 16.1667,31.5 14.8333,31.5 13.5,31.5C 13.6107,30.8826 13.944,30.3826 14.5,30C 12.8333,29.6667 11.1667,29.3333 9.5,29C 10.056,28.6174 10.3893,28.1174 10.5,27.5C 11.1667,27.5 11.8333,27.5 12.5,27.5C 13.4959,27.5858 14.3292,27.2524 15,26.5C 15.6871,22.6742 16.5204,22.6742 17.5,26.5 Z"/></g>
<g><path style="opacity:1" fill="#c8cbd1" d="M 21.5,22.5 C 21.5,23.5 21.5,24.5 21.5,25.5C 21.2627,26.791 21.596,27.791 22.5,28.5C 22.8417,29.3382 23.5084,29.6716 24.5,29.5C 24.5,30.1667 24.5,30.8333 24.5,31.5C 24.1667,31.5 23.8333,31.5 23.5,31.5C 22.5,31.5 21.5,31.5 20.5,31.5C 19.8333,26.1667 19.1667,26.1667 18.5,31.5C 18.1667,31.5 17.8333,31.5 17.5,31.5C 17.5,29.8333 17.5,28.1667 17.5,26.5C 20.2476,26.5983 20.9143,25.5983 19.5,23.5C 20.1667,23.1667 20.8333,22.8333 21.5,22.5 Z"/></g>
<g><path style="opacity:1" fill="#c5c7cb" d="M 10.5,27.5 C 10.3893,28.1174 10.056,28.6174 9.5,29C 11.1667,29.3333 12.8333,29.6667 14.5,30C 13.944,30.3826 13.6107,30.8826 13.5,31.5C 12.7354,31.0766 11.9021,30.7432 11,30.5C 9.59362,31.4138 8.09362,32.0805 6.5,32.5C 6.57735,31.2502 7.24402,30.4169 8.5,30C 7.5842,29.7216 6.91753,29.2216 6.5,28.5C 7.56764,27.5655 8.90097,27.2322 10.5,27.5 Z"/></g>
<g><path style="opacity:1" fill="#c8cbcf" d="M 30.5,25.5 C 30.3505,26.552 30.5172,27.552 31,28.5C 31.3333,28.1667 31.6667,27.8333 32,27.5C 32.8518,28.5707 33.6851,29.5707 34.5,30.5C 34.5,30.8333 34.5,31.1667 34.5,31.5C 33.9326,32.4202 34.5992,32.7535 36.5,32.5C 35.4324,33.4345 34.099,33.7678 32.5,33.5C 32.1667,32.8333 31.8333,32.1667 31.5,31.5C 30.6935,30.2719 29.6935,29.2719 28.5,28.5C 29.1667,27.5 29.8333,26.5 30.5,25.5 Z"/></g>
<g><path style="opacity:1" fill="#2e2f30" d="M 20.5,31.5 C 19.8333,32.8333 19.1667,32.8333 18.5,31.5C 19.1667,26.1667 19.8333,26.1667 20.5,31.5 Z"/></g>
<g><path style="opacity:1" fill="#adacad" d="M 26.5,28.5 C 27.1667,28.5 27.8333,28.5 28.5,28.5C 29.6935,29.2719 30.6935,30.2719 31.5,31.5C 29.1667,31.5 26.8333,31.5 24.5,31.5C 24.5,30.8333 24.5,30.1667 24.5,29.5C 25.4916,29.6716 26.1583,29.3382 26.5,28.5 Z"/></g>
<g><path style="opacity:1" fill="#98999a" d="M 13.5,31.5 C 14.8333,31.5 16.1667,31.5 17.5,31.5C 17.8333,31.5 18.1667,31.5 18.5,31.5C 19.1667,32.8333 19.8333,32.8333 20.5,31.5C 21.5,31.5 22.5,31.5 23.5,31.5C 23.5,32.1667 23.5,32.8333 23.5,33.5C 17.5518,33.4358 11.8851,33.1024 6.5,32.5C 8.09362,32.0805 9.59362,31.4138 11,30.5C 11.9021,30.7432 12.7354,31.0766 13.5,31.5 Z"/></g>
<g><path style="opacity:1" fill="#a0a0a1" d="M 23.5,31.5 C 23.8333,31.5 24.1667,31.5 24.5,31.5C 26.8333,31.5 29.1667,31.5 31.5,31.5C 31.8333,32.1667 32.1667,32.8333 32.5,33.5C 30.7354,34.4614 28.7354,34.7947 26.5,34.5C 25.791,33.596 24.791,33.2627 23.5,33.5C 23.5,32.8333 23.5,32.1667 23.5,31.5 Z"/></g>
<g><path style="opacity:1" fill="#ededee" d="M 2.5,32.5 C 3.83333,32.5 5.16667,32.5 6.5,32.5C 11.8851,33.1024 17.5518,33.4358 23.5,33.5C 24.791,33.2627 25.791,33.596 26.5,34.5C 19.4921,34.6663 12.4921,34.4996 5.5,34C 4.26253,33.7679 3.26253,33.2679 2.5,32.5 Z"/></g>
</svg>
