<?xml version="1.0" encoding="UTF-8"?>
<!DOCTYPE svg PUBLIC "-//W3C//DTD SVG 1.1//EN" "http://www.w3.org/Graphics/SVG/1.1/DTD/svg11.dtd">
<svg xmlns="http://www.w3.org/2000/svg" version="1.1" width="108px" height="87px" style="shape-rendering:geometricPrecision; text-rendering:geometricPrecision; image-rendering:optimizeQuality; fill-rule:evenodd; clip-rule:evenodd" xmlns:xlink="http://www.w3.org/1999/xlink">
<g><path style="opacity:0.929" fill="#918a7f" d="M 5.5,-0.5 C 38.1667,-0.5 70.8333,-0.5 103.5,-0.5C 104.795,0.488369 106.128,1.48837 107.5,2.5C 107.5,3.16667 107.5,3.83333 107.5,4.5C 106.833,4.16667 106.167,3.83333 105.5,3.5C 104.486,2.32627 103.153,1.6596 101.5,1.5C 69.5,0.833333 37.5,0.166667 5.5,-0.5 Z"/></g>
<g><path style="opacity:0.947" fill="#f3f0ef" d="M 103.5,-0.5 C 104.833,-0.5 106.167,-0.5 107.5,-0.5C 107.5,0.5 107.5,1.5 107.5,2.5C 106.128,1.48837 104.795,0.488369 103.5,-0.5 Z"/></g>
<g><path style="opacity:1" fill="#fcfcfb" d="M 101.5,1.5 C 103.153,1.6596 104.486,2.32627 105.5,3.5C 104.892,6.63442 103.226,7.30109 100.5,5.5C 100.047,4.54163 99.3805,3.7083 98.5,3C 91.2865,1.95464 84.2865,2.45464 77.5,4.5C 69.3377,1.85138 61.171,1.85138 53,4.5C 45,1.83333 37,1.83333 29,4.5C 23.9805,2.77932 18.8138,2.11265 13.5,2.5C 11.396,2.2011 9.39605,2.53443 7.5,3.5C 6.56366,4.97439 5.23033,5.97439 3.5,6.5C 1.4038,5.38026 1.07047,3.88026 2.5,2C 35.4983,1.50002 68.4983,1.33335 101.5,1.5 Z"/></g>
<g><path style="opacity:1" fill="#dededb" d="M 13.5,2.5 C 18.8138,2.11265 23.9805,2.77932 29,4.5C 37,1.83333 45,1.83333 53,4.5C 61.171,1.85138 69.3377,1.85138 77.5,4.5C 84.2865,2.45464 91.2865,1.95464 98.5,3C 99.3805,3.7083 100.047,4.54163 100.5,5.5C 100.062,5.43456 99.7284,5.60123 99.5,6C 103.236,7.50657 103.236,8.3399 99.5,8.5C 98.6522,7.37505 97.6522,7.37505 96.5,8.5C 95.7784,8.08247 95.2784,7.4158 95,6.5C 93.4877,8.95736 92.1544,8.95736 91,6.5C 89.4443,8.6348 87.6109,8.96813 85.5,7.5C 83.8877,6.54773 82.3877,6.21439 81,6.5C 80.2828,7.0442 79.7828,7.71087 79.5,8.5C 77.0314,7.93287 74.698,7.93287 72.5,8.5C 71.8899,5.16149 70.7232,4.82815 69,7.5C 66.3333,7.5 63.6667,7.5 61,7.5C 60.0546,7.09464 59.3879,6.42797 59,5.5C 58.7216,6.4158 58.2216,7.08247 57.5,7.5C 54.9321,8.79902 51.9321,8.79902 48.5,7.5C 44.6201,6.59589 40.6201,6.59589 36.5,7.5C 36.1667,7.5 35.8333,7.5 35.5,7.5C 31.7871,8.58481 28.1204,8.58481 24.5,7.5C 20.7469,6.34287 16.9136,6.34287 13,7.5C 11.2768,4.82815 10.1101,5.16149 9.5,8.5C 8.34775,7.37505 7.34775,7.37505 6.5,8.5C 5.25025,8.57735 4.41691,9.24402 4,10.5C 2.51299,9.74714 2.34633,8.9138 3.5,8C 6.79193,5.82397 10.1253,3.99064 13.5,2.5 Z"/></g>
<g><path style="opacity:1" fill="#666362" d="M 72.5,8.5 C 67.5,8.5 62.5,8.5 57.5,8.5C 57.5,8.16667 57.5,7.83333 57.5,7.5C 58.2216,7.08247 58.7216,6.4158 59,5.5C 59.3879,6.42797 60.0546,7.09464 61,7.5C 63.6667,7.5 66.3333,7.5 69,7.5C 70.7232,4.82815 71.8899,5.16149 72.5,8.5 Z"/></g>
<g><path style="opacity:1" fill="#3d3c3b" d="M 24.5,7.5 C 25.4345,8.56764 25.7678,9.90097 25.5,11.5C 24.609,10.8902 23.609,10.5569 22.5,10.5C 20.5879,10.4877 18.5879,10.821 16.5,11.5C 15.4583,10.2089 14.2917,10.2089 13,11.5C 11.2714,11.0257 10.1047,10.0257 9.5,8.5C 10.1101,5.16149 11.2768,4.82815 13,7.5C 16.9136,6.34287 20.7469,6.34287 24.5,7.5 Z"/></g>
<g><path style="opacity:1" fill="#3b3939" d="M 96.5,8.5 C 95.943,10.2352 95.6097,11.9018 95.5,13.5C 94.391,13.5569 93.391,13.8902 92.5,14.5C 92.5394,13.4168 92.8728,12.4168 93.5,11.5C 89.5,10.8333 85.5,10.1667 81.5,9.5C 82.9492,8.82811 84.2825,8.16145 85.5,7.5C 87.6109,8.96813 89.4443,8.6348 91,6.5C 92.1544,8.95736 93.4877,8.95736 95,6.5C 95.2784,7.4158 95.7784,8.08247 96.5,8.5 Z"/></g>
<g><path style="opacity:1" fill="#9a9b9b" d="M 99.5,8.5 C 101.382,9.23727 102.048,10.4039 101.5,12C 99.3964,12.7908 98.063,14.2908 97.5,16.5C 96.4937,16.0623 96.4937,15.3957 97.5,14.5C 97.0431,13.7025 96.3764,13.3691 95.5,13.5C 95.6097,11.9018 95.943,10.2352 96.5,8.5C 97.6522,7.37505 98.6522,7.37505 99.5,8.5 Z"/></g>
<g><path style="opacity:1" fill="#96989a" d="M 9.5,8.5 C 10.1047,10.0257 11.2714,11.0257 13,11.5C 14.2917,10.2089 15.4583,10.2089 16.5,11.5C 15.7611,11.369 15.0944,11.5357 14.5,12C 15.9733,12.7096 16.6399,13.8762 16.5,15.5C 16.5,17.1667 16.5,18.8333 16.5,20.5C 17.8333,20.5 19.1667,20.5 20.5,20.5C 19.0813,21.4511 17.4147,21.7845 15.5,21.5C 15.5,22.5 15.5,23.5 15.5,24.5C 17.5,24.5 19.5,24.5 21.5,24.5C 19.3926,25.4682 17.0593,25.8016 14.5,25.5C 14.7954,22.2659 14.1287,19.2659 12.5,16.5C 11.8333,16.8333 11.1667,17.1667 10.5,17.5C 9.37639,15.6314 8.54306,13.6314 8,11.5C 7.28248,12.4506 6.44915,12.6172 5.5,12C 5.61907,10.8552 5.9524,9.68849 6.5,8.5C 7.34775,7.37505 8.34775,7.37505 9.5,8.5 Z"/></g>
<g><path style="opacity:1" fill="#7c7d7e" d="M 22.5,10.5 C 22.7845,12.4147 22.4511,14.0813 21.5,15.5C 20.8485,14.9094 20.1818,14.2427 19.5,13.5C 18.7348,14.6119 17.7348,15.2786 16.5,15.5C 16.6399,13.8762 15.9733,12.7096 14.5,12C 15.0944,11.5357 15.7611,11.369 16.5,11.5C 18.5879,10.821 20.5879,10.4877 22.5,10.5 Z"/></g>
<g><path style="opacity:1" fill="#aeb1b1" d="M 24.5,7.5 C 28.1204,8.58481 31.7871,8.58481 35.5,7.5C 34.016,8.47332 33.516,9.80666 34,11.5C 37.7881,10.2891 41.6214,10.2891 45.5,11.5C 46.931,11.0234 48.2643,10.3567 49.5,9.5C 49.3764,8.89333 49.0431,8.55999 48.5,8.5C 48.5,8.16667 48.5,7.83333 48.5,7.5C 51.9321,8.79902 54.9321,8.79902 57.5,7.5C 57.5,7.83333 57.5,8.16667 57.5,8.5C 57.3505,9.55198 57.5172,10.552 58,11.5C 62,10.1667 66,10.1667 70,11.5C 71.417,10.9221 72.2504,9.92206 72.5,8.5C 74.698,7.93287 77.0314,7.93287 79.5,8.5C 79.5,9.5 79.5,10.5 79.5,11.5C 74.5325,11.8659 74.8658,12.3659 80.5,13C 81.6843,14.1455 81.6843,15.3121 80.5,16.5C 76.9768,16.1194 73.6435,15.1194 70.5,13.5C 69.7028,16.4096 70.7028,18.743 73.5,20.5C 74.4287,19.3112 74.762,17.9778 74.5,16.5C 75.8333,16.5 77.1667,16.5 78.5,16.5C 78.3433,17.8734 78.51,19.2068 79,20.5C 79.3826,19.944 79.8826,19.6107 80.5,19.5C 82.0603,21.1294 81.727,22.296 79.5,23C 80.1667,24 80.8333,25 81.5,26C 78.5,26.6667 75.5,26.6667 72.5,26C 72.0166,23.3207 70.85,20.8207 69,18.5C 67.9614,19.2438 67.4614,20.2438 67.5,21.5C 66.5084,21.6716 65.8417,21.3382 65.5,20.5C 63.1137,19.08 60.447,18.08 57.5,17.5C 55.6326,14.618 52.966,13.2847 49.5,13.5C 48.6897,15.7983 47.8564,18.1316 47,20.5C 46.7104,18.9559 46.0437,17.6226 45,16.5C 44.5357,17.0944 44.369,17.7611 44.5,18.5C 44.5,19.1667 44.5,19.8333 44.5,20.5C 44.1667,20.5 43.8333,20.5 43.5,20.5C 43.838,17.8431 43.1713,15.5098 41.5,13.5C 40.1667,16.1667 38.8333,16.1667 37.5,13.5C 36.4826,16.028 35.3159,16.028 34,13.5C 33.6012,13.7284 33.4346,14.0618 33.5,14.5C 31.1141,12.9245 28.4475,11.9245 25.5,11.5C 25.7678,9.90097 25.4345,8.56764 24.5,7.5 Z"/></g>
<g><path style="opacity:1" fill="#2a292a" d="M 57.5,8.5 C 62.5,8.5 67.5,8.5 72.5,8.5C 72.2504,9.92206 71.417,10.9221 70,11.5C 66,10.1667 62,10.1667 58,11.5C 57.5172,10.552 57.3505,9.55198 57.5,8.5 Z"/></g>
<g><path style="opacity:1" fill="#2b2b2a" d="M 35.5,7.5 C 35.8333,7.5 36.1667,7.5 36.5,7.5C 40.2984,8.48342 44.2984,8.81675 48.5,8.5C 49.0431,8.55999 49.3764,8.89333 49.5,9.5C 48.2643,10.3567 46.931,11.0234 45.5,11.5C 41.6214,10.2891 37.7881,10.2891 34,11.5C 33.516,9.80666 34.016,8.47332 35.5,7.5 Z"/></g>
<g><path style="opacity:1" fill="#6f6b67" d="M 48.5,7.5 C 48.5,7.83333 48.5,8.16667 48.5,8.5C 44.2984,8.81675 40.2984,8.48342 36.5,7.5C 40.6201,6.59589 44.6201,6.59589 48.5,7.5 Z"/></g>
<g><path style="opacity:1" fill="#c8ccce" d="M 25.5,11.5 C 28.4475,11.9245 31.1141,12.9245 33.5,14.5C 30.7276,15.0823 28.0609,16.0823 25.5,17.5C 25.2417,15.8098 25.2417,13.8098 25.5,11.5 Z"/></g>
<g><path style="opacity:1" fill="#7b7a79" d="M 43.5,20.5 C 42.5655,19.4324 42.2322,18.099 42.5,16.5C 41.5,16.5 40.5,16.5 39.5,16.5C 39.1667,21.8333 38.8333,21.8333 38.5,16.5C 37.5,16.5 36.5,16.5 35.5,16.5C 35.9118,18.9726 34.9118,20.3059 32.5,20.5C 32.7778,18.6536 32.1112,17.3202 30.5,16.5C 29.2164,17.6297 28.383,18.963 28,20.5C 26.2509,20.2517 25.4176,19.2517 25.5,17.5C 28.0609,16.0823 30.7276,15.0823 33.5,14.5C 33.4346,14.0618 33.6012,13.7284 34,13.5C 35.3159,16.028 36.4826,16.028 37.5,13.5C 38.8333,16.1667 40.1667,16.1667 41.5,13.5C 43.1713,15.5098 43.838,17.8431 43.5,20.5 Z"/></g>
<g><path style="opacity:1" fill="#75736f" d="M 80.5,16.5 C 80.5,17.5 80.5,18.5 80.5,19.5C 79.8826,19.6107 79.3826,19.944 79,20.5C 78.51,19.2068 78.3433,17.8734 78.5,16.5C 77.1667,16.5 75.8333,16.5 74.5,16.5C 74.762,17.9778 74.4287,19.3112 73.5,20.5C 70.7028,18.743 69.7028,16.4096 70.5,13.5C 73.6435,15.1194 76.9768,16.1194 80.5,16.5 Z"/></g>
<g><path style="opacity:1" fill="#9ea09f" d="M 85.5,7.5 C 84.2825,8.16145 82.9492,8.82811 81.5,9.5C 85.5,10.1667 89.5,10.8333 93.5,11.5C 92.8728,12.4168 92.5394,13.4168 92.5,14.5C 91.7611,14.369 91.0944,14.5357 90.5,15C 91.7112,15.8928 91.7112,16.7261 90.5,17.5C 87.2423,16.5827 83.909,16.2493 80.5,16.5C 81.6843,15.3121 81.6843,14.1455 80.5,13C 74.8658,12.3659 74.5325,11.8659 79.5,11.5C 79.5,10.5 79.5,9.5 79.5,8.5C 79.7828,7.71087 80.2828,7.0442 81,6.5C 82.3877,6.21439 83.8877,6.54773 85.5,7.5 Z"/></g>
<g><path style="opacity:1" fill="#e3e7e9" d="M -0.5,33.5 C -0.5,31.1667 -0.5,28.8333 -0.5,26.5C 0.221579,26.9175 0.721579,27.5842 1,28.5C 2.25031,23.5805 2.75031,18.5805 2.5,13.5C 3.83333,13.5 5.16667,13.5 6.5,13.5C 6.3291,15.9928 7.3291,17.8261 9.5,19C 6.77236,19.5274 5.43903,21.194 5.5,24C 5.39676,25.5615 5.06342,27.0615 4.5,28.5C 5.85318,29.5237 6.51985,30.857 6.5,32.5C 4.05035,32.298 1.71702,32.6314 -0.5,33.5 Z"/></g>
<g><path style="opacity:1" fill="#cccbc9" d="M 21.5,15.5 C 22.2341,16.7079 22.5674,18.0413 22.5,19.5C 21.8333,19.8333 21.1667,20.1667 20.5,20.5C 19.1667,20.5 17.8333,20.5 16.5,20.5C 16.5,18.8333 16.5,17.1667 16.5,15.5C 17.7348,15.2786 18.7348,14.6119 19.5,13.5C 20.1818,14.2427 20.8485,14.9094 21.5,15.5 Z"/></g>
<g><path style="opacity:1" fill="#cfd6dd" d="M 65.5,20.5 C 60.9886,20.1085 56.6553,20.7752 52.5,22.5C 50.2178,21.7766 47.8845,21.4433 45.5,21.5C 45.7373,20.209 45.404,19.209 44.5,18.5C 44.369,17.7611 44.5357,17.0944 45,16.5C 46.0437,17.6226 46.7104,18.9559 47,20.5C 47.8564,18.1316 48.6897,15.7983 49.5,13.5C 52.966,13.2847 55.6326,14.618 57.5,17.5C 60.447,18.08 63.1137,19.08 65.5,20.5 Z"/></g>
<g><path style="opacity:1" fill="#a0a09e" d="M 22.5,10.5 C 23.609,10.5569 24.609,10.8902 25.5,11.5C 25.2417,13.8098 25.2417,15.8098 25.5,17.5C 25.4176,19.2517 26.2509,20.2517 28,20.5C 28.383,18.963 29.2164,17.6297 30.5,16.5C 32.1112,17.3202 32.7778,18.6536 32.5,20.5C 30.9812,21.4098 29.3146,22.2432 27.5,23C 30.7663,23.2124 33.7663,23.0457 36.5,22.5C 36.2671,24.0618 35.6005,25.3951 34.5,26.5C 33.8333,26.5 33.1667,26.5 32.5,26.5C 30.4352,26.4828 28.4352,26.1495 26.5,25.5C 26.8432,23.5168 26.1765,22.1834 24.5,21.5C 24.5,20.1667 23.8333,19.5 22.5,19.5C 22.5674,18.0413 22.2341,16.7079 21.5,15.5C 22.4511,14.0813 22.7845,12.4147 22.5,10.5 Z"/></g>
<g><path style="opacity:1" fill="#c1c6ca" d="M 43.5,20.5 C 43.8333,20.5 44.1667,20.5 44.5,20.5C 41.8333,21.1667 39.1667,21.8333 36.5,22.5C 33.7663,23.0457 30.7663,23.2124 27.5,23C 29.3146,22.2432 30.9812,21.4098 32.5,20.5C 34.9118,20.3059 35.9118,18.9726 35.5,16.5C 36.5,16.5 37.5,16.5 38.5,16.5C 38.8333,21.8333 39.1667,21.8333 39.5,16.5C 40.5,16.5 41.5,16.5 42.5,16.5C 42.2322,18.099 42.5655,19.4324 43.5,20.5 Z"/></g>
<g><path style="opacity:1" fill="#646566" d="M 22.5,19.5 C 23.8333,19.5 24.5,20.1667 24.5,21.5C 24.1898,23.1436 23.1898,24.1436 21.5,24.5C 19.5,24.5 17.5,24.5 15.5,24.5C 15.5,23.5 15.5,22.5 15.5,21.5C 17.4147,21.7845 19.0813,21.4511 20.5,20.5C 21.1667,20.1667 21.8333,19.8333 22.5,19.5 Z"/></g>
<g><path style="opacity:1" fill="#919293" d="M 14.5,25.5 C 13.791,26.404 12.791,26.7373 11.5,26.5C 11.2852,28.1788 11.9519,29.1788 13.5,29.5C 13.9382,29.4346 14.2716,29.6012 14.5,30C 11.6498,31.5577 10.6498,33.7243 11.5,36.5C 10.675,37.3857 9.67504,37.719 8.5,37.5C 7.80798,34.1922 7.80798,30.1922 8.5,25.5C 10.4816,24.3775 12.4816,24.3775 14.5,25.5 Z"/></g>
<g><path style="opacity:1" fill="#cfd2d6" d="M 24.5,21.5 C 26.1765,22.1834 26.8432,23.5168 26.5,25.5C 23.7743,25.2639 21.441,26.0972 19.5,28C 21.437,28.1216 22.7703,28.955 23.5,30.5C 20.8894,29.6487 18.2227,29.482 15.5,30C 16.7112,29.1072 16.7112,28.2739 15.5,27.5C 14.4777,27.8555 13.811,28.5222 13.5,29.5C 11.9519,29.1788 11.2852,28.1788 11.5,26.5C 12.791,26.7373 13.791,26.404 14.5,25.5C 17.0593,25.8016 19.3926,25.4682 21.5,24.5C 23.1898,24.1436 24.1898,23.1436 24.5,21.5 Z"/></g>
<g><path style="opacity:1" fill="#b7b5b2" d="M 32.5,26.5 C 33.1667,26.5 33.8333,26.5 34.5,26.5C 36.4112,26.5665 38.4112,27.2332 40.5,28.5C 41.6125,32.5065 41.6125,36.5065 40.5,40.5C 37.557,41.2435 34.557,41.7435 31.5,42C 32.4158,42.2784 33.0825,42.7784 33.5,43.5C 31.9519,43.8212 31.2852,44.8212 31.5,46.5C 30.5,46.5 29.5,46.5 28.5,46.5C 28.7148,44.8212 28.0481,43.8212 26.5,43.5C 27.209,42.596 28.209,42.2627 29.5,42.5C 29.9975,39.3259 29.9975,35.9925 29.5,32.5C 28.0222,32.762 26.6888,32.4287 25.5,31.5C 27.7427,30.5258 30.076,30.1924 32.5,30.5C 32.5,29.1667 32.5,27.8333 32.5,26.5 Z"/></g>
<g><path style="opacity:1" fill="#b2b3b1" d="M 105.5,3.5 C 106.167,3.83333 106.833,4.16667 107.5,4.5C 107.5,17.8333 107.5,31.1667 107.5,44.5C 106.833,44.5 106.167,44.5 105.5,44.5C 104.607,38.0986 104.274,32.0986 104.5,26.5C 105.339,25.3588 106.006,24.0255 106.5,22.5C 105.253,20.9579 105.253,19.4579 106.5,18C 105.809,16.9326 105.309,15.7659 105,14.5C 104.536,15.0944 104.369,15.7611 104.5,16.5C 103.71,15.3915 103.21,14.0581 103,12.5C 102.808,14.5767 102.308,16.5767 101.5,18.5C 99.6568,17.0613 97.9901,17.228 96.5,19C 96.0574,20.5185 96.7241,21.6852 98.5,22.5C 98.2907,23.086 97.9574,23.586 97.5,24C 98.1667,26 98.8333,28 99.5,30C 98.9056,30.4643 98.2389,30.631 97.5,30.5C 97.8294,27.7718 97.1628,25.4385 95.5,23.5C 93.2417,23.2249 92.9084,22.2249 94.5,20.5C 93.9747,19.8076 93.3081,19.3076 92.5,19C 93.7279,17.5098 93.7279,16.0098 92.5,14.5C 93.391,13.8902 94.391,13.5569 95.5,13.5C 96.3764,13.3691 97.0431,13.7025 97.5,14.5C 96.4937,15.3957 96.4937,16.0623 97.5,16.5C 98.063,14.2908 99.3964,12.7908 101.5,12C 102.048,10.4039 101.382,9.23727 99.5,8.5C 103.236,8.3399 103.236,7.50657 99.5,6C 99.7284,5.60123 100.062,5.43456 100.5,5.5C 103.226,7.30109 104.892,6.63442 105.5,3.5 Z"/></g>
<g><path style="opacity:1" fill="#636568" d="M 104.5,26.5 C 104.5,23.1667 104.5,19.8333 104.5,16.5C 104.369,15.7611 104.536,15.0944 105,14.5C 105.309,15.7659 105.809,16.9326 106.5,18C 105.253,19.4579 105.253,20.9579 106.5,22.5C 106.006,24.0255 105.339,25.3588 104.5,26.5 Z"/></g>
<g><path style="opacity:1" fill="#c7c9ca" d="M -0.5,-0.5 C 1.5,-0.5 3.5,-0.5 5.5,-0.5C 37.5,0.166667 69.5,0.833333 101.5,1.5C 68.4983,1.33335 35.4983,1.50002 2.5,2C 1.07047,3.88026 1.4038,5.38026 3.5,6.5C 5.23033,5.97439 6.56366,4.97439 7.5,3.5C 9.39605,2.53443 11.396,2.2011 13.5,2.5C 10.1253,3.99064 6.79193,5.82397 3.5,8C 2.34633,8.9138 2.51299,9.74714 4,10.5C 4.41691,9.24402 5.25025,8.57735 6.5,8.5C 5.9524,9.68849 5.61907,10.8552 5.5,12C 6.44915,12.6172 7.28248,12.4506 8,11.5C 8.54306,13.6314 9.37639,15.6314 10.5,17.5C 11.1667,17.1667 11.8333,16.8333 12.5,16.5C 14.1287,19.2659 14.7954,22.2659 14.5,25.5C 12.4816,24.3775 10.4816,24.3775 8.5,25.5C 7.80798,30.1922 7.80798,34.1922 8.5,37.5C 8.76781,39.099 8.43448,40.4324 7.5,41.5C 6.73209,40.7375 6.23209,39.7375 6,38.5C 5.46461,40.2705 4.63128,40.6039 3.5,39.5C 4.30937,37.9291 4.64271,36.2624 4.5,34.5C 3.5,34.5 2.5,34.5 1.5,34.5C 1.83017,38.9855 1.83017,43.3188 1.5,47.5C 3.24045,50.9307 3.90711,54.4307 3.5,58C 3.35355,59.7271 2.68688,59.8938 1.5,58.5C 0.818153,59.2427 0.151487,59.9094 -0.5,60.5C -0.5,51.5 -0.5,42.5 -0.5,33.5C 1.71702,32.6314 4.05035,32.298 6.5,32.5C 6.51985,30.857 5.85318,29.5237 4.5,28.5C 5.06342,27.0615 5.39676,25.5615 5.5,24C 5.43903,21.194 6.77236,19.5274 9.5,19C 7.3291,17.8261 6.3291,15.9928 6.5,13.5C 5.16667,13.5 3.83333,13.5 2.5,13.5C 2.75031,18.5805 2.25031,23.5805 1,28.5C 0.721579,27.5842 0.221579,26.9175 -0.5,26.5C -0.5,17.5 -0.5,8.5 -0.5,-0.5 Z"/></g>
<g><path style="opacity:1" fill="#e2e7ec" d="M 44.5,18.5 C 45.404,19.209 45.7373,20.209 45.5,21.5C 47.8845,21.4433 50.2178,21.7766 52.5,22.5C 56.6553,20.7752 60.9886,20.1085 65.5,20.5C 65.8417,21.3382 66.5084,21.6716 67.5,21.5C 69.2132,22.6354 69.8799,24.302 69.5,26.5C 68.5,26.5 67.5,26.5 66.5,26.5C 66.1984,29.0593 66.5318,31.3926 67.5,33.5C 68.2216,33.0825 68.7216,32.4158 69,31.5C 69.5194,32.5156 70.3527,33.1822 71.5,33.5C 72.9798,32.5676 74.3131,32.5676 75.5,33.5C 76.8734,33.3433 78.2068,33.51 79.5,34C 80.7383,34.69 80.7383,35.19 79.5,35.5C 76.9899,35.0535 74.9899,35.7202 73.5,37.5C 70.5706,35.5047 67.2373,34.5047 63.5,34.5C 63.5,35.5 63.5,36.5 63.5,37.5C 62.5,37.5 61.5,37.5 60.5,37.5C 59.6655,43.1832 61.6655,44.6832 66.5,42C 65.6919,41.6924 65.0253,41.1924 64.5,40.5C 65.1667,40.1667 65.8333,39.8333 66.5,39.5C 65.9747,38.8076 65.3081,38.3076 64.5,38C 65.7659,37.6905 66.9326,37.1905 68,36.5C 69.0674,37.1905 70.2341,37.6905 71.5,38C 70.6919,38.3076 70.0253,38.8076 69.5,39.5C 70.1667,39.8333 70.8333,40.1667 71.5,40.5C 70.1468,41.5237 69.4802,42.857 69.5,44.5C 67.5,44.5 65.5,44.5 63.5,44.5C 63.4326,45.9587 63.7659,47.2921 64.5,48.5C 62.7376,48.3573 61.0709,48.6906 59.5,49.5C 58.2613,49.0576 57.2613,48.3909 56.5,47.5C 60.274,43.6225 59.9407,39.7892 55.5,36C 45.842,32.719 42.342,35.8856 45,45.5C 45.7083,46.3805 46.5416,47.0472 47.5,47.5C 47.5,47.8333 47.5,48.1667 47.5,48.5C 46.6016,49.1577 45.6016,49.8243 44.5,50.5C 45.325,51.3857 46.325,51.719 47.5,51.5C 47.7996,53.5445 48.133,55.5445 48.5,57.5C 48.2962,60.5176 47.9629,63.5176 47.5,66.5C 42.3776,67.191 37.2109,67.8577 32,68.5C 23.6276,67.5459 15.4609,67.2126 7.5,67.5C 14.7463,66.536 22.0796,66.2027 29.5,66.5C 29.5,65.1667 29.5,63.8333 29.5,62.5C 29.8102,60.8564 30.8102,59.8564 32.5,59.5C 32.3284,60.4916 32.6618,61.1583 33.5,61.5C 36.8333,61.5 40.1667,61.5 43.5,61.5C 44.4614,59.7354 44.7947,57.7354 44.5,55.5C 40.9458,55.849 37.6125,55.849 34.5,55.5C 34.5,54.5 34.5,53.5 34.5,52.5C 36.9026,51.6642 39.236,51.3308 41.5,51.5C 38.901,50.8647 36.5676,49.8647 34.5,48.5C 34.5,48.1667 34.5,47.8333 34.5,47.5C 34.7678,45.901 34.4345,44.5676 33.5,43.5C 33.0825,42.7784 32.4158,42.2784 31.5,42C 34.557,41.7435 37.557,41.2435 40.5,40.5C 41.6125,36.5065 41.6125,32.5065 40.5,28.5C 38.4112,27.2332 36.4112,26.5665 34.5,26.5C 35.6005,25.3951 36.2671,24.0618 36.5,22.5C 39.1667,21.8333 41.8333,21.1667 44.5,20.5C 44.5,19.8333 44.5,19.1667 44.5,18.5 Z"/></g>
<g><path style="opacity:1" fill="#b5b5b5" d="M 59.5,26.5 C 60.8333,26.5 62.1667,26.5 63.5,26.5C 63.5,28.5 63.5,30.5 63.5,32.5C 62.1667,32.5 60.8333,32.5 59.5,32.5C 59.5,30.5 59.5,28.5 59.5,26.5 Z"/></g>
<g><path style="opacity:1" fill="#505255" d="M 59.5,25.5 C 59.5,25.8333 59.5,26.1667 59.5,26.5C 59.5,28.5 59.5,30.5 59.5,32.5C 55.6011,33.7908 51.6011,33.7908 47.5,32.5C 47.2436,30.2075 47.5769,28.0408 48.5,26C 52.1516,25.5014 55.8183,25.3347 59.5,25.5 Z"/></g>
<g><path style="opacity:1" fill="#b8babb" d="M 59.5,25.5 C 55.8183,25.3347 52.1516,25.5014 48.5,26C 47.5769,28.0408 47.2436,30.2075 47.5,32.5C 46.7535,29.8606 45.7535,27.1939 44.5,24.5C 47,24.1667 49.5,23.8333 52,23.5C 54.9294,23.5248 57.4294,24.1914 59.5,25.5 Z"/></g>
<g><path style="opacity:1" fill="#d7dcdf" d="M 104.5,16.5 C 104.5,19.8333 104.5,23.1667 104.5,26.5C 104.274,32.0986 104.607,38.0986 105.5,44.5C 105.5,44.8333 105.5,45.1667 105.5,45.5C 102.789,42.8518 100.122,42.8518 97.5,45.5C 93.9581,45.1872 90.6248,45.5206 87.5,46.5C 87.5,46.8333 87.5,47.1667 87.5,47.5C 86.8333,47.8333 86.1667,48.1667 85.5,48.5C 85.5,47.1667 85.5,45.8333 85.5,44.5C 82.9752,43.36 80.3085,42.6933 77.5,42.5C 76.1667,42.5 74.8333,42.5 73.5,42.5C 72.1667,41.1667 72.1667,39.8333 73.5,38.5C 73.6107,39.1174 73.944,39.6174 74.5,40C 76.4727,40.4955 78.4727,40.6621 80.5,40.5C 80.634,38.7085 80.3007,37.0418 79.5,35.5C 80.7383,35.19 80.7383,34.69 79.5,34C 78.2068,33.51 76.8734,33.3433 75.5,33.5C 76.6052,31.7 75.9386,30.5334 73.5,30C 74.1667,29.6667 74.8333,29.3333 75.5,29C 73.3018,28.6271 71.1351,28.1271 69,27.5C 67.1886,28.4235 67.3553,29.2569 69.5,30C 68.0267,30.7096 67.3601,31.8762 67.5,33.5C 66.5318,31.3926 66.1984,29.0593 66.5,26.5C 67.5,26.5 68.5,26.5 69.5,26.5C 69.8799,24.302 69.2132,22.6354 67.5,21.5C 67.4614,20.2438 67.9614,19.2438 69,18.5C 70.85,20.8207 72.0166,23.3207 72.5,26C 75.5,26.6667 78.5,26.6667 81.5,26C 80.8333,25 80.1667,24 79.5,23C 81.727,22.296 82.0603,21.1294 80.5,19.5C 80.5,18.5 80.5,17.5 80.5,16.5C 83.909,16.2493 87.2423,16.5827 90.5,17.5C 91.7112,16.7261 91.7112,15.8928 90.5,15C 91.0944,14.5357 91.7611,14.369 92.5,14.5C 93.7279,16.0098 93.7279,17.5098 92.5,19C 93.3081,19.3076 93.9747,19.8076 94.5,20.5C 92.9084,22.2249 93.2417,23.2249 95.5,23.5C 95.5,24.1667 95.1667,24.5 94.5,24.5C 90.8493,24.1617 89.1826,25.8284 89.5,29.5C 87.2646,29.2053 85.2646,29.5386 83.5,30.5C 83.5,31.8333 83.5,33.1667 83.5,34.5C 83.6107,35.1174 83.944,35.6174 84.5,36C 88.0561,36.2223 91.3895,37.0556 94.5,38.5C 93.8478,39.7251 92.6811,40.3917 91,40.5C 88.2146,38.9343 86.048,39.4343 84.5,42C 84.9444,43.7618 85.4444,43.5951 86,41.5C 86.6739,42.5784 87.6739,43.2451 89,43.5C 92.2097,43.455 95.3764,43.1217 98.5,42.5C 99.9738,41.3249 101.64,40.3249 103.5,39.5C 102.372,38.7379 101.205,38.0712 100,37.5C 100.661,35.9652 100.994,34.2985 101,32.5C 99.6976,31.9152 98.531,31.2485 97.5,30.5C 98.2389,30.631 98.9056,30.4643 99.5,30C 98.8333,28 98.1667,26 97.5,24C 97.9574,23.586 98.2907,23.086 98.5,22.5C 96.7241,21.6852 96.0574,20.5185 96.5,19C 97.9901,17.228 99.6568,17.0613 101.5,18.5C 102.308,16.5767 102.808,14.5767 103,12.5C 103.21,14.0581 103.71,15.3915 104.5,16.5 Z"/></g>
<g><path style="opacity:1" fill="#4b4f56" d="M 83.5,30.5 C 86.1667,30.5 88.8333,30.5 91.5,30.5C 91.5,32.1667 91.5,33.8333 91.5,35.5C 88.6462,34.7776 85.9796,34.4443 83.5,34.5C 83.5,33.1667 83.5,31.8333 83.5,30.5 Z"/></g>
<g><path style="opacity:1" fill="#94918e" d="M 75.5,33.5 C 74.3131,32.5676 72.9798,32.5676 71.5,33.5C 70.3527,33.1822 69.5194,32.5156 69,31.5C 68.7216,32.4158 68.2216,33.0825 67.5,33.5C 67.3601,31.8762 68.0267,30.7096 69.5,30C 67.3553,29.2569 67.1886,28.4235 69,27.5C 71.1351,28.1271 73.3018,28.6271 75.5,29C 74.8333,29.3333 74.1667,29.6667 73.5,30C 75.9386,30.5334 76.6052,31.7 75.5,33.5 Z"/></g>
<g><path style="opacity:1" fill="#818283" d="M 95.5,23.5 C 97.1628,25.4385 97.8294,27.7718 97.5,30.5C 96.1667,30.5 94.8333,30.5 93.5,30.5C 93.7135,28.8561 93.3802,27.3561 92.5,26C 93.4158,25.7216 94.0825,25.2216 94.5,24.5C 95.1667,24.5 95.5,24.1667 95.5,23.5 Z"/></g>
<g><path style="opacity:1" fill="#efe6d5" d="M 33.5,30.5 C 35.2646,29.5386 37.2646,29.2053 39.5,29.5C 39.6641,32.1873 39.4974,34.854 39,37.5C 37.6667,38.8333 36.3333,38.8333 35,37.5C 34.8138,34.9644 34.3138,32.631 33.5,30.5 Z"/></g>
<g><path style="opacity:1" fill="#b8babb" d="M 23.5,30.5 C 23.5,31.5 23.5,32.5 23.5,33.5C 20.4281,33.1826 17.4281,33.5159 14.5,34.5C 14.7093,35.086 15.0426,35.586 15.5,36C 18.3647,36.1829 21.0314,36.6829 23.5,37.5C 20.8333,37.5 18.1667,37.5 15.5,37.5C 15.2865,39.1439 15.6198,40.6439 16.5,42C 18.8098,42.4966 21.1432,42.6633 23.5,42.5C 20.6346,43.7828 17.6346,43.7828 14.5,42.5C 12.4775,44.1733 10.1441,44.8399 7.5,44.5C 7.7989,46.604 7.46557,48.604 6.5,50.5C 6.16667,49.5 5.83333,48.5 5.5,47.5C 5.71858,45.3069 6.38524,43.3069 7.5,41.5C 8.43448,40.4324 8.76781,39.099 8.5,37.5C 9.67504,37.719 10.675,37.3857 11.5,36.5C 10.6498,33.7243 11.6498,31.5577 14.5,30C 14.2716,29.6012 13.9382,29.4346 13.5,29.5C 13.811,28.5222 14.4777,27.8555 15.5,27.5C 16.7112,28.2739 16.7112,29.1072 15.5,30C 18.2227,29.482 20.8894,29.6487 23.5,30.5 Z"/></g>
<g><path style="opacity:1" fill="#5d5f65" d="M 56.5,47.5 C 53.5,47.5 50.5,47.5 47.5,47.5C 46.5416,47.0472 45.7083,46.3805 45,45.5C 42.342,35.8856 45.842,32.719 55.5,36C 59.9407,39.7892 60.274,43.6225 56.5,47.5 Z"/></g>
<g><path style="opacity:1" fill="#646566" d="M 79.5,35.5 C 80.3007,37.0418 80.634,38.7085 80.5,40.5C 78.4727,40.6621 76.4727,40.4955 74.5,40C 73.944,39.6174 73.6107,39.1174 73.5,38.5C 73.5,38.1667 73.5,37.8333 73.5,37.5C 74.9899,35.7202 76.9899,35.0535 79.5,35.5 Z"/></g>
<g><path style="opacity:1" fill="#b3b5b5" d="M 94.5,24.5 C 94.0825,25.2216 93.4158,25.7216 92.5,26C 93.3802,27.3561 93.7135,28.8561 93.5,30.5C 94.8333,30.5 96.1667,30.5 97.5,30.5C 98.531,31.2485 99.6976,31.9152 101,32.5C 100.994,34.2985 100.661,35.9652 100,37.5C 101.205,38.0712 102.372,38.7379 103.5,39.5C 101.64,40.3249 99.9738,41.3249 98.5,42.5C 97.193,40.7768 97.193,38.9435 98.5,37C 97.9747,36.3076 97.3081,35.8076 96.5,35.5C 94.6978,36.2749 94.0311,37.2749 94.5,38.5C 91.3895,37.0556 88.0561,36.2223 84.5,36C 83.944,35.6174 83.6107,35.1174 83.5,34.5C 85.9796,34.4443 88.6462,34.7776 91.5,35.5C 91.5,33.8333 91.5,32.1667 91.5,30.5C 88.8333,30.5 86.1667,30.5 83.5,30.5C 85.2646,29.5386 87.2646,29.2053 89.5,29.5C 89.1826,25.8284 90.8493,24.1617 94.5,24.5 Z"/></g>
<g><path style="opacity:1" fill="#8a8b8b" d="M 98.5,42.5 C 95.3764,43.1217 92.2097,43.455 89,43.5C 87.6739,43.2451 86.6739,42.5784 86,41.5C 85.4444,43.5951 84.9444,43.7618 84.5,42C 86.048,39.4343 88.2146,38.9343 91,40.5C 92.6811,40.3917 93.8478,39.7251 94.5,38.5C 94.0311,37.2749 94.6978,36.2749 96.5,35.5C 97.3081,35.8076 97.9747,36.3076 98.5,37C 97.193,38.9435 97.193,40.7768 98.5,42.5 Z"/></g>
<g><path style="opacity:1" fill="#f1f3f6" d="M 26.5,25.5 C 28.4352,26.1495 30.4352,26.4828 32.5,26.5C 32.5,27.8333 32.5,29.1667 32.5,30.5C 30.076,30.1924 27.7427,30.5258 25.5,31.5C 26.6888,32.4287 28.0222,32.762 29.5,32.5C 29.9975,35.9925 29.9975,39.3259 29.5,42.5C 28.209,42.2627 27.209,42.596 26.5,43.5C 25.8333,43.5 25.5,43.8333 25.5,44.5C 24.3773,46.688 24.3773,49.0213 25.5,51.5C 25.1667,51.5 24.8333,51.5 24.5,51.5C 22.4973,49.0181 19.8306,48.0181 16.5,48.5C 14.9894,46.5589 12.9894,46.0589 10.5,47C 8.91034,49.4798 9.41034,51.3132 12,52.5C 13.0299,52.1639 13.5299,51.4972 13.5,50.5C 13.8333,50.5 14.1667,50.5 14.5,50.5C 14.5,51.5 14.5,52.5 14.5,53.5C 14.5,56.1667 14.5,58.8333 14.5,61.5C 13.5,61.5 12.5,61.5 11.5,61.5C 11.5,59.5 11.5,57.5 11.5,55.5C 10.1667,55.5 8.83333,55.5 7.5,55.5C 7.3309,51.4211 6.3309,50.9211 4.5,54C 4.42043,57.3915 4.75376,60.8915 5.5,64.5C 7.48295,64.1852 8.81628,63.1852 9.5,61.5C 10.1667,61.8333 10.8333,62.1667 11.5,62.5C 17.4008,63.8057 23.4008,63.8057 29.5,62.5C 29.5,63.8333 29.5,65.1667 29.5,66.5C 22.0796,66.2027 14.7463,66.536 7.5,67.5C 4.94551,68.388 2.27884,68.7214 -0.5,68.5C -0.5,65.8333 -0.5,63.1667 -0.5,60.5C 0.151487,59.9094 0.818153,59.2427 1.5,58.5C 2.68688,59.8938 3.35355,59.7271 3.5,58C 3.90711,54.4307 3.24045,50.9307 1.5,47.5C 1.83017,43.3188 1.83017,38.9855 1.5,34.5C 2.5,34.5 3.5,34.5 4.5,34.5C 4.64271,36.2624 4.30937,37.9291 3.5,39.5C 4.63128,40.6039 5.46461,40.2705 6,38.5C 6.23209,39.7375 6.73209,40.7375 7.5,41.5C 6.38524,43.3069 5.71858,45.3069 5.5,47.5C 5.83333,48.5 6.16667,49.5 6.5,50.5C 7.46557,48.604 7.7989,46.604 7.5,44.5C 10.1441,44.8399 12.4775,44.1733 14.5,42.5C 17.6346,43.7828 20.6346,43.7828 23.5,42.5C 23.5,40.8333 23.5,39.1667 23.5,37.5C 21.0314,36.6829 18.3647,36.1829 15.5,36C 15.0426,35.586 14.7093,35.086 14.5,34.5C 17.4281,33.5159 20.4281,33.1826 23.5,33.5C 23.5,32.5 23.5,31.5 23.5,30.5C 22.7703,28.955 21.437,28.1216 19.5,28C 21.441,26.0972 23.7743,25.2639 26.5,25.5 Z"/></g>
<g><path style="opacity:1" fill="#72737b" d="M 23.5,37.5 C 23.5,39.1667 23.5,40.8333 23.5,42.5C 21.1432,42.6633 18.8098,42.4966 16.5,42C 15.6198,40.6439 15.2865,39.1439 15.5,37.5C 18.1667,37.5 20.8333,37.5 23.5,37.5 Z"/></g>
<g><path style="opacity:1" fill="#888681" d="M 26.5,43.5 C 28.0481,43.8212 28.7148,44.8212 28.5,46.5C 29.5,46.5 30.5,46.5 31.5,46.5C 31.2852,44.8212 31.9519,43.8212 33.5,43.5C 34.4345,44.5676 34.7678,45.901 34.5,47.5C 31.9272,48.5552 29.2605,48.7218 26.5,48C 25.6634,46.9887 25.33,45.8221 25.5,44.5C 25.5,43.8333 25.8333,43.5 26.5,43.5 Z"/></g>
<g><path style="opacity:1" fill="#858484" d="M 87.5,46.5 C 90.6248,45.5206 93.9581,45.1872 97.5,45.5C 99.5273,45.3379 101.527,45.5045 103.5,46C 104.38,47.3561 104.714,48.8561 104.5,50.5C 104.167,50.5 103.833,50.5 103.5,50.5C 102.263,48.9032 100.596,47.7365 98.5,47C 94.8484,46.5014 91.1817,46.3347 87.5,46.5 Z"/></g>
<g><path style="opacity:1" fill="#959292" d="M 16.5,48.5 C 16.1667,49.5 15.5,50.1667 14.5,50.5C 13.6397,48.0299 12.3064,47.8632 10.5,50C 11.448,50.4828 12.448,50.6495 13.5,50.5C 13.5299,51.4972 13.0299,52.1639 12,52.5C 9.41034,51.3132 8.91034,49.4798 10.5,47C 12.9894,46.0589 14.9894,46.5589 16.5,48.5 Z"/></g>
<g><path style="opacity:1" fill="#454543" d="M 14.5,50.5 C 14.1667,50.5 13.8333,50.5 13.5,50.5C 12.448,50.6495 11.448,50.4828 10.5,50C 12.3064,47.8632 13.6397,48.0299 14.5,50.5 Z"/></g>
<g><path style="opacity:1" fill="#b1b2b3" d="M 73.5,37.5 C 73.5,37.8333 73.5,38.1667 73.5,38.5C 72.1667,39.8333 72.1667,41.1667 73.5,42.5C 70.6905,46.0758 71.6905,48.0758 76.5,48.5C 80.1769,48.8003 81.8436,47.1336 81.5,43.5C 80.5,43.5 79.5,43.5 78.5,43.5C 78.5,44.5 78.5,45.5 78.5,46.5C 77.5,46.5 76.5,46.5 75.5,46.5C 75.5271,44.8007 76.1938,43.4674 77.5,42.5C 80.3085,42.6933 82.9752,43.36 85.5,44.5C 85.5,45.8333 85.5,47.1667 85.5,48.5C 85.0954,49.5498 84.4288,49.5498 83.5,48.5C 82.3147,49.853 80.9814,51.0197 79.5,52C 84.694,52.9892 84.694,54.1559 79.5,55.5C 78.3527,55.1822 77.5194,54.5156 77,53.5C 76.7216,54.4158 76.2216,55.0825 75.5,55.5C 69.7389,55.2912 69.4055,54.4578 74.5,53C 71.9595,51.9596 70.2929,50.1263 69.5,47.5C 67.9291,48.3094 66.2624,48.6427 64.5,48.5C 63.7659,47.2921 63.4326,45.9587 63.5,44.5C 65.5,44.5 67.5,44.5 69.5,44.5C 69.4802,42.857 70.1468,41.5237 71.5,40.5C 70.8333,40.1667 70.1667,39.8333 69.5,39.5C 70.0253,38.8076 70.6919,38.3076 71.5,38C 70.2341,37.6905 69.0674,37.1905 68,36.5C 66.9326,37.1905 65.7659,37.6905 64.5,38C 65.3081,38.3076 65.9747,38.8076 66.5,39.5C 65.8333,39.8333 65.1667,40.1667 64.5,40.5C 65.0253,41.1924 65.6919,41.6924 66.5,42C 61.6655,44.6832 59.6655,43.1832 60.5,37.5C 61.5,37.5 62.5,37.5 63.5,37.5C 63.5,36.5 63.5,35.5 63.5,34.5C 67.2373,34.5047 70.5706,35.5047 73.5,37.5 Z"/></g>
<g><path style="opacity:1" fill="#82807b" d="M 73.5,42.5 C 74.8333,42.5 76.1667,42.5 77.5,42.5C 76.1938,43.4674 75.5271,44.8007 75.5,46.5C 76.5,46.5 77.5,46.5 78.5,46.5C 78.5,45.5 78.5,44.5 78.5,43.5C 79.5,43.5 80.5,43.5 81.5,43.5C 81.8436,47.1336 80.1769,48.8003 76.5,48.5C 71.6905,48.0758 70.6905,46.0758 73.5,42.5 Z"/></g>
<g><path style="opacity:1" fill="#4f5053" d="M 87.5,46.5 C 91.1817,46.3347 94.8484,46.5014 98.5,47C 100.596,47.7365 102.263,48.9032 103.5,50.5C 98.6842,51.6497 93.6842,51.8163 88.5,51C 87.6634,49.9887 87.33,48.8221 87.5,47.5C 87.5,47.1667 87.5,46.8333 87.5,46.5 Z"/></g>
<g><path style="opacity:1" fill="#9a9da1" d="M 47.5,48.5 C 47.5,48.1667 47.5,47.8333 47.5,47.5C 50.5,47.5 53.5,47.5 56.5,47.5C 57.2613,48.3909 58.2613,49.0576 59.5,49.5C 61.0709,48.6906 62.7376,48.3573 64.5,48.5C 64.5,49.1667 64.5,49.8333 64.5,50.5C 58.9414,50.4659 53.2747,49.7992 47.5,48.5 Z"/></g>
<g><path style="opacity:1" fill="#de4845" d="M 16.5,48.5 C 19.8306,48.0181 22.4973,49.0181 24.5,51.5C 24.5,52.1667 24.5,52.8333 24.5,53.5C 21.737,55.6813 18.737,56.0146 15.5,54.5C 15.5,53.8333 15.1667,53.5 14.5,53.5C 14.5,52.5 14.5,51.5 14.5,50.5C 15.5,50.1667 16.1667,49.5 16.5,48.5 Z"/></g>
<g><path style="opacity:1" fill="#9a9997" d="M 34.5,48.5 C 36.5676,49.8647 38.901,50.8647 41.5,51.5C 39.236,51.3308 36.9026,51.6642 34.5,52.5C 31.6035,52.8747 28.9368,52.3747 26.5,51C 29.6752,51.0533 32.3419,50.22 34.5,48.5 Z"/></g>
<g><path style="opacity:1" fill="#a3a3a2" d="M 56.5,57.5 C 53.586,57.1949 50.9193,57.1949 48.5,57.5C 48.133,55.5445 47.7996,53.5445 47.5,51.5C 47.4346,51.0618 47.6012,50.7284 48,50.5C 52.08,51.3002 56.2467,51.8002 60.5,52C 58.9559,52.2896 57.6226,52.9563 56.5,54C 57.6843,55.1455 57.6843,56.3121 56.5,57.5 Z"/></g>
<g><path style="opacity:1" fill="#eeeeee" d="M 105.5,45.5 C 105.5,48.1667 105.5,50.8333 105.5,53.5C 105.5,54.5 105.5,55.5 105.5,56.5C 100.5,56.5 95.5,56.5 90.5,56.5C 90.1667,56.5 89.8333,56.5 89.5,56.5C 89.4894,54.9826 88.8228,53.8159 87.5,53C 93.5879,53.1256 99.2545,52.2923 104.5,50.5C 104.714,48.8561 104.38,47.3561 103.5,46C 101.527,45.5045 99.5273,45.3379 97.5,45.5C 100.122,42.8518 102.789,42.8518 105.5,45.5 Z"/></g>
<g><path style="opacity:1" fill="#828182" d="M 105.5,44.5 C 106.167,44.5 106.833,44.5 107.5,44.5C 107.5,48.8333 107.5,53.1667 107.5,57.5C 106.833,56.1667 106.167,54.8333 105.5,53.5C 105.5,50.8333 105.5,48.1667 105.5,45.5C 105.5,45.1667 105.5,44.8333 105.5,44.5 Z"/></g>
<g><path style="opacity:1" fill="#87878b" d="M 34.5,55.5 C 37.6125,55.849 40.9458,55.849 44.5,55.5C 44.7947,57.7354 44.4614,59.7354 43.5,61.5C 43.719,60.325 43.3857,59.325 42.5,58.5C 39.5258,59.5767 36.5258,59.5767 33.5,58.5C 33.5,59.5 33.5,60.5 33.5,61.5C 32.6618,61.1583 32.3284,60.4916 32.5,59.5C 32.1568,57.5168 32.8235,56.1834 34.5,55.5 Z"/></g>
<g><path style="opacity:1" fill="#c7c8c9" d="M 47.5,48.5 C 53.2747,49.7992 58.9414,50.4659 64.5,50.5C 63.791,51.404 62.791,51.7373 61.5,51.5C 61.5,53.5 61.5,55.5 61.5,57.5C 60.1667,57.5 58.8333,57.5 57.5,57.5C 57.5,58.8333 57.5,60.1667 57.5,61.5C 56.5655,60.4324 56.2322,59.099 56.5,57.5C 57.6843,56.3121 57.6843,55.1455 56.5,54C 57.6226,52.9563 58.9559,52.2896 60.5,52C 56.2467,51.8002 52.08,51.3002 48,50.5C 47.6012,50.7284 47.4346,51.0618 47.5,51.5C 46.325,51.719 45.325,51.3857 44.5,50.5C 45.6016,49.8243 46.6016,49.1577 47.5,48.5 Z"/></g>
<g><path style="opacity:1" fill="#c5c5c6" d="M 87.5,47.5 C 87.33,48.8221 87.6634,49.9887 88.5,51C 93.6842,51.8163 98.6842,51.6497 103.5,50.5C 103.833,50.5 104.167,50.5 104.5,50.5C 99.2545,52.2923 93.5879,53.1256 87.5,53C 88.8228,53.8159 89.4894,54.9826 89.5,56.5C 88.8843,57.2022 88.8843,58.2022 89.5,59.5C 85.3975,58.6107 81.0642,58.2774 76.5,58.5C 72.9303,58.245 72.597,57.245 75.5,55.5C 76.2216,55.0825 76.7216,54.4158 77,53.5C 77.5194,54.5156 78.3527,55.1822 79.5,55.5C 84.694,54.1559 84.694,52.9892 79.5,52C 80.9814,51.0197 82.3147,49.853 83.5,48.5C 84.4288,49.5498 85.0954,49.5498 85.5,48.5C 86.1667,48.1667 86.8333,47.8333 87.5,47.5 Z"/></g>
<g><path style="opacity:1" fill="#928a7e" d="M 89.5,56.5 C 89.8333,56.5 90.1667,56.5 90.5,56.5C 94.6845,57.1664 99.0178,57.8331 103.5,58.5C 98.8804,59.4933 94.2137,59.8266 89.5,59.5C 88.8843,58.2022 88.8843,57.2022 89.5,56.5 Z"/></g>
<g><path style="opacity:1" fill="#d1d3d4" d="M 25.5,44.5 C 25.33,45.8221 25.6634,46.9887 26.5,48C 29.2605,48.7218 31.9272,48.5552 34.5,47.5C 34.5,47.8333 34.5,48.1667 34.5,48.5C 32.3419,50.22 29.6752,51.0533 26.5,51C 28.9368,52.3747 31.6035,52.8747 34.5,52.5C 34.5,53.5 34.5,54.5 34.5,55.5C 32.8235,56.1834 32.1568,57.5168 32.5,59.5C 30.8102,59.8564 29.8102,60.8564 29.5,62.5C 23.4008,63.8057 17.4008,63.8057 11.5,62.5C 16.1667,62.5 20.8333,62.5 25.5,62.5C 25.5,58.8333 25.5,55.1667 25.5,51.5C 24.3773,49.0213 24.3773,46.688 25.5,44.5 Z"/></g>
<g><path style="opacity:1" fill="#d5d4d6" d="M 7.5,55.5 C 7.97065,57.5786 8.63732,59.5786 9.5,61.5C 8.81628,63.1852 7.48295,64.1852 5.5,64.5C 4.75376,60.8915 4.42043,57.3915 4.5,54C 6.3309,50.9211 7.3309,51.4211 7.5,55.5 Z"/></g>
<g><path style="opacity:1" fill="#f7f9fb" d="M 75.5,55.5 C 72.597,57.245 72.9303,58.245 76.5,58.5C 81.0642,58.2774 85.3975,58.6107 89.5,59.5C 94.3165,60.3261 99.3165,60.8261 104.5,61C 104.957,61.414 105.291,61.914 105.5,62.5C 103.892,63.3184 102.225,63.9851 100.5,64.5C 98.4249,62.9362 96.0916,61.9362 93.5,61.5C 93.1667,61.8333 92.8333,62.1667 92.5,62.5C 93.9014,63.5207 95.2347,64.5207 96.5,65.5C 96.5299,66.4972 96.0299,67.1639 95,67.5C 90.6348,66.1647 85.8014,65.1647 80.5,64.5C 78.4311,64.8242 78.0977,65.6575 79.5,67C 76.9615,67.7958 74.6282,67.6291 72.5,66.5C 72.1788,64.9519 71.1788,64.2852 69.5,64.5C 69.5,65.5 69.5,66.5 69.5,67.5C 66.1016,67.8204 62.7683,67.487 59.5,66.5C 60.2474,64.7106 59.914,63.0439 58.5,61.5C 58.1667,61.5 57.8333,61.5 57.5,61.5C 57.5,60.1667 57.5,58.8333 57.5,57.5C 58.8333,57.5 60.1667,57.5 61.5,57.5C 61.5,55.5 61.5,53.5 61.5,51.5C 62.791,51.7373 63.791,51.404 64.5,50.5C 64.5,49.8333 64.5,49.1667 64.5,48.5C 66.2624,48.6427 67.9291,48.3094 69.5,47.5C 70.2929,50.1263 71.9595,51.9596 74.5,53C 69.4055,54.4578 69.7389,55.2912 75.5,55.5 Z"/></g>
<g><path style="opacity:1" fill="#c7c6c6" d="M 105.5,53.5 C 106.167,54.8333 106.833,56.1667 107.5,57.5C 107.5,60.1667 107.5,62.8333 107.5,65.5C 104.044,65.3048 100.378,65.3048 96.5,65.5C 95.2347,64.5207 93.9014,63.5207 92.5,62.5C 92.8333,62.1667 93.1667,61.8333 93.5,61.5C 96.0916,61.9362 98.4249,62.9362 100.5,64.5C 102.225,63.9851 103.892,63.3184 105.5,62.5C 105.291,61.914 104.957,61.414 104.5,61C 99.3165,60.8261 94.3165,60.3261 89.5,59.5C 94.2137,59.8266 98.8804,59.4933 103.5,58.5C 99.0178,57.8331 94.6845,57.1664 90.5,56.5C 95.5,56.5 100.5,56.5 105.5,56.5C 105.5,55.5 105.5,54.5 105.5,53.5 Z"/></g>
<g><path style="opacity:1" fill="#4f5259" d="M 43.5,61.5 C 40.1667,61.5 36.8333,61.5 33.5,61.5C 33.5,60.5 33.5,59.5 33.5,58.5C 36.5258,59.5767 39.5258,59.5767 42.5,58.5C 43.3857,59.325 43.719,60.325 43.5,61.5 Z"/></g>
<g><path style="opacity:1" fill="#b2adac" d="M 24.5,51.5 C 24.8333,51.5 25.1667,51.5 25.5,51.5C 25.5,55.1667 25.5,58.8333 25.5,62.5C 20.8333,62.5 16.1667,62.5 11.5,62.5C 10.8333,62.1667 10.1667,61.8333 9.5,61.5C 8.63732,59.5786 7.97065,57.5786 7.5,55.5C 8.83333,55.5 10.1667,55.5 11.5,55.5C 11.5,57.5 11.5,59.5 11.5,61.5C 12.5,61.5 13.5,61.5 14.5,61.5C 14.5,58.8333 14.5,56.1667 14.5,53.5C 15.1667,53.5 15.5,53.8333 15.5,54.5C 15.2852,56.1788 15.9519,57.1788 17.5,57.5C 16.1938,58.4674 15.5271,59.8007 15.5,61.5C 18.5,61.5 21.5,61.5 24.5,61.5C 24.5,59.8333 24.5,58.1667 24.5,56.5C 24.5,55.5 24.5,54.5 24.5,53.5C 24.5,52.8333 24.5,52.1667 24.5,51.5 Z"/></g>
<g><path style="opacity:1" fill="#4c4b4e" d="M 24.5,56.5 C 24.5,58.1667 24.5,59.8333 24.5,61.5C 21.5,61.5 18.5,61.5 15.5,61.5C 15.5271,59.8007 16.1938,58.4674 17.5,57.5C 19.9029,57.552 22.2362,57.2186 24.5,56.5 Z"/></g>
<g><path style="opacity:1" fill="#8b2524" d="M 24.5,53.5 C 24.5,54.5 24.5,55.5 24.5,56.5C 22.2362,57.2186 19.9029,57.552 17.5,57.5C 15.9519,57.1788 15.2852,56.1788 15.5,54.5C 18.737,56.0146 21.737,55.6813 24.5,53.5 Z"/></g>
<g><path style="opacity:1" fill="#5a5b60" d="M 56.5,57.5 C 56.2322,59.099 56.5655,60.4324 57.5,61.5C 57.8333,61.5 58.1667,61.5 58.5,61.5C 57.8505,63.4352 57.5172,65.4352 57.5,67.5C 57.5,67.8333 57.5,68.1667 57.5,68.5C 56.391,68.5569 55.391,68.8902 54.5,69.5C 51.539,69.5358 49.2057,68.5358 47.5,66.5C 47.9629,63.5176 48.2962,60.5176 48.5,57.5C 50.9193,57.1949 53.586,57.1949 56.5,57.5 Z"/></g>
<g><path style="opacity:1" fill="#938d83" d="M 57.5,67.5 C 65.0804,68.4657 72.747,68.799 80.5,68.5C 72.8333,69.8333 65.1667,69.8333 57.5,68.5C 57.5,68.1667 57.5,67.8333 57.5,67.5 Z"/></g>
<g><path style="opacity:1" fill="#e4e3e0" d="M 58.5,61.5 C 59.914,63.0439 60.2474,64.7106 59.5,66.5C 62.7683,67.487 66.1016,67.8204 69.5,67.5C 70.609,67.4431 71.609,67.1098 72.5,66.5C 74.6282,67.6291 76.9615,67.7958 79.5,67C 78.0977,65.6575 78.4311,64.8242 80.5,64.5C 85.8014,65.1647 90.6348,66.1647 95,67.5C 96.0299,67.1639 96.5299,66.4972 96.5,65.5C 100.378,65.3048 104.044,65.3048 107.5,65.5C 107.5,66.1667 107.5,66.8333 107.5,67.5C 103.566,68.3597 99.5662,68.693 95.5,68.5C 95.4729,70.1993 94.8062,71.5326 93.5,72.5C 90.5,72.5 87.5,72.5 84.5,72.5C 83.209,72.7373 82.209,72.404 81.5,71.5C 81.7373,70.209 81.404,69.209 80.5,68.5C 72.747,68.799 65.0804,68.4657 57.5,67.5C 57.5172,65.4352 57.8505,63.4352 58.5,61.5 Z"/></g>
<g><path style="opacity:1" fill="#fc9388" d="M 72.5,66.5 C 71.609,67.1098 70.609,67.4431 69.5,67.5C 69.5,66.5 69.5,65.5 69.5,64.5C 71.1788,64.2852 72.1788,64.9519 72.5,66.5 Z"/></g>
<g><path style="opacity:1" fill="#b5b2a9" d="M 107.5,67.5 C 107.5,68.1667 107.5,68.8333 107.5,69.5C 104.04,69.5254 100.706,70.1921 97.5,71.5C 99.396,72.4656 101.396,72.7989 103.5,72.5C 101.393,73.4682 99.0593,73.8016 96.5,73.5C 95.609,72.8902 94.609,72.5569 93.5,72.5C 94.8062,71.5326 95.4729,70.1993 95.5,68.5C 99.5662,68.693 103.566,68.3597 107.5,67.5 Z"/></g>
<g><path style="opacity:1" fill="#565350" d="M 25.5,71.5 C 20.5203,70.9853 15.8536,71.652 11.5,73.5C 11.5,72.5 11.5,71.5 11.5,70.5C 13.3666,70.045 15.1999,69.3784 17,68.5C 19.9183,69.6372 22.7516,70.6372 25.5,71.5 Z"/></g>
<g><path style="opacity:1" fill="#a59d91" d="M 47.5,66.5 C 49.2057,68.5358 51.539,69.5358 54.5,69.5C 54.5,69.8333 54.5,70.1667 54.5,70.5C 52.3792,70.3253 50.3792,70.6586 48.5,71.5C 43.122,69.4579 37.4553,68.9579 31.5,70C 30.944,70.3826 30.6107,70.8826 30.5,71.5C 29.0413,71.4326 27.7079,71.7659 26.5,72.5C 26.5,71.8333 26.1667,71.5 25.5,71.5C 22.7516,70.6372 19.9183,69.6372 17,68.5C 15.1999,69.3784 13.3666,70.045 11.5,70.5C 11.5,71.5 11.5,72.5 11.5,73.5C 10.5,73.5 9.5,73.5 8.5,73.5C 8.80393,72.8501 9.13727,72.1835 9.5,71.5C 6.17916,70.6697 2.84583,70.003 -0.5,69.5C -0.5,69.1667 -0.5,68.8333 -0.5,68.5C 2.27884,68.7214 4.94551,68.388 7.5,67.5C 15.4609,67.2126 23.6276,67.5459 32,68.5C 37.2109,67.8577 42.3776,67.191 47.5,66.5 Z"/></g>
<g><path style="opacity:1" fill="#d8d7d5" d="M 107.5,69.5 C 107.5,70.5 107.5,71.5 107.5,72.5C 106.167,72.5 104.833,72.5 103.5,72.5C 101.396,72.7989 99.396,72.4656 97.5,71.5C 100.706,70.1921 104.04,69.5254 107.5,69.5 Z"/></g>
<g><path style="opacity:1" fill="#d2d1cf" d="M 48.5,71.5 C 48.5,72.1667 48.5,72.8333 48.5,73.5C 42.8236,73.6661 37.1569,73.4994 31.5,73C 30.944,72.6174 30.6107,72.1174 30.5,71.5C 30.6107,70.8826 30.944,70.3826 31.5,70C 37.4553,68.9579 43.122,69.4579 48.5,71.5 Z"/></g>
<g><path style="opacity:1" fill="#d0cecc" d="M -0.5,69.5 C 2.84583,70.003 6.17916,70.6697 9.5,71.5C 9.13727,72.1835 8.80393,72.8501 8.5,73.5C 5.39147,73.2641 2.39147,73.5975 -0.5,74.5C -0.5,72.8333 -0.5,71.1667 -0.5,69.5 Z"/></g>
<g><path style="opacity:1" fill="#1d1c1d" d="M 25.5,71.5 C 24.4261,73.2155 22.7594,74.2155 20.5,74.5C 18.0276,73.2335 15.6943,73.2335 13.5,74.5C 12.5084,74.6716 11.8417,74.3382 11.5,73.5C 15.8536,71.652 20.5203,70.9853 25.5,71.5 Z"/></g>
<g><path style="opacity:1" fill="#242222" d="M 54.5,70.5 C 56.0269,70.427 57.0269,71.0937 57.5,72.5C 56.4855,73.7647 54.9855,74.4313 53,74.5C 51.2933,74.4915 49.7933,74.1582 48.5,73.5C 48.5,72.8333 48.5,72.1667 48.5,71.5C 50.3792,70.6586 52.3792,70.3253 54.5,70.5 Z"/></g>
<g><path style="opacity:1" fill="#c6c5c1" d="M 57.5,68.5 C 65.1667,69.8333 72.8333,69.8333 80.5,68.5C 81.404,69.209 81.7373,70.209 81.5,71.5C 80.8333,71.5 80.5,71.8333 80.5,72.5C 79.8333,72.5 79.1667,72.5 78.5,72.5C 71.5988,73.8099 64.5988,73.8099 57.5,72.5C 57.0269,71.0937 56.0269,70.427 54.5,70.5C 54.5,70.1667 54.5,69.8333 54.5,69.5C 55.391,68.8902 56.391,68.5569 57.5,68.5 Z"/></g>
<g><path style="opacity:1" fill="#fcfdfc" d="M 78.5,72.5 C 72.7676,72.7168 67.101,72.2168 61.5,71C 64.3333,70.8333 67.1667,70.6667 70,70.5C 73.2515,70.5191 76.0849,71.1858 78.5,72.5 Z"/></g>
<g><path style="opacity:1" fill="#827f7a" d="M 30.5,71.5 C 30.6107,72.1174 30.944,72.6174 31.5,73C 37.1569,73.4994 42.8236,73.6661 48.5,73.5C 49.7933,74.1582 51.2933,74.4915 53,74.5C 54.9855,74.4313 56.4855,73.7647 57.5,72.5C 64.5988,73.8099 71.5988,73.8099 78.5,72.5C 79.1667,72.5 79.8333,72.5 80.5,72.5C 80.0472,73.4584 79.3805,74.2917 78.5,75C 61.4262,75.8179 44.4262,75.6512 27.5,74.5C 27.1667,73.8333 26.8333,73.1667 26.5,72.5C 27.7079,71.7659 29.0413,71.4326 30.5,71.5 Z"/></g>
<g><path style="opacity:1" fill="#6a6866" d="M 81.5,71.5 C 82.209,72.404 83.209,72.7373 84.5,72.5C 83.7375,73.2679 82.7375,73.7679 81.5,74C 86.6842,74.8163 91.6842,74.6497 96.5,73.5C 99.0593,73.8016 101.393,73.4682 103.5,72.5C 104.833,72.5 106.167,72.5 107.5,72.5C 107.5,74.8333 107.5,77.1667 107.5,79.5C 106.733,80.172 106.066,81.0053 105.5,82C 102.905,82.2256 100.405,82.7256 98,83.5C 73.9061,82.7601 49.9061,82.0934 26,81.5C 20.2219,82.9927 14.3886,83.826 8.5,84C 10,82.5 11.5,81 13,79.5C 15.2826,80.7192 17.616,80.7192 20,79.5C 21.098,78.6161 21.598,77.6161 21.5,76.5C 24.0547,79.2508 25.0547,78.5841 24.5,74.5C 25.5,74.5 26.5,74.5 27.5,74.5C 44.4262,75.6512 61.4262,75.8179 78.5,75C 79.3805,74.2917 80.0472,73.4584 80.5,72.5C 80.5,71.8333 80.8333,71.5 81.5,71.5 Z"/></g>
<g><path style="opacity:1" fill="#423e39" d="M 84.5,72.5 C 87.5,72.5 90.5,72.5 93.5,72.5C 94.609,72.5569 95.609,72.8902 96.5,73.5C 91.6842,74.6497 86.6842,74.8163 81.5,74C 82.7375,73.7679 83.7375,73.2679 84.5,72.5 Z"/></g>
<g><path style="opacity:1" fill="#767470" d="M 8.5,73.5 C 9.5,73.5 10.5,73.5 11.5,73.5C 11.8417,74.3382 12.5084,74.6716 13.5,74.5C 19.3239,74.3466 19.6572,75.0133 14.5,76.5C 15.0253,77.1924 15.6919,77.6924 16.5,78C 11.4401,77.4205 7.60672,79.2539 5,83.5C 3.56095,81.9861 2.06095,81.6527 0.5,82.5C 1.9014,83.5207 3.23473,84.5207 4.5,85.5C 2.83333,85.5 1.16667,85.5 -0.5,85.5C -0.5,81.8333 -0.5,78.1667 -0.5,74.5C 2.39147,73.5975 5.39147,73.2641 8.5,73.5 Z"/></g>
<g><path style="opacity:1" fill="#605f5b" d="M 25.5,71.5 C 26.1667,71.5 26.5,71.8333 26.5,72.5C 26.8333,73.1667 27.1667,73.8333 27.5,74.5C 26.5,74.5 25.5,74.5 24.5,74.5C 25.0547,78.5841 24.0547,79.2508 21.5,76.5C 21.598,77.6161 21.098,78.6161 20,79.5C 17.616,80.7192 15.2826,80.7192 13,79.5C 11.5,81 10,82.5 8.5,84C 14.3886,83.826 20.2219,82.9927 26,81.5C 49.9061,82.0934 73.9061,82.7601 98,83.5C 100.405,82.7256 102.905,82.2256 105.5,82C 106.066,81.0053 106.733,80.172 107.5,79.5C 107.5,81.1667 107.5,82.8333 107.5,84.5C 73.1601,84.3478 38.8267,84.6812 4.5,85.5C 3.23473,84.5207 1.9014,83.5207 0.5,82.5C 2.06095,81.6527 3.56095,81.9861 5,83.5C 7.60672,79.2539 11.4401,77.4205 16.5,78C 15.6919,77.6924 15.0253,77.1924 14.5,76.5C 19.6572,75.0133 19.3239,74.3466 13.5,74.5C 15.6943,73.2335 18.0276,73.2335 20.5,74.5C 22.7594,74.2155 24.4261,73.2155 25.5,71.5 Z"/></g>
<g><path style="opacity:0.959" fill="#525250" d="M 107.5,84.5 C 107.5,85.1667 107.5,85.8333 107.5,86.5C 71.5,86.5 35.5,86.5 -0.5,86.5C -0.5,86.1667 -0.5,85.8333 -0.5,85.5C 1.16667,85.5 2.83333,85.5 4.5,85.5C 38.8267,84.6812 73.1601,84.3478 107.5,84.5 Z"/></g>
</svg>
